<svg width="162" height="142" viewBox="0 0 162 142" fill="none" xmlns="http://www.w3.org/2000/svg">
<path d="M43.0153 161.496C43.0153 161.496 42.9181 161.496 42.8695 161.496C42.3592 161.423 41.9704 161.045 41.9218 160.583C41.8853 160.218 41.8853 159.865 41.9218 159.524C42.0676 157.918 42.2134 156.324 42.3592 154.718C42.6022 152.102 42.8452 149.486 43.0639 146.87C43.4406 142.416 43.878 138.815 44.4369 135.53C45.0687 131.806 46.1987 128.265 47.11 125.588C48.082 122.729 49.5036 119.943 51.3262 117.314C52.7113 115.319 54.3516 113.567 56.1985 112.094C58.7744 110.038 61.4718 108.201 64.2056 106.607C70.8154 102.762 77.7533 99.6833 83.0508 97.4323C84.3023 96.9091 85.5417 96.3737 86.7932 95.8505C91.629 93.8185 96.6228 91.7256 101.386 89.3286C103.852 88.0875 106.076 86.5908 108.008 84.863C108.919 84.0478 109.684 83.1473 110.292 82.1861C111.07 80.945 111.859 79.7039 112.649 78.4628C114.873 74.9706 117.157 71.3568 119.332 67.7551C121.288 64.5063 123.147 61.1237 124.933 57.8506L125.565 56.7068C126.513 54.979 127.06 53.604 127.351 52.2412C127.618 51.0001 127.813 49.6738 127.922 48.2867C128.384 42.6774 128.627 37.5913 128.651 32.7363C128.663 30.2419 128.858 28.0639 129.234 26.0684L129.295 25.7764C129.356 25.4478 129.417 25.1193 129.49 24.7908C130.158 21.7853 130.838 18.7799 131.519 15.7745L131.798 14.5212C131.154 13.7668 130.887 12.7934 130.972 11.5766C131.118 9.71492 131.652 7.84109 132.685 5.67523C133.232 4.51929 133.973 3.92307 135.018 3.78922C135.018 3.78922 135.042 3.76489 135.055 3.75272C135.067 3.74055 135.079 3.72839 135.103 3.70405C135.103 3.66755 135.103 3.61888 135.103 3.5702C135.115 3.36335 135.14 3.1565 135.115 2.94965C135.079 2.58462 134.836 2.3656 134.447 2.34126C133.876 2.32909 133.317 2.47511 132.697 2.84014C131.531 3.52153 130.413 4.40978 129.392 5.48054C127.825 7.11102 126.464 9.02136 125.334 11.1386C124.386 12.915 123.597 14.7767 122.989 16.6627C122.455 18.3419 121.896 20.021 121.349 21.7123C120.656 23.8295 119.964 25.9467 119.295 28.0761C118.469 30.6678 117.521 33.7341 116.671 36.7882C116.063 38.9662 115.577 41.2294 115.14 43.2371C115.006 43.8333 114.982 44.4904 115.043 45.1474C115.322 47.8122 114.958 50.4282 114.618 52.4116C114.107 55.3684 113.366 58.2643 112.771 60.4666C112.042 63.1679 111.3 66.076 110.79 69.0206C110.693 69.5925 110.559 70.14 110.401 70.7362C110.171 71.6001 109.745 71.9773 109.126 71.8435C108.664 71.7462 108.166 71.4055 108.336 70.359C108.421 69.848 108.518 69.3491 108.603 68.8381L108.712 68.2175C109.32 64.8349 110.183 61.4644 111.009 58.1913L111.398 56.6581C112.005 54.2611 112.455 51.8397 112.734 49.4548C112.941 47.6662 112.904 46.06 112.613 44.5147C112.224 42.4462 111.811 40.402 111.398 38.3335L111.07 36.7152C110.79 35.3402 110.511 33.9653 110.219 32.5903L109.928 31.191C109.903 31.0693 109.867 30.9477 109.83 30.826V30.7895C107.838 30.1689 107.254 28.4898 106.987 27.2608C106.89 26.8106 106.793 26.3604 106.708 25.9102C106.538 25.0828 106.367 24.2676 106.173 23.4523C105.869 22.1504 106.173 21.0188 107.048 20.1062C107.133 20.021 107.194 19.9358 107.267 19.8263H107.279C107.279 19.8263 107.242 19.7412 107.23 19.7168C107.157 19.5465 107.084 19.4005 106.987 19.2909C106.744 19.0233 106.428 18.8772 106.112 18.8772H106.1C105.796 18.8772 105.505 19.0111 105.262 19.2544C104.508 20.0088 103.998 20.8728 103.731 21.8218C103.463 22.7466 103.269 23.6835 103.123 24.5961C102.516 28.6966 102.491 31.9941 103.05 34.9874C103.269 36.1555 103.549 37.5304 103.974 38.881C104.557 40.7305 104.557 42.653 103.974 44.7459C102.649 49.6008 101.422 53.9691 99.9277 58.3373C99.1744 60.5518 98.3846 62.4865 97.522 64.263C96.6593 66.0395 95.262 67.2076 93.3665 67.7308L93.245 67.7673C93.0871 67.816 92.9413 67.8525 92.7833 67.889C89.2111 68.5704 85.9305 69.9453 82.9172 71.3203C81.9816 71.7462 81.046 72.1964 80.1105 72.6466L79.6609 72.8656C78.4702 73.4375 77.2187 74.0702 76.113 74.9341C75.6391 75.3113 75.0923 75.4817 74.339 75.506C69.892 75.652 64.0598 76.0049 58.2519 77.465C52.3833 78.9373 46.9156 81.8697 41.9825 86.1771C38.3131 89.3894 35.2026 93.3074 32.5052 98.138C32.3351 98.4544 32.165 98.7707 32.0071 99.0871C31.8613 99.367 31.7276 99.6468 31.5697 99.9267C31.4239 100.194 31.2538 100.499 30.9986 100.718C30.7434 100.924 30.3668 100.961 30.1238 100.924C29.9172 100.9 29.7228 100.791 29.577 100.608C29.4312 100.413 29.3704 100.17 29.3947 99.9389C29.4433 99.5738 29.5284 99.2696 29.6499 99.0263L29.9901 98.3449C30.4761 97.3836 30.9743 96.3737 31.5332 95.4246C34.5465 90.229 38.3982 85.8486 42.9667 82.4051C48.3372 78.3533 54.3273 75.725 60.767 74.5691C64.1935 73.9485 67.6806 73.547 71.107 73.3645C71.5809 73.3401 72.0669 73.3036 72.5408 73.2671C73.0268 73.2306 73.5007 73.1941 73.9867 73.1698C74.4727 73.1455 74.8858 72.9994 75.2868 72.7074C76.2952 71.9773 77.4738 71.3203 78.9926 70.6389L81.0825 69.702C82.6256 69.0084 84.1565 68.3148 85.7118 67.6456C87.7409 66.7695 89.8429 66.1247 91.9814 65.7353C93.8039 65.4068 95.019 64.409 95.8088 62.6082C97.206 59.4081 98.2753 55.9767 99.223 52.9226C99.0043 53.0321 98.8099 53.1295 98.6155 53.239C93.9011 55.8186 89.5392 57.6681 85.3108 58.9213C80.9853 60.199 76.3924 60.564 71.6295 60.0286C70.3901 59.8826 69.1387 59.6636 67.9358 59.4567C67.0245 59.2985 66.1254 59.1404 65.2141 59.0065C61.3746 58.4711 58.0089 58.386 54.947 58.751C51.9337 59.116 49.2485 59.8583 46.7455 61.0507C46.3324 61.2454 45.9314 61.4766 45.5426 61.7078C45.3118 61.8416 45.093 61.9633 44.8622 62.0971L44.7042 62.1945C44.4977 62.3161 44.2668 62.45 43.9995 62.4987C43.6836 62.5473 43.2705 62.4013 43.0882 62.1701C42.8938 61.9389 42.8331 61.5009 42.9546 61.2089C43.0639 60.9169 43.3069 60.6248 43.5985 60.4301C44.0481 60.1138 44.5463 59.8096 45.1052 59.5054C49.0905 57.376 53.5862 56.2931 58.4342 56.2809C59.4426 56.2688 60.4754 56.3296 61.4718 56.3904C61.9456 56.4148 62.4316 56.4391 62.9055 56.4635C63.0513 56.4635 63.2093 56.4635 63.3672 56.4635H63.4401C63.4401 56.4635 63.4523 56.4391 63.4644 56.427C63.5252 56.3174 63.5738 56.2201 63.6102 56.1349C64.4243 53.4945 65.7366 50.842 67.7292 47.8C69.5032 45.0744 70.9248 42.5314 72.0548 40.0248C72.8445 38.2848 73.7315 36.2406 74.3512 34.1478C74.7764 32.712 74.9465 31.2519 74.8615 29.6822C74.825 28.9643 74.6549 28.2464 74.3633 27.5529C73.9259 26.5186 72.9782 26.0319 71.8968 26.2996C71.4108 26.4213 70.9005 26.6281 70.3659 26.908C68.7985 27.7354 67.304 28.7818 65.931 29.9986C63.7682 31.9089 61.9578 33.8558 60.3661 35.9608C57.4257 39.8545 54.3759 43.4074 50.6944 47.654C47.9727 50.7811 44.6799 53.6527 40.3179 56.6825C37.2682 58.7997 34.0848 60.7952 30.8649 62.5838C26.4908 65.0296 23.0887 68.4 20.7801 72.6101C19.6258 74.7273 18.7875 77.0148 18.3014 79.424C17.536 83.2569 17.3902 87.3939 17.8519 92.8572C18.0827 95.5828 18.0341 98.0163 17.7061 100.267C17.5481 101.399 17.378 102.421 17.0986 103.419C16.7219 104.769 16.4424 106.169 16.163 107.519C16.0536 108.079 15.9443 108.627 15.8228 109.174C15.6891 109.783 15.519 110.367 15.3246 111.012C14.8629 112.508 14.4012 114.005 13.9395 115.489C13.0646 118.324 12.1898 121.159 11.3271 123.995C10.1971 127.754 9.23725 131.064 8.39888 134.118C7.59695 137.038 6.83148 140.032 6.07815 142.915L5.49494 145.154C5.15472 146.493 4.81451 147.831 4.4743 149.17C4.07334 150.776 3.66023 152.382 3.24711 153.976C3.00411 154.913 2.70035 155.825 2.39659 156.762C2.28723 157.079 2.11713 157.395 1.88627 157.724C1.61896 158.089 1.03574 158.21 0.574029 157.979C0.185216 157.784 -0.0334907 157.407 0.00296048 156.969C0.0272613 156.701 0.100164 156.446 0.173066 156.203L0.209517 156.069C0.282419 155.85 0.343171 155.631 0.416074 155.412C0.525427 155.083 0.634781 154.755 0.719833 154.426L0.853488 153.939C1.61896 151.08 2.38444 148.208 3.13776 145.349C3.59947 143.56 4.06119 141.759 4.5229 139.971C5.15472 137.513 5.77439 135.067 6.41836 132.609C6.78288 131.21 7.20814 129.811 7.62125 128.46L8.04652 127.061C8.20447 126.525 8.37458 125.99 8.54468 125.455C8.82414 124.579 9.1036 123.678 9.34661 122.778C9.61392 121.78 9.85692 120.782 10.0999 119.784C10.2336 119.237 10.3551 118.702 10.5009 118.166L10.5616 117.923C10.6588 117.533 10.7561 117.12 10.914 116.743C11.7159 114.796 12.3964 112.618 13.0768 109.904L13.174 109.503C13.2469 109.211 13.3076 108.919 13.3927 108.639C14.2432 105.706 14.8993 102.969 15.3732 100.243C15.7499 98.1137 15.8106 95.7896 15.5555 93.1249C15.1909 89.2556 15.1788 85.6904 15.5312 82.2469C15.8349 79.3388 16.4667 76.7106 17.4874 74.1919C19.8324 68.4 23.7934 63.971 29.6013 60.637C33.1128 58.6171 35.9924 56.8285 38.6533 55.0033C43.1976 51.8762 46.9035 48.5787 49.9897 44.9162L51.3262 43.3344C53.8778 40.3168 56.5144 37.1897 58.9445 33.9896C60.4754 31.9698 62.3466 30.0107 64.6673 28.0031C66.2226 26.6524 67.7657 25.606 69.3817 24.8029C70.1957 24.4014 70.9248 24.1337 71.6173 23.9877C73.5736 23.5862 75.469 24.5596 76.3438 26.4091C76.9271 27.638 77.1822 29.0252 77.1336 30.6313C77.085 32.2618 76.842 33.7341 76.4046 35.1212C75.5298 37.8468 74.3026 40.4507 73.2212 42.7504C72.2856 44.7337 71.107 46.7414 69.406 49.2601C68.3124 50.8784 67.3161 52.6914 66.1618 55.1493C65.9431 55.5995 65.7366 56.0863 65.6515 56.646C65.6515 56.646 65.6515 56.646 65.6636 56.646C65.773 56.6946 65.8581 56.7433 65.931 56.7555C66.6114 56.865 67.2796 56.9745 67.9601 57.0962C69.5761 57.376 71.2528 57.6559 72.8931 57.8141C76.7813 58.1791 80.5479 57.8627 84.0715 56.865C88.2998 55.6847 92.6618 53.8474 97.4248 51.2557L97.8865 51.0123C98.494 50.6838 99.1015 50.3431 99.7212 50.0267C100.037 49.8564 100.207 49.6617 100.292 49.3696C100.353 49.1263 100.426 48.8829 100.511 48.6396C100.584 48.4206 100.645 48.2015 100.705 47.9825C100.9 47.2768 101.082 46.5711 101.264 45.8653C101.447 45.1718 101.629 44.4904 101.811 43.7968C102.2 42.3489 102.188 41.0104 101.787 39.6963C101.082 37.4452 100.632 35.1942 100.45 32.9797C100.207 30.1446 100.365 27.1513 100.924 23.5497C101.143 22.1504 101.459 20.6781 102.309 19.3518C102.698 18.7434 103.123 18.1107 103.634 17.5753C104.448 16.7357 105.505 16.3829 106.623 16.5654C107.728 16.7479 108.688 17.4536 109.126 18.4027C109.405 18.9989 109.697 19.6438 109.879 20.3252C110.644 23.1603 111.495 26.4699 112.017 29.7917C112.345 31.9211 112.819 34.0626 113.257 36.1433C113.439 36.9585 113.609 37.7738 113.779 38.6012C114.119 37.3844 114.447 36.1676 114.788 34.9509L115.347 32.9188C115.444 32.5538 115.541 32.1888 115.662 31.8237C116.124 30.3514 116.598 28.8791 117.06 27.4068C118.263 23.6105 119.502 19.6925 120.766 15.8475C122.175 11.5644 124.058 8.06011 126.525 5.12768C127.789 3.63104 129.04 2.45077 130.377 1.53819C131.021 1.10015 131.567 0.747284 132.163 0.491761C132.843 0.199735 133.487 0.0415543 134.07 0.00505101C135.079 -0.04362 135.966 0.260574 136.561 0.868962C137.157 1.48952 137.436 2.37776 137.351 3.38769C137.278 4.16642 137.12 4.99383 136.865 5.84558C136.306 7.70724 135.723 9.50807 135.067 11.5036C134.058 14.5699 133.256 17.7091 132.697 20.8363C132.649 21.1283 132.576 21.4081 132.503 21.7002C132.454 21.8827 132.406 22.0652 132.369 22.2477C132.394 22.2112 132.43 22.1747 132.454 22.126C132.503 22.053 132.552 21.9922 132.6 21.9314C135.225 18.9503 138.299 16.0057 142.017 12.9272C144.811 10.6153 147.448 8.76584 150.097 7.2692C151.543 6.45396 152.952 5.85774 154.398 5.44404C155.71 5.06684 156.877 4.99383 157.97 5.21285C159.039 5.43187 159.914 5.94292 160.595 6.70949C161.482 7.71941 161.603 8.82668 160.935 9.99478C160.206 11.2724 159.209 12.5013 157.812 13.8763L156.184 15.4703C155.176 16.4559 154.167 17.4414 153.171 18.427C149.975 21.5785 146.755 25.0098 143.621 28.6358C142.952 29.4024 142.284 30.1568 141.616 30.9233C141.045 31.5804 140.461 32.2374 139.89 32.8945C140.085 32.7972 140.279 32.6998 140.461 32.6146C144.058 30.8138 147.351 29.597 150.522 28.8791C152.345 28.4654 154.216 28.3681 156.075 28.5871C157.144 28.721 158.019 29.0495 158.76 29.5849C160.194 30.6556 160.449 32.2618 159.404 33.6732C159.003 34.2086 158.493 34.7197 157.909 35.1455C157.071 35.7539 156.196 36.2893 155.212 36.8734C153.134 38.1145 151.057 39.3556 148.979 40.5845C145.723 42.5192 142.466 44.466 139.222 46.4129C136.525 48.0312 133.839 49.9294 131.239 52.0466C129.951 53.093 128.991 54.3706 128.323 55.9281C127.618 57.5586 126.78 59.116 125.832 60.8438C123.949 64.263 121.677 68.3027 119.137 72.3302C116.878 75.9075 114.618 79.4848 112.345 83.0622C111.495 84.4128 110.462 85.6174 109.308 86.6273C107.145 88.5133 104.776 90.083 102.042 91.4336C97.2182 93.8063 92.1879 95.9357 87.3156 97.9798C85.7847 98.6247 84.2659 99.2696 82.7349 99.9145C74.6792 103.358 68.6891 106.376 63.3065 109.673C60.7913 111.218 58.4342 112.971 56.2836 114.881C54.6068 116.377 53.1366 118.264 51.6664 120.819C49.941 123.824 48.6288 127.17 47.6689 131.064C47.1465 133.181 46.5025 135.98 46.1744 138.815C45.7492 142.526 45.4211 145.58 45.1538 148.427C44.9472 150.532 44.765 152.65 44.5827 154.767C44.4612 156.203 44.3276 157.638 44.2061 159.074C44.1575 159.549 44.0724 160.084 43.9266 160.68C43.8173 161.118 43.4163 161.435 42.9667 161.435L43.0153 161.496ZM134.362 1.74504C134.362 1.74504 134.447 1.74504 134.496 1.74504C135.2 1.76938 135.686 2.23175 135.747 2.90098C135.771 3.1565 135.747 3.41202 135.735 3.63104C135.735 3.71622 135.723 3.78922 135.723 3.8744V4.00824L135.613 4.09342C135.565 4.12992 135.528 4.16642 135.504 4.19076C135.419 4.27593 135.31 4.37328 135.164 4.38544C134.313 4.48279 133.73 4.95733 133.256 5.93075C132.26 8.0236 131.737 9.82443 131.604 11.6131C131.519 12.7447 131.762 13.5721 132.369 14.217L132.479 14.3387L132.126 15.8961C131.446 18.9016 130.765 21.907 130.097 24.9125C130.024 25.2288 129.963 25.5573 129.903 25.8737L129.842 26.1779C129.477 28.1369 129.283 30.2784 129.271 32.7363C129.247 37.6034 129.004 42.7139 128.542 48.3354C128.42 49.7469 128.226 51.0975 127.959 52.3629C127.655 53.7865 127.084 55.2102 126.112 56.9867L125.48 58.1304C123.682 61.4157 121.835 64.8105 119.867 68.0593C117.692 71.661 115.395 75.2748 113.172 78.7791C112.382 80.0202 111.604 81.2613 110.814 82.4903C110.183 83.488 109.381 84.4371 108.421 85.2889C106.452 87.0532 104.18 88.5742 101.677 89.8396C96.8901 92.2367 91.8842 94.3417 87.0483 96.3737C85.7968 96.8969 84.5575 97.4201 83.306 97.9555C78.0206 100.194 71.1192 103.273 64.5337 107.093C61.8241 108.663 59.1632 110.5 56.5995 112.532C54.7891 113.968 53.1974 115.672 51.8487 117.619C50.0504 120.21 48.6531 122.936 47.7054 125.747C46.8063 128.399 45.6884 131.916 45.0566 135.59C44.4977 138.864 44.0603 142.441 43.6836 146.882C43.4649 149.498 43.2219 152.114 42.9789 154.73C42.8331 156.336 42.6873 157.93 42.5415 159.537C42.5172 159.841 42.5172 160.157 42.5415 160.486C42.5536 160.668 42.7359 160.826 42.9667 160.851C43.1368 160.875 43.3434 160.778 43.392 160.571C43.5256 159.999 43.6107 159.5 43.6593 159.05C43.793 157.614 43.9145 156.178 44.036 154.742C44.2182 152.625 44.4005 150.52 44.607 148.403C44.8865 145.556 45.2145 142.49 45.6398 138.778C45.9679 135.895 46.624 133.084 47.1465 130.942C48.1306 126.988 49.455 123.593 51.2047 120.539C52.7113 117.923 54.218 115.988 55.9433 114.455C58.1183 112.52 60.5119 110.744 63.0513 109.186C68.4582 105.865 74.4727 102.847 82.5527 99.3791C84.0715 98.7221 85.6024 98.0772 87.1334 97.4323C91.9935 95.3881 97.0116 93.2709 101.823 90.8982C104.508 89.5841 106.829 88.0388 108.955 86.1771C110.073 85.1915 111.057 84.0356 111.884 82.7336C114.144 79.1563 116.416 75.579 118.664 72.0017C121.191 67.9863 123.463 63.9588 125.334 60.5397C126.27 58.8362 127.108 57.2909 127.801 55.6847C128.518 54.0299 129.526 52.6914 130.887 51.572C133.511 49.4427 136.221 47.5202 138.943 45.8897C142.187 43.9307 145.443 41.996 148.699 40.0613C150.777 38.8202 152.855 37.5913 154.933 36.3501C155.892 35.7783 156.755 35.2429 157.581 34.6467C158.104 34.2573 158.578 33.7949 158.942 33.3082C159.793 32.1644 159.598 30.9477 158.42 30.0716C157.776 29.597 156.986 29.305 156.026 29.1833C154.24 28.9765 152.442 29.0617 150.68 29.4632C147.557 30.1689 144.313 31.3735 140.765 33.15C140.437 33.3204 140.097 33.4786 139.732 33.6611L138.833 34.0991V33.5881C138.87 33.1135 139.113 32.858 139.283 32.6755L139.368 32.5781C139.963 31.8846 140.571 31.2032 141.178 30.5218C141.847 29.7674 142.515 29.0008 143.183 28.2343C146.33 24.5961 149.562 21.1526 152.77 18.0012C153.778 17.0156 154.775 16.03 155.783 15.0444L157.411 13.4504C158.772 12.1241 159.732 10.9317 160.425 9.70275C160.959 8.76584 160.874 7.9506 160.157 7.12319C159.562 6.45396 158.796 6.00376 157.861 5.82124C156.864 5.61439 155.82 5.68739 154.58 6.04026C153.171 6.4418 151.81 7.02585 150.4 7.81675C147.788 9.28905 145.176 11.1142 142.405 13.4018C138.712 16.4559 135.662 19.3883 133.062 22.3451C133.025 22.3816 132.989 22.4302 132.965 22.4789C132.807 22.6979 132.552 23.0751 131.944 23.0021L131.64 22.9656L131.677 22.6614C131.725 22.272 131.822 21.907 131.92 21.5542C131.993 21.2865 132.066 21.0066 132.114 20.7389C132.685 17.5753 133.487 14.4117 134.508 11.3211C135.164 9.33772 135.747 7.53689 136.306 5.68739C136.549 4.87215 136.707 4.08125 136.768 3.35118C136.841 2.52378 136.622 1.80588 136.148 1.307C135.674 0.820291 134.957 0.564768 134.131 0.625607C133.621 0.649942 133.05 0.808123 132.43 1.06365C131.871 1.29483 131.361 1.62336 130.741 2.04923C129.453 2.93748 128.238 4.08125 127.011 5.52921C124.593 8.4008 122.746 11.8443 121.361 16.0543C120.097 19.8993 118.858 23.8174 117.655 27.6015C117.193 29.0738 116.72 30.5461 116.258 32.0184C116.148 32.3713 116.051 32.7242 115.954 33.0892L115.395 35.1212C115.043 36.3988 114.69 37.6886 114.338 38.9662C114.302 39.1001 114.241 39.2217 114.156 39.3434C114.119 39.4043 114.083 39.4773 114.034 39.5624L113.731 40.1465L113.475 39.5381C113.439 39.4529 113.403 39.3799 113.378 39.3069C113.317 39.1852 113.281 39.0879 113.245 38.9662C113.062 38.0658 112.868 37.1654 112.673 36.2771C112.224 34.1965 111.762 32.0306 111.422 29.8891C110.912 26.5916 110.061 23.3063 109.296 20.4834C109.126 19.8507 108.846 19.2301 108.579 18.6582C108.226 17.9038 107.425 17.3198 106.525 17.1616C105.602 17.0034 104.739 17.3076 104.071 17.989C103.597 18.4879 103.184 19.0841 102.82 19.6682C102.042 20.9093 101.738 22.3086 101.532 23.6348C100.973 27.1878 100.827 30.1324 101.058 32.9067C101.24 35.0725 101.677 37.2871 102.37 39.4894C102.82 40.9131 102.832 42.361 102.406 43.9307C102.224 44.6242 102.042 45.3056 101.86 45.9992C101.677 46.7049 101.483 47.4106 101.301 48.1164C101.24 48.3476 101.167 48.5666 101.094 48.7978C101.021 49.029 100.948 49.2601 100.888 49.5035C100.766 49.9659 100.475 50.2944 100.013 50.5378C99.4053 50.8541 98.7978 51.1948 98.1902 51.5233L97.7285 51.7789C92.9291 54.3949 88.5307 56.2444 84.2537 57.4369C80.6572 58.4468 76.8177 58.7753 72.8567 58.3981C71.1799 58.2399 69.5032 57.9479 67.875 57.6802C67.2067 57.5707 66.5263 57.449 65.8581 57.3395C65.7001 57.3152 65.5543 57.2422 65.4206 57.1814C65.3599 57.157 65.2991 57.1205 65.2262 57.0962L65.0197 57.011V56.792C65.0926 56.0498 65.3599 55.4414 65.6272 54.8816C66.7936 52.3873 67.8143 50.5499 68.92 48.9073C70.6089 46.4129 71.7631 44.4295 72.6866 42.4827C73.7558 40.1952 74.983 37.6156 75.8335 34.9265C76.2588 33.5881 76.4896 32.1766 76.5382 30.607C76.5868 29.0982 76.3438 27.8084 75.8092 26.6646C75.0437 25.0463 73.452 24.2311 71.751 24.5839C71.107 24.7178 70.4266 24.9611 69.6733 25.3383C68.1059 26.1171 66.6114 27.1392 65.0926 28.4533C62.8083 30.4244 60.9736 32.3591 59.4548 34.3425C57.0126 37.5548 54.3638 40.6819 51.8122 43.7116L50.4757 45.2935C47.353 48.9924 43.6107 52.3386 39.0179 55.49C36.3448 57.3274 33.4651 59.116 29.9294 61.148C24.243 64.409 20.367 68.7529 18.0827 74.3987C17.0864 76.8566 16.4667 79.4362 16.1751 82.2834C15.8228 85.6904 15.8349 89.2069 16.1994 93.0397C16.4546 95.7531 16.3938 98.138 16.0172 100.316C15.5312 103.066 14.875 105.828 14.0124 108.785C13.9273 109.065 13.8666 109.345 13.7937 109.624L13.6964 110.038C13.016 112.776 12.3113 114.978 11.5094 116.962C11.3636 117.302 11.2785 117.692 11.1813 118.057L11.1206 118.3C10.9869 118.835 10.8533 119.383 10.7318 119.918C10.4887 120.928 10.2457 121.926 9.97843 122.936C9.73542 123.848 9.44381 124.749 9.16435 125.637C8.99425 126.173 8.83629 126.696 8.66619 127.231L8.24092 128.643C7.82781 129.993 7.40255 131.393 7.03803 132.767C6.39406 135.213 5.76224 137.671 5.14257 140.117C4.68086 141.905 4.23129 143.706 3.75743 145.495C3.01626 148.367 2.23863 151.226 1.47316 154.098L1.3395 154.584C1.2423 154.925 1.13295 155.266 1.02359 155.606C0.950691 155.813 0.877788 156.032 0.817036 156.251L0.768435 156.385C0.695533 156.604 0.634781 156.811 0.62263 157.018C0.62263 157.152 0.646931 157.322 0.853488 157.432C1.03574 157.529 1.30305 157.492 1.40026 157.358C1.59466 157.079 1.74047 156.811 1.82552 156.555C2.12928 155.631 2.43304 154.73 2.6639 153.818C3.07701 152.224 3.49012 150.618 3.89108 149.011C4.23129 147.673 4.57151 146.335 4.91172 144.996L5.49494 142.757C6.23611 139.861 7.01373 136.88 7.81566 133.948C8.65404 130.894 9.61392 127.572 10.7439 123.812C11.5944 120.977 12.4693 118.142 13.3562 115.307C13.818 113.81 14.2797 112.313 14.7414 110.829C14.9358 110.196 15.1059 109.624 15.2274 109.04C15.3489 108.493 15.4583 107.945 15.5676 107.386C15.8471 106.023 16.1265 104.611 16.5153 103.236C16.7826 102.275 16.9406 101.265 17.0986 100.158C17.4145 97.9433 17.4631 95.5706 17.2322 92.8815C16.7705 87.3574 16.9041 83.1595 17.6818 79.278C18.1799 76.8079 19.0305 74.4596 20.2212 72.2937C22.5905 67.9863 26.0655 64.5307 30.5369 62.0241C33.7324 60.2355 36.9037 58.2643 39.9413 56.1471C44.2547 53.1417 47.5231 50.3066 50.2084 47.216C53.8899 42.9816 56.9275 39.4408 59.8558 35.5592C61.4718 33.4177 63.3065 31.4465 65.4935 29.4997C66.903 28.2464 68.4339 27.1878 70.0499 26.3361C70.6332 26.0319 71.1921 25.8129 71.7267 25.679C73.0997 25.3383 74.339 25.9711 74.8979 27.2852C75.226 28.0396 75.4083 28.8305 75.4447 29.6335C75.5176 31.2519 75.3354 32.8215 74.9101 34.306C74.2904 36.4353 73.3791 38.5038 72.5894 40.2682C71.4472 42.7991 70.0135 45.3665 68.2152 48.1164C66.259 51.1096 64.9711 53.7135 64.1692 56.2931C64.1206 56.4391 64.0476 56.573 63.9747 56.7068C63.9383 56.7676 63.914 56.8163 63.8775 56.8893L63.7925 57.0597H63.3551C63.185 57.0597 63.027 57.0597 62.8691 57.0597C62.383 57.0353 61.9092 57.011 61.4232 56.9867C60.439 56.938 59.4305 56.8772 58.4342 56.8772H58.4099C53.6591 56.8772 49.2606 57.9358 45.3604 60.0286C44.8136 60.3206 44.3397 60.6005 43.9145 60.9047C43.7201 61.0385 43.5621 61.2332 43.4892 61.4157C43.4527 61.5009 43.4892 61.7078 43.5256 61.7686C43.5742 61.8294 43.7808 61.9024 43.878 61.8903C44.0238 61.8659 44.1939 61.7686 44.364 61.6713L44.5463 61.5739C44.765 61.4522 44.9958 61.3184 45.2146 61.1967C45.6155 60.9655 46.0286 60.7222 46.4539 60.5275C49.0176 59.3107 51.7636 58.5441 54.8498 58.1669C57.9725 57.7897 61.3867 57.8749 65.2748 58.4225C66.1861 58.5563 67.0974 58.7145 68.0208 58.8727C69.2237 59.0795 70.4509 59.2985 71.6781 59.4446C76.356 59.9799 80.8759 59.6149 85.1164 58.3616C89.3083 57.1205 93.6217 55.271 98.3117 52.728C98.5426 52.6063 98.7734 52.4846 99.0286 52.3507L99.8305 51.937V52.4359C99.8305 52.5211 99.8305 52.5819 99.8305 52.6428C99.8305 52.7766 99.8427 52.8983 99.8062 53.02C98.8463 56.0984 97.765 59.5906 96.3434 62.8515C95.4807 64.8227 94.0834 65.9665 92.0664 66.3315C89.9766 66.7087 87.911 67.3414 85.9305 68.2053C84.3874 68.8746 82.8443 69.5681 81.3133 70.2617L79.2113 71.2108C77.729 71.8678 76.5868 72.5127 75.6148 73.2063C75.1167 73.5592 74.582 73.7538 73.9867 73.7903C73.5128 73.8147 73.0268 73.8512 72.5529 73.8877C72.0669 73.9242 71.593 73.9607 71.107 73.985C67.6928 74.1675 64.2421 74.5691 60.8399 75.1896C54.4974 76.3212 48.5924 78.9251 43.3069 82.9162C38.7991 86.311 35.0082 90.6305 32.0314 95.7531C31.4846 96.6901 30.9864 97.6756 30.5126 98.6369L30.1724 99.3183C30.0752 99.5008 30.0144 99.7442 29.978 100.036C29.978 100.109 29.978 100.194 30.0387 100.255C30.063 100.28 30.1116 100.328 30.1724 100.34C30.3303 100.365 30.5247 100.328 30.5976 100.255C30.7556 100.121 30.8892 99.8902 31.0107 99.659C31.1566 99.3791 31.3024 99.1114 31.436 98.8316C31.6061 98.5031 31.7641 98.1745 31.9463 97.8582C34.6802 92.9546 37.8271 88.9879 41.5573 85.7269C46.5511 81.3587 52.116 78.3776 58.0697 76.881C63.9261 75.4087 69.8069 75.0558 74.2783 74.9098C74.8979 74.8854 75.3232 74.7516 75.6999 74.4596C76.8542 73.547 78.1421 72.9021 79.3693 72.318L79.8188 72.099C80.7544 71.6488 81.69 71.1986 82.6377 70.7606C85.6753 69.3734 88.9924 67.9863 92.6375 67.2806C92.7712 67.2563 92.9048 67.2198 93.0385 67.1711L93.1721 67.1346C94.9218 66.6479 96.1611 65.6136 96.9509 63.9831C97.8014 62.231 98.579 60.3206 99.3202 58.1304C100.803 53.7865 102.03 49.4183 103.354 44.5756C103.889 42.6044 103.889 40.7914 103.354 39.0514C102.917 37.6643 102.637 36.265 102.419 35.0847C101.847 32.0306 101.872 28.6601 102.479 24.4866C102.613 23.5375 102.832 22.5762 103.099 21.6272C103.403 20.5686 103.962 19.6195 104.788 18.7921C105.152 18.427 105.59 18.2324 106.088 18.2324C106.574 18.2324 107.036 18.4514 107.4 18.8407C107.558 19.0111 107.655 19.2179 107.753 19.4248C107.789 19.51 107.825 19.583 107.874 19.6682L107.971 19.8507L107.716 20.167C107.619 20.2887 107.534 20.3982 107.449 20.4956C106.708 21.2621 106.477 22.1747 106.732 23.282C106.926 24.1094 107.096 24.9368 107.267 25.7642C107.364 26.2144 107.449 26.6646 107.546 27.1026C107.935 28.8913 108.725 29.8526 110.11 30.2298L110.28 30.2784L110.377 30.6435C110.414 30.7773 110.45 30.9112 110.474 31.045L110.766 32.4443C111.045 33.8193 111.337 35.1942 111.616 36.5692L111.944 38.1875C112.358 40.2438 112.783 42.3002 113.16 44.3687C113.463 45.9748 113.5 47.654 113.281 49.4913C113.002 51.8884 112.552 54.3463 111.932 56.7676L111.544 58.3008C110.717 61.5496 109.855 64.92 109.247 68.2783L109.138 68.8989C109.041 69.3978 108.955 69.8967 108.87 70.4077C108.761 71.1134 109.028 71.1621 109.186 71.1986C109.32 71.2229 109.551 71.2838 109.745 70.5294C109.891 69.9453 110.037 69.4099 110.122 68.8624C110.632 65.8935 111.386 62.9732 112.115 60.2598C112.698 58.0818 113.439 55.198 113.949 52.2656C114.277 50.3187 114.63 47.7513 114.362 45.1596C114.289 44.4417 114.326 43.7116 114.472 43.0546C114.909 41.0469 115.395 38.7594 116.015 36.5692C116.865 33.5151 117.825 30.4488 118.651 27.8449C119.32 25.7155 120.012 23.5983 120.717 21.469C121.264 19.7898 121.811 18.1107 122.357 16.4315C122.977 14.509 123.779 12.6108 124.739 10.7979C125.893 8.63199 127.29 6.67298 128.894 5.006C129.963 3.88657 131.118 2.97398 132.333 2.25609C133.013 1.86672 133.645 1.67203 134.289 1.67203L134.362 1.74504ZM129.818 50.8541L129.684 50.6351C129.684 50.6351 129.648 50.5864 129.635 50.5621C129.575 50.4769 129.49 50.3552 129.49 50.1971C129.635 47.9947 129.793 45.7923 129.939 43.6021V43.5048L131.555 41.6796C132.539 40.548 133.524 39.4408 134.508 38.3213C135.261 37.4574 136.245 36.8734 137.108 36.3623C139.83 34.744 142.758 33.3204 145.844 32.1401C147.569 31.483 149.343 30.9477 151.263 30.5096C152.721 30.1811 154.252 30.1081 155.807 30.3028C156.391 30.3758 156.986 30.5583 157.545 30.826C157.982 31.0328 158.25 31.3127 158.335 31.6656C158.432 32.0428 158.322 32.4565 157.994 32.931C157.909 33.0527 157.788 33.1379 157.691 33.1987C157.666 33.2109 157.642 33.2352 157.618 33.2474L157.521 33.3204H157.411C157.411 33.3204 157.35 33.3204 157.326 33.3204C157.217 33.3204 157.071 33.3204 156.937 33.223C156.391 32.785 155.771 32.712 154.908 33.004C153.244 33.5637 151.846 34.4155 150.741 35.5227C150.085 36.1798 149.404 37.0194 149.38 38.2483V38.4187L148.396 39.0392C147.752 39.4408 147.108 39.8545 146.452 40.256C144.143 41.6431 141.834 43.0302 139.526 44.4052C136.962 45.9383 134.35 47.6905 131.786 49.6373C131.665 49.7347 131.531 49.832 131.409 49.9415C131.008 50.2701 130.583 50.6108 130.061 50.8054L129.818 50.9028V50.8541ZM130.547 43.7481C130.401 45.841 130.255 47.9582 130.109 50.0754C130.437 49.905 130.717 49.6738 131.021 49.4183C131.154 49.3088 131.276 49.2115 131.409 49.102C133.985 47.143 136.61 45.3786 139.198 43.8333C141.519 42.4584 143.815 41.0712 146.124 39.6841C146.78 39.2826 147.424 38.881 148.055 38.4795L148.76 38.0293C148.833 36.6665 149.611 35.7296 150.291 35.0482C151.458 33.8801 152.94 32.9797 154.69 32.3956C155.71 32.0428 156.549 32.1401 157.253 32.6755H157.314C157.314 32.6755 157.326 32.6755 157.338 32.6633C157.387 32.6268 157.448 32.5903 157.472 32.566C157.691 32.2496 157.776 31.9941 157.727 31.7994C157.679 31.6412 157.521 31.483 157.253 31.3614C156.755 31.118 156.22 30.9598 155.71 30.899C154.228 30.7165 152.77 30.7773 151.372 31.0937C149.477 31.5195 147.727 32.0428 146.038 32.6998C142.989 33.8679 140.085 35.2794 137.4 36.8734C136.573 37.3601 135.638 37.9198 134.945 38.7107C133.961 39.8301 132.977 40.9496 131.993 42.069L130.522 43.7481H130.547ZM130.595 41.1442L130.401 40.7305C130.401 40.7305 130.34 40.621 130.316 40.5845C130.243 40.4629 130.17 40.329 130.17 40.1587C130.194 39.2217 130.219 38.2848 130.231 37.3357C130.279 34.9022 130.328 32.3835 130.486 29.9134L130.535 29.0982C130.656 26.9323 130.68 26.8715 131.701 25.6425C131.932 25.3627 132.223 25.022 132.576 24.5718C134.532 22.1017 136.877 19.8872 138.906 18.0012C141.628 15.4824 144.933 12.5865 148.748 10.153C150.814 8.83884 152.6 7.84109 154.617 7.22053C155.613 6.91634 156.451 6.80683 157.278 6.8555C158.079 6.90417 158.784 7.25704 159.367 7.87759C159.732 8.27913 159.683 8.59549 159.477 9.22821L159.428 9.36206L159.307 9.41073C159.161 9.4959 159.003 9.59325 158.833 9.53241C158.225 9.31339 157.679 9.4229 156.937 9.89744C155.212 11.0169 153.28 12.4527 152.004 14.6672C151.81 14.9957 151.567 15.4459 151.385 15.9083C151.154 16.5045 150.996 17.0399 151.372 17.6118L151.506 17.8186L151.336 17.989C146.063 23.2941 141.118 29.0252 136.318 34.5615C134.508 36.6422 132.709 38.735 130.875 40.8035L130.571 41.1564L130.595 41.1442ZM156.889 7.45172C156.245 7.45172 155.577 7.56123 154.811 7.80458C152.855 8.4008 151.117 9.37422 149.1 10.664C145.334 13.0732 142.053 15.9448 139.344 18.4514C137.327 20.313 135.006 22.5154 133.074 24.949C132.709 25.4113 132.418 25.752 132.187 26.0319C131.579 26.7538 131.235 27.784 131.154 29.1225L131.106 29.9499C130.96 32.4078 130.899 34.9265 130.85 37.3479C130.838 38.2361 130.814 39.1244 130.79 40.0126C132.503 38.0658 134.192 36.1068 135.893 34.16C140.644 28.6723 145.552 23.0021 150.765 17.7335C150.4 17.0156 150.595 16.3342 150.85 15.6893C151.044 15.1782 151.3 14.7159 151.506 14.363C152.843 12.0511 154.847 10.5545 156.634 9.39856C157.253 8.99702 158.007 8.63199 158.966 8.93619C159.112 8.48598 159.076 8.44948 158.954 8.31563C158.468 7.80458 157.922 7.52473 157.265 7.47606C157.144 7.47606 157.022 7.47606 156.901 7.47606L156.889 7.45172ZM151.944 36.9464L151.786 36.703C151.445 36.192 151.81 35.8756 151.931 35.7661C153.159 34.7075 154.434 34.1234 155.722 34.0504L156.986 33.9774L151.944 36.9464V36.9464ZM109.624 28.6358C109.624 28.6358 109.551 28.6358 109.514 28.6358C109.284 28.5871 109.186 28.3681 109.126 28.2586C108.968 27.9422 108.798 27.6015 108.712 27.2365C108.324 25.6304 107.996 24.2067 107.716 22.9048L107.692 22.8196C107.619 22.5276 107.51 22.0287 107.996 21.688L108.287 21.4933L108.445 21.8097C108.968 22.8439 109.867 26.3969 110.073 28.2464L110.098 28.4168L109.964 28.5263C109.83 28.6236 109.721 28.648 109.624 28.648V28.6358ZM108.652 24.3284C108.834 25.1071 109.016 25.9345 109.235 26.8228C109.077 26.0197 108.87 25.1315 108.652 24.3284ZM152.442 16.7844L152.831 15.6528C153.171 14.6794 153.778 13.7668 154.75 12.8177C155.722 11.8564 156.512 11.3089 157.46 10.9317L157.776 10.7979L157.861 11.1264C157.958 11.5036 157.715 11.7348 157.593 11.8443L157.533 11.893C156.22 13.2192 154.811 14.6185 153.317 15.9813L152.43 16.7966L152.442 16.7844ZM156.306 12.258C155.953 12.5257 155.589 12.842 155.176 13.2436C154.835 13.5843 154.544 13.9006 154.289 14.2292C154.981 13.5721 155.649 12.915 156.293 12.2702L156.306 12.258ZM133.013 12.5378L132.952 10.8587C132.892 9.28905 133.366 7.75591 134.459 6.04026L135.383 4.58013L134.969 6.4783C134.933 6.64865 134.909 6.819 134.848 6.98934C134.496 8.06011 134.143 9.14304 133.791 10.2138L133.025 12.55L133.013 12.5378Z" fill="#E0C6AD"/>
</svg>
