<svg width="110" height="93" viewBox="0 0 110 93" fill="none" xmlns="http://www.w3.org/2000/svg">
<path d="M50.2517 92.996C50.1105 92.6786 54.3487 90.9266 61.4005 86.7759C64.9088 84.6712 69.1234 81.9668 73.6324 78.3335C78.1649 74.7355 83.027 70.2439 87.7361 64.7175C90.1142 61.9778 92.4099 58.9442 94.6232 55.6637C96.8365 52.3949 98.9085 48.8321 100.721 44.999C102.534 41.1775 104.112 37.0739 105.172 32.7351C106.255 28.4199 106.773 23.8106 106.196 19.2955C105.866 17.0614 105.254 14.8626 104.206 12.9108L103.335 11.4998L102.287 10.2299C101.51 9.45383 100.71 8.72482 99.6619 8.08988C95.7651 5.38549 91.0207 3.82164 86.1115 3.85692C81.2023 3.91571 76.2695 5.62065 71.9607 8.43087C67.6283 11.2411 63.9081 15.1448 60.8472 19.6012C60.1291 20.7417 59.3756 21.8705 58.6692 23.0228C58.0453 24.2222 57.4213 25.4097 56.7974 26.6091L56.5619 27.0559L56.4442 27.2793C56.4089 27.3499 56.3736 27.4086 56.3029 27.585L55.5848 29.29L54.1603 32.6881L52.7358 36.0745L52.5592 36.4978L52.5121 36.6036C52.5121 36.6036 52.4886 36.6859 52.465 36.6036L52.3591 36.3684L51.947 35.4395L51.1229 33.5817C50.5696 32.3236 50.0281 31.0772 49.4747 29.8308C49.3452 29.4899 49.1569 29.1959 49.0038 28.8902L48.7213 28.3611L48.2621 27.5145C47.9796 26.9383 47.6264 26.4092 47.2732 25.8801L46.2255 24.281C44.6597 22.2938 43.0351 20.342 41.069 18.8251C37.29 15.5916 32.628 13.7338 27.9542 13.2282C23.2569 12.8284 18.6066 13.969 14.5686 16.109C12.5437 17.0967 10.8013 18.4842 9.29439 20.0598C8.54094 20.8476 7.88166 21.7059 7.29303 22.6348C6.68084 23.5402 6.03334 24.4221 5.60953 25.4097C3.61993 29.2077 2.94889 33.4171 3.45511 37.4267C3.94957 41.448 5.4918 45.2106 7.39898 48.5852C9.31794 51.9716 11.6018 54.9935 13.9328 57.7449C18.6537 63.236 23.6218 67.6335 28.1072 71.3139C32.6044 74.9942 36.6896 77.922 40.0566 80.2736C46.8023 84.9534 50.7344 87.2698 50.5931 87.5167C50.4754 87.7401 46.2843 85.8706 39.2207 81.5435C35.7006 79.3683 31.4507 76.5933 26.7534 73.0306C22.0796 69.4443 16.876 65.129 11.8608 59.5556C9.3768 56.7572 6.9163 53.653 4.78543 50.0785C2.67811 46.5158 0.888658 42.4239 0.241157 37.8382C-0.429889 33.276 0.288248 28.2552 2.53684 23.8459C3.01952 22.6936 3.72589 21.6942 4.42048 20.6477C5.06798 19.6012 5.84498 18.5782 6.72793 17.6376C8.4703 15.768 10.5423 14.0866 12.8733 12.9108C17.394 10.4415 22.7977 9.0423 28.2956 9.47735C33.7581 10.0182 39.1854 12.1935 43.506 15.8386C45.7546 17.567 47.6029 19.7423 49.357 21.9763L50.5461 23.7518C50.9463 24.3398 51.3466 24.9394 51.6645 25.5861L52.1707 26.5268L52.3708 26.8913C52.3708 26.8913 52.3591 26.8678 52.3708 26.8678C52.3708 26.8678 52.3708 26.8913 52.4062 26.7972L52.5827 26.3739L52.7593 25.9506L52.8417 25.739L53.3009 24.8571C53.9602 23.5872 54.6312 22.3173 55.2905 21.0357C56.0439 19.8011 56.8445 18.59 57.6215 17.3671C60.9178 12.5698 64.9912 8.27801 69.8533 5.13856C74.6919 1.99912 80.3546 0.0354926 86.0762 0.000217897C91.7977 -0.0232986 97.3662 1.85802 101.805 4.99747C102.935 5.70296 104.03 6.66713 105.019 7.6901L106.361 9.33625L107.444 11.1235C108.739 13.581 109.422 16.2031 109.775 18.7781C110.375 23.9517 109.716 28.9255 108.503 33.5229C107.302 38.1322 105.584 42.4004 103.629 46.3629C101.675 50.3254 99.4618 53.9822 97.1072 57.3216C94.7645 60.6609 92.3275 63.7416 89.8081 66.5048C84.8283 72.0664 79.7071 76.5228 74.9627 80.0385C70.2183 83.5777 65.8035 86.1528 62.1422 88.0811C61.2239 88.5514 60.341 88.9983 59.5287 89.4215C58.6928 89.7978 57.904 90.1506 57.1741 90.4798C55.7261 91.1383 54.4782 91.6674 53.4422 92.0201C51.3937 92.7726 50.2988 93.1019 50.2517 92.9725V92.996Z" fill="#E0C6AD"/>
</svg>
