<svg width="96" height="129" viewBox="0 0 96 129" fill="none" xmlns="http://www.w3.org/2000/svg">
<g clip-path="url(#clip0_111_76832)">
<path d="M58.1368 82.9478C58.1368 82.7671 54.8473 82.6177 50.84 82.599C52.4254 80.9983 53.6364 79.6655 53.5615 79.5907C53.4866 79.516 52.157 80.7243 50.5466 82.3062C50.5279 78.3077 50.3843 75.0254 50.1971 75.0254C50.0098 75.0254 49.8663 78.3077 49.8475 82.3C48.2184 80.6931 46.9076 79.5097 46.8327 79.5845C46.7578 79.6592 47.9438 80.9672 49.5542 82.5927C45.4782 82.6052 42.2637 82.7547 42.2637 82.9415C42.2637 83.1284 45.4845 83.2779 49.5542 83.2903C47.9438 84.9159 46.7578 86.2238 46.8327 86.2986C46.9076 86.3733 48.2184 85.1899 49.8475 83.583C49.86 87.6501 50.0098 90.8577 50.1971 90.8577C50.3843 90.8577 50.5342 87.6439 50.5466 83.583C52.1508 85.165 53.4866 86.3733 53.5615 86.2986C53.6364 86.2238 52.4254 84.8972 50.84 83.2903C54.8473 83.2716 58.1368 83.1284 58.1368 82.9415V82.9478Z" fill="#E0C6AD"/>
<path d="M28.8757 28.0585C28.8757 27.9277 26.4726 27.8156 23.5452 27.8032C24.6999 26.6323 25.5863 25.6606 25.5363 25.6046C25.4864 25.5485 24.5064 26.4329 23.3329 27.5914C23.3205 24.6703 23.2143 22.2725 23.077 22.2725C22.9397 22.2725 22.8336 24.6703 22.8211 27.5852C21.6289 26.4143 20.6739 25.5485 20.6177 25.6046C20.5615 25.6606 21.4292 26.6136 22.6026 27.8032C19.6253 27.8094 17.2783 27.9215 17.2783 28.0585C17.2783 28.1955 19.6315 28.3014 22.6026 28.3139C21.4292 29.5035 20.5615 30.4564 20.6177 30.5125C20.6739 30.5685 21.6289 29.7028 22.8211 28.5319C22.8273 31.5028 22.9397 33.8446 23.077 33.8446C23.2143 33.8446 23.3205 31.4965 23.3329 28.5319C24.5064 29.6841 25.4801 30.5685 25.5363 30.5187C25.5925 30.4689 24.7061 29.491 23.5452 28.3201C26.4726 28.3077 28.8757 28.2018 28.8757 28.0648V28.0585Z" fill="#E0C6AD"/>
<path d="M74.2723 65.3525C71.0889 65.3525 71.0889 70.2853 74.2723 70.2853C77.4556 70.2853 77.4556 65.3525 74.2723 65.3525Z" fill="#E0C6AD"/>
<path d="M67.3874 63.0234C65.8831 63.0234 65.8769 65.359 67.3874 65.359C68.8979 65.359 68.8979 63.0234 67.3874 63.0234Z" fill="#E0C6AD"/>
<path d="M47.5197 40.4463C45.5161 40.4463 45.5098 43.5542 47.5197 43.5542C49.5296 43.5542 49.5296 40.4463 47.5197 40.4463Z" fill="#E0C6AD"/>
<path d="M78.8103 35.2148L79.7029 41.0632L83.3481 41.6051L79.7716 42.5206L79.0537 48.7863L78.2173 42.6078L74.2725 41.6051L78.1487 41.0258L78.8103 35.2148Z" fill="#E0C6AD"/>
<path d="M34.9798 58.3029C34.9798 58.0849 31.0287 57.9043 26.21 57.8856C28.1138 55.9611 29.5744 54.3604 29.487 54.267C29.3996 54.1798 27.7954 55.631 25.8605 57.5369C25.8417 52.7286 25.6607 48.7861 25.4423 48.7861C25.2238 48.7861 25.0428 52.7286 25.0241 57.5369C23.0641 55.6061 21.4912 54.1798 21.3975 54.2732C21.3101 54.3604 22.7333 55.9362 24.6683 57.8919C19.7684 57.9043 15.8984 58.0849 15.8984 58.3092C15.8984 58.5334 19.7684 58.714 24.6683 58.7265C22.7333 60.6821 21.3039 62.2517 21.3975 62.3451C21.4912 62.4385 23.0641 61.0122 25.0241 59.0815C25.0365 63.9707 25.2176 67.8322 25.4423 67.8322C25.667 67.8322 25.848 63.9707 25.8605 59.0815C27.7892 60.9811 29.3934 62.4385 29.487 62.3451C29.5806 62.2517 28.12 60.6572 26.21 58.7265C31.0287 58.7078 34.9798 58.5272 34.9798 58.3092V58.3029Z" fill="#E0C6AD"/>
<path d="M48.4438 20.0667C48.4438 19.9733 46.7335 19.8923 44.6549 19.8861C45.4789 19.0515 46.1093 18.3602 46.0718 18.3228C46.0344 18.2854 45.3415 18.9145 44.5051 19.7366C44.4989 17.6626 44.4177 15.9561 44.3241 15.9561C44.2305 15.9561 44.1556 17.6626 44.1431 19.7366C43.2942 18.902 42.6138 18.2854 42.5764 18.329C42.5389 18.3664 43.1569 19.0453 43.9871 19.8923C41.8711 19.8986 40.1982 19.9795 40.1982 20.0729C40.1982 20.1664 41.8711 20.2473 43.9871 20.2536C43.1506 21.1006 42.5327 21.7795 42.5764 21.8169C42.6138 21.8542 43.2942 21.2376 44.1431 20.4093C44.1493 22.5207 44.2305 24.1898 44.3241 24.1898C44.4177 24.1898 44.4989 22.5207 44.5051 20.4093C45.3415 21.2314 46.0344 21.8605 46.0718 21.8231C46.1093 21.7857 45.4789 21.0944 44.6549 20.2598C46.7335 20.2536 48.4438 20.1726 48.4438 20.0792V20.0667Z" fill="#E0C6AD"/>
<path d="M70.5895 43.3921C70.0465 39.543 68.4673 36.1798 65.8707 33.2898C65.7708 33.1777 65.6772 33.0594 65.5648 32.9722C65.4962 32.9224 65.3901 32.9224 65.3027 32.8975C65.2902 32.9971 65.2715 33.103 65.2777 33.2026C65.2777 33.2587 65.3401 33.3148 65.3713 33.3708C67.2377 36.7652 67.968 40.3963 67.5248 44.2454C67.144 47.5837 65.9144 50.592 63.7797 53.2016C58.4678 59.7102 49.3048 60.688 42.7633 55.4438C37.7698 51.439 35.6039 44.9305 36.5651 38.9389C36.8522 37.1265 37.4015 35.4012 38.2317 33.757C38.3128 33.6013 38.4252 33.4393 38.213 33.2026C38.0569 33.3584 37.9009 33.4767 37.7823 33.6262C33.8249 38.3597 32.3456 43.772 33.6127 49.801C35.7786 60.1275 45.9841 66.5426 56.2832 64.1572C65.6772 61.9835 71.9253 52.9027 70.5895 43.3796V43.3921Z" fill="#E0C6AD"/>
<path d="M65.6403 24.0409C65.6029 24.0285 65.5654 24.016 65.528 24.0036C65.1847 23.8915 65.1847 24.5267 65.528 24.4146C65.5654 24.4022 65.6029 24.3897 65.6403 24.3773C65.8089 24.3212 65.8089 24.097 65.6403 24.0409Z" fill="#E0C6AD"/>
<path d="M34.0869 26.6816C33.5626 26.6816 33.057 27.1425 33.0819 27.6844C33.1069 28.2263 33.5251 28.6871 34.0869 28.6871C34.6112 28.6871 35.1168 28.2263 35.0918 27.6844C35.0669 27.1425 34.6487 26.6816 34.0869 26.6816Z" fill="#E0C6AD"/>
<path d="M25.9725 35.5752C25.3733 35.5752 24.7991 36.1046 24.824 36.7212C24.849 37.344 25.3296 37.8672 25.9725 37.8672C26.5718 37.8672 27.146 37.3378 27.121 36.7212C27.0961 36.0984 26.6154 35.5752 25.9725 35.5752Z" fill="#E0C6AD"/>
<path d="M28.8568 36.2607C28.5072 36.2607 28.3449 36.622 28.4822 36.9147C28.4885 36.9334 28.4947 36.9459 28.5072 36.9645C28.632 37.2324 29.0815 37.2324 29.2125 36.9645C29.2188 36.9459 29.225 36.9334 29.2375 36.9147C29.3748 36.6282 29.2125 36.2607 28.863 36.2607H28.8568Z" fill="#E0C6AD"/>
<path d="M57.7437 12.5684C57.0508 12.5684 56.3829 13.1787 56.4141 13.895C56.4453 14.6112 56.9946 15.2216 57.7437 15.2216C58.4365 15.2216 59.1044 14.6112 59.0732 13.895C59.042 13.1787 58.4927 12.5684 57.7437 12.5684Z" fill="#E0C6AD"/>
<path d="M57.4193 29.8828C57.3194 29.8454 57.2258 29.8454 57.1259 29.833C56.8513 29.8081 56.8513 30.2876 57.1259 30.2627C57.232 30.2565 57.3194 30.2503 57.4193 30.2129C57.5816 30.1568 57.5816 29.9388 57.4193 29.8828Z" fill="#E0C6AD"/>
<path d="M71.8131 28.0576C71.0141 28.0576 71.0141 29.297 71.8131 29.297C72.612 29.297 72.612 28.0576 71.8131 28.0576Z" fill="#E0C6AD"/>
<path d="M85.0769 53.7125C85.0769 53.7125 85.0457 53.7312 85.0332 53.7437C84.821 53.8869 84.821 54.1672 85.0332 54.3104C85.0457 54.3229 85.0644 54.3291 85.0769 54.3416C85.3078 54.5035 85.6262 54.2855 85.6262 54.0302C85.6262 53.7748 85.3141 53.5568 85.0769 53.7188V53.7125Z" fill="#E0C6AD"/>
<path d="M84.796 59.2871C84.796 59.2871 84.7523 59.2622 84.7336 59.2497C84.5588 59.1439 84.3029 59.1376 84.1281 59.2497C84.1094 59.2622 84.0907 59.2746 84.0657 59.2871C83.7037 59.5238 83.7161 60.0034 84.0657 60.24L84.1281 60.2836C84.3029 60.402 84.5588 60.3833 84.7336 60.2836C84.7523 60.2712 84.7773 60.2587 84.796 60.2463C85.1643 60.0345 85.1518 59.5051 84.796 59.2871Z" fill="#E0C6AD"/>
<path d="M36.016 67.8447C35.4105 67.8447 35.4043 68.7852 36.016 68.7852C36.6277 68.7852 36.6277 67.8447 36.016 67.8447Z" fill="#E0C6AD"/>
<path d="M40.9971 68.2861C40.3292 68.2861 39.6925 68.8716 39.7238 69.5567C39.755 70.248 40.2855 70.8273 40.9971 70.8273C41.665 70.8273 42.3017 70.2418 42.2704 69.5567C42.2392 68.8654 41.7087 68.2861 40.9971 68.2861Z" fill="#E0C6AD"/>
<path d="M35.9344 70.9589C35.872 70.99 35.8034 71.0212 35.7409 71.0523C35.4601 71.1831 35.4601 71.6565 35.7409 71.7872C35.8034 71.8184 35.872 71.8495 35.9344 71.8807C36.2902 72.0488 36.7396 71.8495 36.7396 71.4198C36.7396 70.99 36.2902 70.7907 35.9344 70.9589Z" fill="#E0C6AD"/>
<path d="M18.8949 65.3838C18.4829 65.3838 18.4829 66.0253 18.8949 66.0253C19.3069 66.0253 19.3069 65.3838 18.8949 65.3838Z" fill="#E0C6AD"/>
<path d="M60.5586 46.9234C60.3776 46.8736 60.2652 46.8549 60.0967 46.9545C59.9157 47.0604 59.9157 47.3282 60.0967 47.4341C60.259 47.5338 60.3776 47.5089 60.5586 47.459C60.8208 47.3905 60.8208 46.9919 60.5586 46.9234Z" fill="#E0C6AD"/>
<path d="M57.9935 49.583C57.5503 49.583 57.5503 50.2681 57.9935 50.2681C58.4367 50.2681 58.4367 49.583 57.9935 49.583Z" fill="#E0C6AD"/>
<path d="M57.1261 45.6846C56.4645 45.6846 56.4645 46.7122 57.1261 46.7122C57.7878 46.7122 57.7878 45.6846 57.1261 45.6846Z" fill="#E0C6AD"/>
<path d="M22.9518 47.123C22.7021 46.8738 22.3089 47.0108 22.2027 47.3223C22.0717 47.6897 22.5273 48.026 22.8644 47.8267C23.1141 47.6835 23.1578 47.3285 22.958 47.123H22.9518Z" fill="#E0C6AD"/>
<path d="M19.7681 42.2334C19.3 42.2334 19.3 42.9621 19.7681 42.9621C20.2362 42.9621 20.2362 42.2334 19.7681 42.2334Z" fill="#E0C6AD"/>
<path d="M76.1766 52.3359C75.5961 52.3359 75.5961 53.2328 76.1766 53.2328C76.7571 53.2328 76.7571 52.3359 76.1766 52.3359Z" fill="#E0C6AD"/>
<path d="M84.7024 67.7506C84.6088 67.6821 84.4278 67.6821 84.3342 67.7506C84.1157 67.9188 84.097 68.0558 84.0658 68.3111C83.9971 68.8904 85.0333 68.8904 84.9646 68.3111C84.9334 68.0496 84.9147 67.9125 84.6962 67.7506H84.7024Z" fill="#E0C6AD"/>
<path d="M54.7606 70.6221C54.2113 70.6221 54.2113 71.4753 54.7606 71.4753C55.3099 71.4753 55.3099 70.6221 54.7606 70.6221Z" fill="#E0C6AD"/>
<path d="M95.9814 47.2039C95.9627 45.896 95.894 44.5756 95.7193 43.2801C95.5133 41.7666 95.2199 40.2656 94.8704 38.777C94.4834 37.139 94.0464 35.5134 93.5408 33.9065C92.9479 32.0318 92.2113 30.2132 91.3936 28.4194C90.2701 25.9406 88.9531 23.5801 87.4363 21.3317C86.2004 19.4943 84.8397 17.7504 83.3728 16.0812C81.1133 13.5027 78.5916 11.2356 75.8639 9.17406C73.9414 7.72287 71.8815 6.48968 69.7655 5.33744C67.3437 4.01705 64.797 2.98316 62.1817 2.16102C60.5213 1.63785 58.8235 1.21433 57.0946 0.896685C54.7538 0.473162 52.3944 0.180433 50.0288 0.0807809C48.1874 -0.000186614 46.3086 -0.0811542 44.4922 0.15552C42.6072 0.398423 40.6847 0.392195 38.8371 0.946511C37.7635 1.26415 36.6212 1.35758 35.5476 1.66899C33.363 2.30427 31.2033 3.03921 29.1185 3.96722C27.2085 4.8205 25.3546 5.77965 23.5819 6.88206C19.275 9.54776 15.4737 12.8051 12.1843 16.6729C9.88727 19.3697 7.88363 22.2597 6.19208 25.3613C4.99989 27.5537 3.90132 29.7959 3.12108 32.1751C2.60301 33.7446 2.06621 35.3079 1.63552 36.8961C1.13617 38.7272 0.805347 40.6019 0.505737 42.4829C0.224853 44.2517 0.100015 46.0143 0.0375964 47.7894C-0.0185804 49.4461 -0.0060967 51.1028 0.0375964 52.7595C0.0688058 53.974 0.0875314 55.2072 0.293513 56.4031C0.680509 58.6452 1.04254 60.8874 1.63552 63.0922C2.25346 65.3842 2.98376 67.6389 3.9138 69.8125C4.85632 72.0111 5.95489 74.1474 7.22823 76.1903C8.75125 78.638 10.4553 80.93 12.3903 83.0663C14.4126 85.2898 16.6223 87.3015 19.0316 89.1015C19.5247 89.469 20.0241 89.824 20.5796 90.2288C20.2987 90.5714 20.0865 90.8267 19.8743 91.0945C19.3312 91.7734 18.9255 92.5333 19.1065 93.4177C19.4124 94.9436 20.049 96.3139 21.1539 97.4474C22.4771 98.8052 24.0314 99.8328 25.7229 100.674C25.9851 100.804 26.191 101.041 26.5593 101.346C26.3159 101.502 26.2285 101.546 26.1598 101.602C24.6181 102.878 24.5994 104.641 26.1161 105.918C26.2347 106.017 26.3783 106.086 26.4969 106.192C26.7903 106.441 26.809 106.721 26.5281 106.977C26.3908 107.101 26.216 107.176 26.0537 107.269C25.623 107.525 25.1861 107.774 24.7679 108.042C22.8142 109.294 21.0228 110.757 19.325 112.321C18.2701 113.292 17.3213 114.376 16.3414 115.428C15.7671 116.045 15.299 116.786 14.6436 117.291C14.0007 117.789 13.545 118.393 13.1206 119.041C12.6337 119.782 12.7273 120.492 13.3453 121.171C14.294 122.199 15.4925 122.877 16.7221 123.494C17.6959 123.986 18.7008 124.422 19.712 124.833C20.7856 125.263 21.8717 125.649 22.9702 126.016C23.738 126.272 24.5245 126.484 25.3047 126.689C26.3596 126.963 27.4144 127.268 28.4881 127.461C29.9923 127.729 31.5216 127.885 33.0321 128.134C35.0108 128.464 37.002 128.632 39.0056 128.651C39.3489 128.651 39.6985 128.651 40.0418 128.67C41.5398 128.763 43.0316 128.9 44.5297 128.944C45.6844 128.975 46.8392 128.881 47.9939 128.844C48.1187 128.844 48.2436 128.844 48.3684 128.863C49.9913 129.099 51.6142 128.975 53.2371 128.863C54.3294 128.794 55.4217 128.663 56.5141 128.663C59.841 128.657 63.118 128.19 66.3887 127.648C69.1975 127.181 71.9627 126.521 74.628 125.524C76.1135 124.97 77.5492 124.291 79.0098 123.656C80.2831 123.102 81.4316 122.354 82.4802 121.445C83.3229 120.71 83.4415 119.807 82.8485 118.86C82.4615 118.244 82.0121 117.708 81.3879 117.303C81.0571 117.085 80.8199 116.736 80.5515 116.431C79.7962 115.559 79.1034 114.625 78.2919 113.815C75.7203 111.255 72.9551 108.926 69.7718 107.139C69.4722 106.97 69.2974 106.759 69.3349 106.404C71.2636 105.121 71.8066 103.202 69.647 101.265C69.8904 101.06 70.1026 100.836 70.3585 100.674C71.2012 100.144 72.075 99.6647 72.9115 99.1166C74.7403 97.9207 76.1073 96.3637 76.7689 94.2274C77.1622 92.9443 77.0061 91.8419 75.9762 90.9077C75.789 90.7395 75.6953 90.4655 75.5518 90.2288C75.7203 90.0793 75.8077 89.9984 75.9076 89.9236C77.3869 88.8275 78.8412 87.7001 80.2269 86.4856C82.8984 84.15 85.2329 81.5092 87.2428 78.5944C88.2353 77.1619 89.159 75.6733 90.0142 74.1599C91.1502 72.1481 92.1427 70.0554 92.9104 67.8693C93.3037 66.7545 93.6907 65.6396 94.0402 64.5123C94.3398 63.5282 94.6144 62.5379 94.8329 61.5352C95.1013 60.2895 95.3323 59.0314 95.5195 57.7671C95.7005 56.565 95.9003 55.3567 95.9377 54.1484C96.0126 51.8377 96.0189 49.5208 95.9877 47.2039H95.9814ZM26.6654 99.1166C25.0675 98.3193 23.5695 97.3913 22.3336 96.0772C21.7406 95.4481 21.3661 94.707 21.0353 93.9346C20.9167 93.6606 20.9104 93.3243 20.9229 93.0191C20.9479 92.3651 21.2974 91.9167 21.9403 91.8855C22.4896 91.8544 23.1076 91.8731 23.5882 92.0973C25.623 93.0378 27.6204 94.0592 29.7614 95.1242C28.4568 96.4571 28.1697 98.0702 28.7003 100.045C27.8888 99.6771 27.2646 99.428 26.6654 99.129V99.1166ZM30.2857 102.717C30.036 103.265 29.7676 103.701 29.6428 104.174C29.5242 104.641 29.5492 105.146 29.5117 105.731C28.5255 105.37 27.5955 105.071 26.9838 104.218C26.6717 103.788 26.6841 103.645 27.0275 103.246C27.3895 102.822 27.8202 102.542 28.3944 102.561C29.0061 102.586 29.6303 102.467 30.2857 102.71V102.717ZM16.641 121.345C15.9544 121.177 15.4737 120.729 14.9806 120.336C14.7372 120.143 14.6623 119.819 14.8558 119.495C15.0368 119.197 15.3115 119.153 15.5799 119.24C16.073 119.402 16.5473 119.62 17.0842 119.838C16.9094 120.423 16.7845 120.859 16.641 121.345ZM80.7825 119.103C81.4379 119.801 81.4566 120 80.8449 120.517C79.8587 121.358 78.6977 121.918 77.5117 122.41C75.9575 123.058 74.3845 123.693 72.7804 124.198C71.145 124.715 69.4597 125.076 67.7931 125.481C65.8144 125.96 63.7921 126.16 61.7822 126.452C60.796 126.596 59.7973 126.677 58.7986 126.745C52.2883 127.206 45.7718 126.957 39.2615 126.913C38.3003 126.907 37.339 126.72 36.3778 126.627C35.4727 126.54 34.5676 126.509 33.6688 126.378C31.6277 126.079 29.5741 125.836 27.5643 125.381C25.5918 124.933 23.6194 124.453 21.7406 123.656C20.5983 123.17 19.4124 122.784 18.0953 122.298C18.0828 121.85 18.0204 121.445 18.0704 121.059C18.1203 120.604 18.3637 120.492 18.7944 120.635C20.5484 121.202 22.2774 121.831 24.0563 122.311C25.9226 122.809 27.8264 123.183 29.7239 123.569C31.222 123.874 32.7263 124.148 34.2368 124.385C35.1294 124.528 36.0345 124.59 36.9395 124.671C38.4314 124.808 39.9232 124.933 41.4212 125.064C42.139 125.126 42.8506 125.207 43.5684 125.25C44.6607 125.319 45.7531 125.406 46.8454 125.425C48.3497 125.45 49.854 125.431 51.3583 125.4C51.9825 125.387 52.6004 125.282 53.2246 125.232C54.8475 125.101 56.4704 125.026 58.0808 124.846C59.8472 124.646 61.6074 124.391 63.3614 124.098C65.4836 123.743 67.6183 123.407 69.7094 122.896C72.5245 122.211 75.3395 121.47 78.0235 120.343C78.5104 120.137 78.9661 119.863 79.4467 119.645C79.8961 119.439 80.358 119.271 80.7825 119.103ZM73.4108 111.779C75.3957 113.448 77.3369 115.173 78.86 117.297C78.9286 117.397 78.9848 117.509 79.0784 117.658C78.5728 118.293 77.905 118.549 77.2808 118.779C75.5268 119.433 73.7728 120.087 71.9315 120.473C70.6831 120.735 69.4597 121.121 68.2113 121.383C66.4386 121.756 64.6659 122.136 62.8745 122.379C60.7398 122.672 58.5864 122.821 56.4454 123.039C55.5778 123.127 54.7102 123.239 53.8425 123.338C53.6241 123.363 53.4056 123.394 53.1871 123.382C51.97 123.326 50.7653 123.538 49.5356 123.432C48.2436 123.32 46.9203 123.519 45.6157 123.5C44.3674 123.475 43.1252 123.351 41.8769 123.257C41.1278 123.201 40.3851 123.12 39.636 123.046C37.957 122.877 36.2779 122.728 34.6051 122.529C33.1507 122.348 31.6964 122.13 30.2483 121.881C29.1747 121.694 28.1073 121.445 27.0462 121.202C25.8914 120.94 24.7242 120.698 23.5882 120.374C22.3024 120.006 21.0353 119.576 19.7682 119.147C19.1502 118.935 18.5447 118.692 17.9518 118.412C17.596 118.244 17.2901 117.976 16.8844 117.702C17.3463 117.11 17.7146 116.574 18.1515 116.101C19.9242 114.164 21.8405 112.383 23.9315 110.782C25.3734 109.68 26.9213 108.752 28.4943 107.867C28.9687 107.599 29.4306 107.606 29.9424 107.718C31.403 108.035 32.8698 108.359 34.3429 108.621C35.2605 108.783 36.203 108.845 37.133 108.945C43.2875 109.624 49.4545 109.256 55.6215 109.25C56.926 109.25 58.2306 109.02 59.5351 108.883C60.5276 108.777 61.5263 108.683 62.5063 108.509C63.7609 108.285 65.0092 107.992 66.2514 107.705C66.7694 107.587 67.1939 107.668 67.6745 107.93C69.7219 109.032 71.6506 110.303 73.417 111.791L73.4108 111.779ZM31.8399 103.19C32.4891 103.346 33.1507 103.532 33.8186 103.657C35.017 103.881 36.2217 104.062 37.4202 104.261C38.5 104.436 39.5861 104.573 40.6535 104.778C42.6259 105.158 44.6358 105.146 46.6269 105.314C47.7692 105.413 48.9364 105.258 50.0912 105.214C50.3096 105.208 50.5281 105.177 50.7466 105.183C52.4444 105.258 54.1109 104.928 55.7838 104.716C57.3942 104.51 59.0046 104.292 60.6087 104.031C61.5013 103.887 62.3814 103.669 63.2615 103.439C64.048 103.233 64.797 102.878 65.596 102.735C66.3887 102.598 67.2064 102.629 68.0178 102.617C68.2238 102.617 68.4672 102.704 68.6295 102.829C69.2974 103.327 69.6282 103.887 68.7856 104.573C68.2613 105.002 67.6371 105.339 67.0066 105.594C66.3825 105.849 65.6896 105.955 65.028 106.136C62.9682 106.696 60.8397 106.808 58.7424 107.163C58.3117 107.238 57.8685 107.207 57.4316 107.232C56.2769 107.301 55.1159 107.344 53.9674 107.462C52.3757 107.624 50.7903 107.606 49.1923 107.475C48.3871 107.406 47.5695 107.531 46.7642 107.531C45.2038 107.531 43.6371 107.531 42.0766 107.475C41.2964 107.45 40.5161 107.238 39.7421 107.257C37.9757 107.307 36.2467 106.995 34.5177 106.765C33.4066 106.622 32.3081 106.397 31.2157 106.211C30.5354 104.703 30.8974 103.838 31.8524 103.184L31.8399 103.19ZM73.6854 96.1145C72.5682 97.3727 71.1388 98.2197 69.6594 98.9733C67.7931 99.9262 65.8581 100.686 63.8358 101.278C61.3016 102.013 58.7237 102.436 56.1208 102.741C54.9099 102.885 53.7052 103.047 52.5005 103.202C52.3757 103.221 52.2509 103.252 52.1323 103.258C50.759 103.333 49.3858 103.408 47.7692 103.495C45.441 103.233 42.8381 103.296 40.2789 102.791C38.7497 102.492 37.1767 102.399 35.6412 102.137C34.6301 101.963 33.6376 101.664 32.6327 101.415C32.3892 101.353 32.1458 101.296 31.9148 101.203C31.4592 101.016 30.8537 100.929 30.604 100.586C30.1921 100.026 29.905 99.3221 29.7676 98.637C29.5492 97.547 29.9861 96.6315 30.8475 95.9028C31.2033 95.6038 31.5278 95.5353 31.9648 95.691C33.9185 96.3699 35.9346 96.7623 37.9632 97.1547C40.0355 97.5595 42.1265 97.5595 44.2051 97.7962C45.1788 97.9083 46.1838 97.7401 47.1762 97.7027C47.6444 97.6841 48.1187 97.6591 48.5869 97.6778C49.4233 97.709 50.2597 97.8211 51.0961 97.8086C52.126 97.7962 53.1559 97.7027 54.1858 97.6342C55.9024 97.5221 57.6064 97.2979 59.2917 96.9554C61.002 96.6066 62.6873 96.1706 64.3601 95.6474C66.6384 94.9374 68.7856 93.9533 70.9328 92.9443C71.4134 92.7201 71.8753 92.4523 72.331 92.1783C72.8428 91.8669 73.3921 91.8046 73.9601 91.8544C74.7528 91.9229 75.1211 92.3527 75.1273 93.1499C75.1336 94.3644 74.4594 95.2737 73.7104 96.1208L73.6854 96.1145ZM93.9466 55.3318C93.8966 56.9076 93.5221 58.4272 93.2662 59.9594C93.0165 61.4604 92.5421 62.9241 92.1177 64.3939C91.506 66.4929 90.6758 68.5171 89.7583 70.4977C88.9343 72.2789 87.9731 73.9855 86.9307 75.6547C85.3765 78.1522 83.5601 80.4504 81.5564 82.593C80.4454 83.7763 79.2157 84.8476 77.9799 85.9002C76.9125 86.8095 75.8014 87.669 74.6467 88.4725C72.2561 90.1229 69.7094 91.4932 67.0316 92.6392C64.7284 93.6232 62.3502 94.3893 59.9096 94.9063C58.3554 95.2364 56.8012 95.5976 55.1908 95.6412C53.5991 95.6848 52.0199 95.8965 50.4282 95.9526C49.5294 95.9837 48.6243 95.8094 47.7193 95.8094C46.783 95.8094 45.8467 95.9775 44.9167 95.9526C43.6745 95.9152 42.4324 95.7595 41.1903 95.6536C40.5349 95.5976 39.8732 95.5914 39.2303 95.473C37.5138 95.1554 35.7723 94.9 34.0933 94.4204C31.7525 93.7478 29.4555 92.9319 27.2522 91.8669C24.7429 90.6461 22.3523 89.2448 20.1177 87.5756C17.5773 85.6822 15.2366 83.5708 13.2142 81.1293C12.1406 79.8338 11.0732 78.5197 10.0933 77.1557C8.65138 75.1502 7.43422 73.0014 6.40431 70.7655C5.53044 68.8721 4.75645 66.9288 4.11978 64.9358C3.57674 63.2417 3.1086 61.5289 2.75905 59.7912C2.33461 57.6799 2.02251 55.5498 1.91016 53.401C1.81653 51.6571 1.72914 49.907 1.77284 48.1568C1.80405 46.7866 2.035 45.4288 2.16607 44.0586C2.36581 42.0033 2.79026 39.9916 3.27713 37.9923C3.62043 36.5722 4.11354 35.1833 4.57544 33.7944C4.94995 32.6733 5.31822 31.546 5.79884 30.4685C6.45424 28.9924 7.1783 27.5412 7.93981 26.115C8.86985 24.3835 9.93721 22.7392 11.0732 21.1323C12.8522 18.6224 14.9057 16.3615 17.1154 14.2314C20.1052 11.354 23.4696 8.99967 27.1336 7.05645C29.2933 5.91045 31.5216 4.94506 33.8249 4.1603C35.2355 3.67449 36.7024 3.35685 38.1567 2.99561C40.3164 2.46621 42.5135 2.12365 44.7294 2.03646C46.9765 1.94926 49.2298 1.98663 51.4769 2.08006C52.9687 2.14234 54.4667 2.34787 55.946 2.55963C56.9635 2.70911 57.9747 2.93333 58.9671 3.20737C60.5026 3.6309 62.0506 4.03574 63.5237 4.62119C65.4961 5.40596 67.4373 6.28414 69.3161 7.26821C70.9952 8.15262 72.6243 9.15538 74.1661 10.264C76.4693 11.927 78.6415 13.7643 80.6014 15.8383C82.8111 18.1801 84.796 20.7026 86.5375 23.4181C87.817 25.4236 88.9531 27.5101 89.8769 29.7024C90.7133 31.683 91.4436 33.7072 92.1614 35.7376C92.4922 36.6719 92.6982 37.656 92.9104 38.6276C93.2038 39.9666 93.4847 41.3057 93.7156 42.6573C93.8779 43.6102 93.9778 44.5693 94.0527 45.5347C94.1713 47.0544 94.2399 48.5804 94.3523 50.4301C94.2274 51.8564 94.0027 53.5941 93.9466 55.3318Z" fill="#E0C6AD"/>
<path d="M33.151 10.5566C33.0137 10.594 32.7016 10.6501 32.4207 10.7746C31.7903 11.0424 31.1723 11.3352 30.5481 11.6279C24.9804 14.2189 20.2365 17.8749 16.2979 22.571C12.403 27.2173 9.69403 32.4802 8.13356 38.3347C7.49689 40.7202 7.13486 43.1554 6.91015 45.6218C6.67296 48.2564 6.73538 50.866 7.04123 53.4757C7.24721 55.2694 7.603 57.0507 7.94006 58.8258C8.0212 59.268 8.23967 59.7164 8.51431 60.0714C8.82016 60.4763 9.23213 60.333 9.45059 59.8659C9.66906 59.4112 9.46932 59.0002 9.35697 58.5953C8.6766 56.1165 8.29585 53.5816 8.17101 51.028C8.05241 48.6301 8.11483 46.226 8.43941 43.8281C8.91379 40.3465 9.78141 36.977 11.1234 33.732C13.8137 27.236 17.9395 21.8174 23.501 17.5136C26.4784 15.2092 29.668 13.2535 33.2758 12.0514C33.513 11.9705 33.7377 11.7338 33.8813 11.5096C34.2496 10.9428 33.9999 10.5566 33.1447 10.5566H33.151Z" fill="#E0C6AD"/>
<path d="M88.2292 63.765C87.9358 63.6093 87.6612 63.7151 87.4864 63.9767C87.2804 64.2882 87.0932 64.6182 86.9434 64.9546C84.4778 70.4666 80.9387 75.1752 76.3197 79.0678C71.682 82.973 66.4451 85.7259 60.534 87.1833C60.353 87.2269 60.1782 87.2954 59.9972 87.3577C59.7226 87.4511 59.5665 87.6753 59.6227 87.9307C59.6664 88.1487 59.8162 88.3791 59.9847 88.5286C60.1033 88.6345 60.3343 88.622 60.559 88.6781C60.765 88.6282 61.0084 88.5722 61.2456 88.5037C61.7262 88.3604 62.2006 88.1985 62.675 88.0552C69.0979 86.0684 74.7218 82.7301 79.5218 78.0277C83.1046 74.5087 85.9447 70.4541 88.0357 65.8888C88.2417 65.4404 88.3853 64.9608 88.5351 64.4812C88.6287 64.176 88.5039 63.9145 88.2292 63.765Z" fill="#E0C6AD"/>
<path d="M25.0861 81.2976C19.5308 77.3863 15.2302 72.4099 12.2278 66.3186C12.1217 66.0944 12.0031 65.8764 11.8533 65.6771C11.6723 65.4342 11.3852 65.2723 11.1168 65.4218C10.9108 65.5339 10.8047 65.8142 10.6611 66.0072C10.786 66.3934 10.8359 66.711 10.9857 66.9726C11.8845 68.5421 12.7522 70.1366 13.7384 71.6501C16.6096 76.0472 20.3485 79.616 24.5805 82.6865C24.7303 82.7924 24.8988 82.9295 25.0736 82.9419C25.2983 82.9606 25.573 82.9419 25.7602 82.8236C25.9787 82.6865 25.96 82.425 25.8975 82.1509C25.7914 81.69 25.4169 81.5281 25.0923 81.2976H25.0861Z" fill="#E0C6AD"/>
<path d="M29.6362 109.667C29.4739 109.549 29.1805 109.555 28.9558 109.574C28.8185 109.586 28.6937 109.73 28.5626 109.817C28.0695 110.147 27.5701 110.471 27.0832 110.807C24.9423 112.283 22.895 113.878 21.166 115.833C21.0037 116.02 20.8227 116.213 20.7415 116.437C20.5792 116.861 20.91 117.309 21.4718 117.278C21.6403 117.141 21.9399 116.967 22.1584 116.718C23.2632 115.472 24.4679 114.339 25.7912 113.336C26.8148 112.563 27.876 111.847 28.9121 111.094C29.1868 110.894 29.4739 110.689 29.6924 110.427C29.8796 110.197 29.8921 109.854 29.6424 109.667H29.6362Z" fill="#E0C6AD"/>
</g>
<defs>
<clipPath id="clip0_111_76832">
<rect width="96" height="129" fill="white"/>
</clipPath>
</defs>
</svg>
