<svg width="152" height="125" viewBox="0 0 152 125" fill="none" xmlns="http://www.w3.org/2000/svg">
<g clip-path="url(#clip0_109_75963)">
<path d="M1.02227 109.396C1.22042 109.508 1.47954 109.457 1.65229 109.243C1.79963 109.065 1.92157 108.856 2.04859 108.658C3.15113 106.91 4.26383 105.168 5.52387 103.523C7.32248 101.175 9.09568 98.8117 10.8841 96.4534C13.1959 93.4074 15.5026 90.3614 18.0735 87.5345C19.3894 86.0828 20.7053 84.6108 22.1432 83.2864C25.3746 80.3016 28.7787 77.5307 32.4522 75.096C36.4152 72.4677 40.7187 70.8785 45.4997 70.69C47.842 70.5983 50.1436 70.8021 52.3842 71.5305C53.8729 72.0144 55.3666 72.4982 56.8502 73.0025C60.6608 74.3014 64.507 75.478 68.4294 76.3948C71.0003 76.9959 73.5864 77.5001 76.1675 78.0553C77.9559 78.4425 79.7444 78.8092 81.5531 79.0741C82.7929 79.2574 84.0275 79.4714 85.2621 79.6904C86.7559 79.9502 88.2395 80.266 89.7383 80.4799C90.8205 80.6378 91.9231 80.6836 93.0155 80.7498C94.7633 80.8568 96.506 80.9689 98.2436 81.2083C99.4071 81.3713 100.571 81.5648 101.663 82.0232C102.044 82.1862 102.405 82.4002 102.771 82.6039C102.862 82.6548 103.009 82.7211 102.918 82.9197C102.74 82.8942 102.567 82.8637 102.39 82.8433C101.897 82.7822 101.404 82.6905 100.911 82.6752C99.5443 82.6294 98.6552 83.4545 98.5078 84.8196C98.4113 85.7365 98.4723 86.6482 98.5434 87.56C98.5891 88.1865 98.8889 88.5991 99.4173 88.8486C99.7425 89.0014 100.103 89.0931 100.459 89.1644C100.84 89.2357 101.236 89.2459 101.627 89.2918C101.739 89.3071 101.846 89.3682 102.105 89.4548C101.617 89.6229 101.282 89.7604 100.931 89.8521C99.5037 90.229 98.0404 90.3003 96.5771 90.2035C95.3272 90.122 94.0875 89.9387 92.8376 89.8062C91.4099 89.6585 89.9822 89.4904 88.5494 89.3733C86.8829 89.2408 85.2164 89.1543 83.5499 89.0422C82.0663 88.9454 80.5827 88.8181 79.094 88.757C77.5546 88.6958 76.0151 88.6704 74.4705 88.6907C73.0377 88.7111 71.5998 88.8232 70.167 88.8843C69.2525 88.92 68.338 88.9047 67.4234 88.9556C66.3056 89.0167 65.1828 89.1237 64.065 89.2205C62.556 89.3478 61.0622 89.6025 59.5736 89.9081C59.3754 89.9489 59.1772 90.0456 59.0045 90.1526C58.8216 90.2647 58.7759 90.5142 58.847 90.7129C58.9181 90.9064 59.0655 91.0236 59.2585 91.0287C59.4618 91.0287 59.6752 90.9981 59.8784 90.9574C62.81 90.3818 65.7772 90.1679 68.7597 90.1271C69.283 90.1169 69.8012 90.1017 70.3246 90.0762C72.1486 89.9998 73.9777 89.8928 75.8017 89.8572C78.2608 89.8062 80.7047 90.0507 83.1536 90.2086C84.5356 90.2952 85.9125 90.4276 87.2945 90.5091C89.6164 90.6467 91.9231 90.8912 94.2298 91.2019C95.5 91.375 96.7753 91.4718 98.0556 91.4362C99.6866 91.3903 101.282 91.156 102.786 90.4837C103.34 90.2341 103.863 89.9387 104.275 89.4853C104.483 89.2561 104.727 89.1542 105.016 89.0931C105.606 88.9709 106.195 88.8486 106.774 88.6907C107.409 88.5176 108.014 88.2578 108.497 87.7943C108.725 87.5752 108.964 87.4785 109.264 87.4937C109.391 87.4937 109.523 87.4785 109.655 87.4581C111.977 87.0812 114.299 86.7297 116.611 86.312C119.827 85.7263 122.987 84.896 126.158 84.1218C128.134 83.6379 130.11 83.1285 132.112 82.7465C134.551 82.283 137.005 81.9316 139.459 81.5597C140.414 81.4171 141.375 81.3101 142.345 81.3407C143.382 81.3764 144.362 81.6208 145.261 82.1455C145.358 82.2015 145.429 82.3085 145.571 82.4511C145.236 82.5377 144.987 82.6039 144.738 82.6599C143.3 82.9656 141.908 83.4138 140.602 84.0963C140.237 84.2899 139.881 84.5242 139.571 84.7992C139.119 85.2118 138.941 85.7517 139.078 86.3681C139.154 86.6992 139.241 87.0302 139.317 87.3613C139.352 87.5039 139.373 87.6516 139.408 87.8503C138.824 88.0286 138.27 88.1814 137.732 88.3647C135.659 89.0779 133.586 89.8062 131.513 90.5295C130.182 90.993 128.866 91.5024 127.519 91.9303C124.232 92.9744 120.95 94.0339 117.637 94.9864C113.445 96.1885 109.269 97.4619 105.098 98.7353C101.124 99.9476 97.1055 100.997 93.0764 102.01C89.9873 102.79 86.8626 103.421 83.7531 104.124C81.7869 104.567 79.8003 104.873 77.7781 104.832C76.4723 104.807 75.1716 104.679 73.876 104.501C71.8844 104.231 69.8876 103.971 67.8959 103.717C66.9915 103.6 66.0821 103.462 65.1726 103.401C63.8719 103.309 62.5662 103.248 61.2604 103.223C60.1375 103.202 59.0096 103.202 57.8918 103.274C56.6165 103.355 55.3463 103.539 54.0761 103.656C52.2521 103.824 50.4535 104.16 48.6904 104.654C45.6674 105.494 42.8628 106.788 40.2969 108.612C37.4974 110.603 34.9519 112.901 32.5233 115.315C30.5367 117.291 28.8296 119.517 27.1834 121.789C26.9395 122.125 26.721 122.487 26.5178 122.853C26.4162 123.032 26.3552 123.24 26.3196 123.439C26.2892 123.633 26.4009 123.796 26.5737 123.887C26.7464 123.979 26.9395 123.989 27.0919 123.857C27.224 123.74 27.3307 123.587 27.4323 123.439C27.9455 122.716 28.4231 121.962 28.9718 121.259C30.9229 118.763 32.9653 116.344 35.3686 114.255C36.1967 113.532 36.9893 112.773 37.8226 112.055C39.3164 110.776 40.8812 109.6 42.5528 108.566C45.0729 107.012 47.8115 106.004 50.6974 105.398C53.5934 104.786 56.5301 104.511 59.4872 104.435C60.3712 104.415 61.2604 104.399 62.1444 104.44C63.5518 104.511 64.9643 104.578 66.3615 104.741C69.2169 105.072 72.0622 105.469 74.9074 105.836C77.6816 106.192 80.4354 106.075 83.1638 105.464C84.9217 105.072 86.6797 104.669 88.4376 104.267C90.8815 103.707 93.3508 103.253 95.7642 102.566C98.4519 101.802 101.165 101.114 103.848 100.345C106.083 99.7031 108.293 98.9849 110.524 98.3227C115.031 96.978 119.553 95.6893 124.044 94.3039C128.215 93.0152 132.31 91.5075 136.436 90.0966C137.574 89.7095 138.717 89.3376 139.855 88.9505C140.14 88.8537 140.419 88.8181 140.699 88.9301C141.283 89.1644 141.878 89.1084 142.477 89.0218C145.211 88.6245 147.619 87.5039 149.748 85.7466C150.195 85.3799 150.617 84.9826 150.916 84.4834C151.074 84.2186 151.221 83.9282 151.292 83.6277C151.45 82.9706 151.16 82.4154 150.535 82.171C150.225 82.0487 149.88 81.9825 149.55 81.957C148.869 81.9061 148.188 81.9519 147.522 82.1047C147.207 82.176 146.984 82.0895 146.745 81.8704C145.338 80.5563 143.6 80.1386 141.756 80.1896C140.455 80.2252 139.154 80.3984 137.864 80.5869C135.669 80.9128 133.469 81.2337 131.294 81.6769C128.916 82.1608 126.564 82.7924 124.201 83.3476C121.991 83.8671 119.776 84.3816 117.561 84.8909C117.337 84.9419 117.109 84.9571 116.702 85.0132C116.951 84.8043 117.053 84.7025 117.17 84.621C118.796 83.5717 120.396 82.4817 122.052 81.4782C126.996 78.4781 132.021 75.6308 137.376 73.4253C137.686 73.2979 138.001 73.1706 138.336 73.028C138.804 73.3387 139.322 73.3438 139.85 73.3489C140.917 73.3591 141.913 73.0687 142.884 72.6511C145.363 71.5712 147.461 69.9413 149.397 68.0821C149.453 68.0261 149.504 67.9701 149.56 67.9089C149.824 67.6135 149.946 67.2824 149.788 66.9004C149.656 66.5795 149.26 66.386 148.793 66.4216C148.635 66.4318 148.483 66.4725 148.33 66.5031C148.203 66.5286 148.076 66.5591 147.934 66.5897C147.08 66.1415 146.222 65.6983 145.378 65.2399C144.753 64.8986 144.093 64.6592 143.407 64.4911C141.786 64.0989 140.14 64.0887 138.499 64.2772C136.858 64.4657 135.262 64.8783 133.692 65.3876C133.469 65.4589 133.245 65.5149 133.032 65.5761C132.92 65.4946 132.834 65.4335 132.753 65.3723C131.503 64.486 130.161 63.7882 128.622 63.5794C127.819 63.4724 127.011 63.4215 126.203 63.3604C125.441 63.3043 124.689 63.4062 123.947 63.5488C122.454 63.8392 121.006 64.2772 119.593 64.8324C117.967 65.4742 116.362 66.1822 114.756 66.8749C113.679 67.3385 112.607 67.8223 111.545 68.296C110.097 67.3792 108.527 67.0889 106.871 67.262C105.118 67.4454 103.426 67.8987 101.805 68.5762C100.068 69.2995 98.3554 70.0788 96.6432 70.8632C92.1771 72.9159 87.7975 75.1418 83.5093 77.5511C83.3518 77.6428 83.1841 77.7192 83.0266 77.8159C82.7675 77.9789 82.4982 78.0044 82.1984 77.9535C81.609 77.8516 81.0044 77.7956 80.4201 77.6784C77.1176 77.0112 73.8151 76.3388 70.5176 75.6461C67.3472 74.9788 64.2276 74.0976 61.1334 73.1299C58.6895 72.3658 56.2659 71.5458 53.8373 70.7359C51.8964 70.089 49.9302 69.6102 47.8724 69.5185C46.0383 69.437 44.2092 69.4727 42.4055 69.7885C38.8438 70.415 35.5108 71.6731 32.4674 73.6596C29.7898 75.4016 27.224 77.2913 24.7903 79.3644C22.9815 80.9077 21.1626 82.4409 19.5266 84.1829C17.5349 86.2968 15.5788 88.4462 13.8005 90.7435C10.8435 94.5738 7.93217 98.4449 4.99546 102.291C3.59316 104.124 2.35344 106.06 1.15945 108.031C1.02227 108.255 0.890168 108.484 0.793633 108.724C0.686936 108.994 0.798714 109.274 1.02735 109.401L1.02227 109.396ZM148.422 83.1795C148.777 83.1184 149.148 83.1235 149.509 83.1285C149.707 83.1285 149.926 83.1693 150.078 83.4189C150.032 83.5309 150.007 83.6939 149.915 83.806C149.692 84.0912 149.468 84.3867 149.194 84.621C147.106 86.419 144.708 87.5447 141.959 87.8605C141.857 87.8707 141.751 87.8961 141.649 87.8961C140.938 87.886 140.592 87.6466 140.379 86.9691C140.008 85.7823 140.14 85.5938 141.121 85.0998C142.198 84.5548 143.331 84.1625 144.504 83.9181C145.805 83.6481 147.111 83.4036 148.417 83.1744L148.422 83.1795ZM107.658 86.9182C107.409 87.1015 107.14 87.2798 106.851 87.3715C106.205 87.5752 105.55 87.7535 104.889 87.891C104.127 88.054 103.35 88.1712 102.557 88.1712C101.912 88.105 101.267 88.0489 100.621 87.9675C100.418 87.942 100.215 87.8707 100.027 87.7943C99.8237 87.7128 99.6866 87.5447 99.6561 87.3257C99.6104 87.0149 99.5545 86.7042 99.5595 86.3935C99.5595 85.874 99.59 85.3493 99.6358 84.8298C99.6916 84.2389 100.052 83.8722 100.652 83.8366C100.987 83.8162 101.328 83.8518 101.663 83.9079C102.948 84.1218 104.219 84.4172 105.453 84.84C105.946 85.0081 106.419 85.2322 106.881 85.4665C107.232 85.6448 107.536 85.8944 107.76 86.2254C107.933 86.4852 107.923 86.7297 107.669 86.9182H107.658ZM147.304 68.1636C146.842 68.7952 146.273 69.2434 145.688 69.6815C144.642 70.4659 143.514 71.123 142.32 71.6527C141.674 71.938 140.999 72.1417 140.298 72.2385C140.089 72.2639 139.881 72.2741 139.673 72.2741C139.546 72.2741 139.419 72.2385 139.22 72.213C139.302 72.0704 139.332 71.9329 139.413 71.8768C139.734 71.6527 140.054 71.4184 140.404 71.2554C142.533 70.2673 144.667 69.2944 146.806 68.3266C146.964 68.2553 147.136 68.2196 147.304 68.1636ZM136.487 65.8664C137.965 65.52 139.459 65.2908 140.988 65.357C142.884 65.4436 144.626 65.9734 146.161 67.1245C146.095 67.3945 145.856 67.3996 145.678 67.4862C143.829 68.3419 141.979 69.1976 140.13 70.0482C139.535 70.3233 138.966 70.6442 138.479 71.0873C138.306 71.2452 138.123 71.4133 138.016 71.612C137.879 71.8666 137.681 71.994 137.432 72.1009C136.878 72.3353 136.334 72.5899 135.781 72.8191C133.56 73.7462 131.391 74.7751 129.292 75.9619C126.971 77.276 124.623 78.5392 122.337 79.9043C120.635 80.923 119.009 82.0691 117.342 83.154C116.27 83.8569 115.193 84.5497 114.121 85.2475C113.811 85.4512 113.496 85.6244 113.125 85.6804C111.967 85.8638 110.803 86.0472 109.645 86.2254C109.493 86.2458 109.34 86.2254 109.137 86.2254C108.72 85.2526 108.014 84.6413 107.14 84.2339C106.48 83.9231 105.789 83.6787 105.042 83.3781C104.778 82.5886 104.031 82.1098 103.441 81.5444C103.416 81.3 103.584 81.2388 103.705 81.1624C106.205 79.5376 108.751 77.9942 111.403 76.624C112.866 75.8651 114.324 75.1113 115.788 74.3523C120.132 72.106 124.618 70.1654 129.14 68.3164C131.533 67.3385 133.967 66.4573 136.492 65.8664H136.487ZM116.961 67.2264C118.806 66.4216 120.66 65.6372 122.611 65.1278C123.292 64.9496 123.978 64.7815 124.674 64.6694C125.187 64.5828 125.716 64.5472 126.229 64.5625C127.428 64.6032 128.627 64.7153 129.775 65.1126C130.37 65.3163 130.918 65.6066 131.482 66.0345C131.315 66.1415 131.203 66.2433 131.076 66.2892C126.752 67.8631 122.55 69.7324 118.404 71.7138C113.974 73.8328 109.589 76.0485 105.443 78.7073C104.63 79.2269 103.822 79.7617 103.009 80.2863C102.705 80.485 102.384 80.6633 102.085 80.8415C101.953 80.811 101.851 80.7957 101.749 80.7651C99.7983 80.1081 97.7711 79.9145 95.7439 79.7515C94.7023 79.6649 93.6607 79.5936 92.6192 79.5121C92.4972 79.5019 92.3804 79.4612 92.2076 79.4255C92.3753 79.1301 92.6446 79.069 92.8681 78.9569C94.5499 78.1114 96.2367 77.2811 97.9184 76.4356C100.815 74.9839 103.711 73.5272 106.596 72.0653C110.001 70.3437 113.466 68.7494 116.961 67.2264ZM85.0081 77.9789C85.4857 77.7141 85.9684 77.4543 86.4561 77.2047C90.6681 75.0654 94.8954 72.9516 99.1988 71.0007C101.028 70.1705 102.867 69.3504 104.828 68.8665C106.048 68.566 107.277 68.3266 108.542 68.4896C109.03 68.5558 109.503 68.6526 109.97 68.892C109.874 69.1569 109.655 69.2027 109.482 69.2893C107.846 70.1094 106.21 70.9141 104.574 71.7342C101.424 73.3183 98.2741 74.8973 95.1342 76.5018C93.5997 77.2862 92.0806 78.1012 90.5665 78.9263C90.1804 79.1352 89.8095 79.2523 89.3776 79.1759C87.8635 78.906 86.3444 78.6411 84.8303 78.3762C84.7845 78.3661 84.7388 78.3304 84.6474 78.2744C84.7744 78.1674 84.8709 78.0503 84.9979 77.9789H85.0081Z" fill="#E0C6AD"/>
<path d="M26.8329 124.015C26.7415 124.015 26.6449 123.99 26.5484 123.939C26.3401 123.827 26.2283 123.628 26.2588 123.424C26.2943 123.2 26.3655 122.991 26.462 122.813C26.7008 122.385 26.9142 122.049 27.1327 121.743C28.6976 119.584 30.425 117.307 32.4777 115.264C35.3077 112.453 37.777 110.319 40.2615 108.556C42.746 106.789 45.5811 105.449 48.6753 104.588C50.4536 104.094 52.2675 103.758 54.0711 103.59C54.5589 103.544 55.0568 103.488 55.5344 103.432C56.3067 103.345 57.0993 103.254 57.8868 103.208C58.8573 103.147 59.8988 103.131 61.2605 103.157C62.551 103.182 63.867 103.244 65.1727 103.335C65.8891 103.386 66.6106 103.483 67.3117 103.575C67.5048 103.6 67.703 103.626 67.896 103.651L68.0891 103.676C69.9893 103.921 71.9505 104.171 73.8762 104.435C75.3699 104.639 76.6096 104.746 77.7681 104.767C79.5514 104.802 81.4466 104.573 83.7278 104.059C84.7338 103.829 85.7602 103.605 86.756 103.391C88.8239 102.938 90.9629 102.474 93.0511 101.945C96.8668 100.982 100.967 99.9174 105.067 98.6695C109.137 97.4267 113.344 96.1431 117.607 94.9206C120.543 94.0751 123.5 93.1328 126.361 92.2261L127.484 91.8696C128.363 91.5894 129.247 91.2685 130.1 90.9629C130.558 90.7948 131.015 90.6318 131.477 90.4688L131.569 90.4383C133.576 89.7354 135.649 89.0121 137.691 88.3092C138.062 88.1818 138.428 88.0749 138.819 87.9577C138.982 87.9119 139.149 87.8609 139.317 87.81C139.307 87.7642 139.302 87.7183 139.297 87.6776C139.276 87.5706 139.261 87.4738 139.241 87.3821C139.205 87.2395 139.17 87.0918 139.134 86.9492C139.088 86.7607 139.043 86.5774 138.997 86.3889C138.855 85.7573 139.032 85.1919 139.51 84.7589C139.8 84.4941 140.15 84.2547 140.552 84.0458C141.751 83.4142 143.107 82.9456 144.703 82.6044C144.87 82.5687 145.033 82.528 145.226 82.477C145.292 82.4617 145.358 82.4414 145.429 82.4261C145.409 82.4057 145.394 82.3853 145.373 82.365C145.307 82.2937 145.262 82.2376 145.206 82.2071C144.352 81.7079 143.407 81.4481 142.32 81.4125C141.288 81.3768 140.287 81.5041 139.444 81.6315L138.362 81.7945C136.304 82.1052 134.175 82.421 132.097 82.8183C130.421 83.1341 128.729 83.5518 127.098 83.9592C126.783 84.0357 126.463 84.1172 126.148 84.1936C125.584 84.3311 125.02 84.4737 124.456 84.6112C121.895 85.2479 119.243 85.905 116.601 86.3838C114.975 86.6792 113.313 86.9441 111.713 87.1988C111.022 87.3108 110.336 87.4178 109.645 87.5299C109.513 87.5502 109.376 87.5706 109.244 87.5655C108.964 87.5604 108.736 87.6419 108.522 87.8507C108.101 88.2582 107.547 88.5537 106.774 88.7625C106.185 88.9255 105.591 89.0477 105.016 89.1649C104.696 89.2311 104.483 89.3432 104.31 89.5367C103.858 90.041 103.264 90.3415 102.801 90.5503C101.465 91.1514 99.9509 91.457 98.0456 91.513C96.877 91.5487 95.622 91.4723 94.2096 91.2787C91.6793 90.9375 89.4133 90.7133 87.2793 90.586C86.5477 90.5453 85.8059 90.4841 85.0895 90.4281C84.4493 90.3772 83.7888 90.3262 83.1385 90.2855C82.5593 90.2498 81.975 90.2091 81.3958 90.1632C79.5616 90.0308 77.6614 89.8984 75.7916 89.934C74.5621 89.9595 73.3071 90.0155 72.0979 90.0766C71.5034 90.1072 70.909 90.1327 70.3145 90.1581C69.8166 90.1785 69.2831 90.1989 68.7496 90.2091C65.3251 90.26 62.5053 90.5249 59.8785 91.0393C59.6753 91.0801 59.4619 91.1157 59.2485 91.1106C59.03 91.1106 58.8624 90.9782 58.7811 90.7541C58.7048 90.5402 58.7404 90.2549 58.964 90.1174C59.1723 89.985 59.3704 89.9035 59.5533 89.8627C61.2808 89.5062 62.7136 89.2871 64.0499 89.17L64.5529 89.1292C65.4877 89.0477 66.4582 88.9662 67.4083 88.9102C67.9214 88.8796 68.4448 88.8746 68.9528 88.8644C69.3441 88.8593 69.7505 88.8542 70.1519 88.8389C70.6905 88.8185 71.2392 88.788 71.7676 88.7574C72.6466 88.7116 73.5611 88.6606 74.4554 88.6453C75.9085 88.625 77.4175 88.6453 79.0789 88.7116C80.1052 88.7523 81.1519 88.8287 82.163 88.9C82.6202 88.9306 83.0775 88.9662 83.5399 88.9968C84.0581 89.0325 84.5814 89.063 85.0997 89.0936C86.2276 89.1598 87.3911 89.2311 88.5394 89.3279C89.6267 89.4145 90.7292 89.5367 91.7962 89.6488C92.1417 89.6844 92.4821 89.7252 92.8276 89.7608C93.2493 89.8067 93.6659 89.8525 94.0876 89.9035C94.9006 90.0002 95.7389 90.097 96.562 90.153C98.1878 90.26 99.6003 90.148 100.896 89.8067C101.125 89.7456 101.353 89.6641 101.617 89.5724C101.704 89.5418 101.8 89.5062 101.902 89.4705C101.877 89.4603 101.856 89.4501 101.836 89.445C101.734 89.4043 101.668 89.3788 101.607 89.3686C101.455 89.3483 101.307 89.3381 101.155 89.3228C100.916 89.3024 100.672 89.282 100.434 89.2362C100.002 89.1547 99.6613 89.0528 99.3767 88.9204C98.8128 88.6555 98.513 88.2175 98.4673 87.5808C98.4063 86.7353 98.3301 85.7777 98.4317 84.8252C98.5791 83.4346 99.453 82.6196 100.784 82.6196C100.825 82.6196 100.86 82.6196 100.901 82.6196C101.252 82.6298 101.602 82.6808 101.943 82.7317C102.09 82.7521 102.237 82.7724 102.385 82.7928C102.512 82.8081 102.644 82.8285 102.771 82.8489L102.867 82.8641C102.893 82.7724 102.837 82.7368 102.75 82.6859L102.593 82.5993C102.283 82.421 101.963 82.2376 101.633 82.1001C100.53 81.6366 99.3463 81.443 98.2285 81.2902C96.4604 81.0457 94.6262 80.9337 93.0054 80.8318L92.538 80.8063C91.6133 80.7503 90.653 80.6943 89.7232 80.5618C88.7579 80.4243 87.7823 80.2409 86.8373 80.0627C86.3089 79.9659 85.7754 79.864 85.247 79.7723C84.0327 79.5584 82.7828 79.3445 81.538 79.156C79.6327 78.8708 77.7426 78.4786 76.1473 78.1322C75.1972 77.9285 74.2267 77.7247 73.2919 77.5312C71.6863 77.195 70.03 76.8486 68.4092 76.4717C64.8933 75.6516 61.103 74.5412 56.8249 73.0794C55.4023 72.5955 53.9492 72.1218 52.5469 71.6684L52.3589 71.6073C50.3063 70.9401 48.0605 70.665 45.4947 70.772C40.922 70.9553 36.6643 72.3917 32.4828 75.1677C29.0329 77.4548 25.6643 80.134 22.184 83.3531C20.8579 84.5807 19.6182 85.9457 18.4191 87.2701L18.1193 87.6012C15.5586 90.423 13.2163 93.5097 10.9503 96.4945L10.93 96.52C10.305 97.3452 9.68009 98.1703 9.06023 98.9955C7.92213 100.503 6.74338 102.062 5.5748 103.59C4.3554 105.179 3.28335 106.855 2.1046 108.719L2.04363 108.816C1.93693 108.984 1.83024 109.157 1.70322 109.31C1.51523 109.539 1.2307 109.605 0.991903 109.478C0.72262 109.33 0.610842 109.009 0.727701 108.719C0.829317 108.47 0.966499 108.235 1.0986 108.016C2.08428 106.391 3.41545 104.267 4.93969 102.271C6.07272 100.788 7.20066 99.3011 8.3286 97.8189C10.0967 95.4911 11.9258 93.0819 13.7447 90.7235C15.5433 88.3907 17.5604 86.1851 19.4759 84.1579C21.0205 82.5178 22.753 81.0355 24.4348 79.6042L24.7498 79.3343C27.0971 77.3325 29.607 75.4632 32.432 73.6244C35.3992 71.6888 38.7525 70.3849 42.3954 69.7482C43.9959 69.468 45.7386 69.3814 47.8776 69.4782C49.7118 69.5597 51.612 69.9468 53.8628 70.7007L54.7621 71.0012C56.8554 71.699 59.0148 72.4223 61.1538 73.0947C64.751 74.2203 67.7284 75.02 70.533 75.6109C73.8914 76.3189 77.2651 77.0014 80.4355 77.6432C80.7708 77.7094 81.1163 77.7604 81.4466 77.8062C81.7006 77.8419 81.9597 77.8775 82.2138 77.9234C82.5237 77.9743 82.7676 77.9386 82.9962 77.796C83.0927 77.7349 83.1994 77.6789 83.3011 77.6279C83.362 77.5974 83.423 77.5668 83.484 77.5312C87.7468 75.1372 92.1671 72.8858 96.6229 70.8433C98.2539 70.0945 100.002 69.2999 101.785 68.5563C103.452 67.8635 105.159 67.4204 106.871 67.2421C108.604 67.0588 110.179 67.4051 111.555 68.271C111.881 68.1284 112.206 67.9807 112.531 67.8381C113.252 67.5172 113.999 67.1861 114.736 66.8652C115.066 66.7226 115.391 66.58 115.722 66.4373C116.977 65.8923 118.277 65.332 119.573 64.8176C121.031 64.242 122.5 63.8091 123.937 63.5289C124.852 63.3506 125.548 63.2946 126.214 63.3404L126.488 63.3608C127.194 63.4118 127.921 63.4627 128.632 63.5595C129.994 63.7428 131.315 64.3184 132.788 65.3626C132.849 65.4033 132.91 65.4492 132.981 65.5001L133.042 65.546C133.103 65.5307 133.164 65.5103 133.23 65.495C133.378 65.4543 133.525 65.4135 133.672 65.3677C135.511 64.7768 137.041 64.4203 138.489 64.2573C140.328 64.0485 141.939 64.1147 143.417 64.4712C144.149 64.6444 144.799 64.894 145.409 65.2251C145.998 65.546 146.603 65.8618 147.187 66.1674C147.441 66.2998 147.69 66.4322 147.944 66.5647L148.031 66.5443C148.132 66.5239 148.224 66.4985 148.32 66.4832C148.356 66.4781 148.396 66.4679 148.432 66.4577C148.549 66.4322 148.671 66.4068 148.793 66.3966C149.28 66.366 149.712 66.5698 149.85 66.9161C150.002 67.288 149.921 67.6394 149.611 67.9909C149.555 68.0571 149.504 68.1131 149.448 68.1692C147.197 70.3339 145.119 71.7907 142.914 72.7534C141.812 73.2322 140.851 73.4563 139.906 73.4563H139.861C139.347 73.4563 138.819 73.4461 138.341 73.1456L137.412 73.5276C131.797 75.8401 126.518 78.8962 122.098 81.5755C120.93 82.2835 119.766 83.0475 118.643 83.7861C118.171 84.0968 117.698 84.4075 117.221 84.7131C117.149 84.7589 117.083 84.8201 116.982 84.9067C116.961 84.9219 116.941 84.9423 116.921 84.9576C116.977 84.9525 117.027 84.9423 117.078 84.9372C117.276 84.9118 117.419 84.8965 117.561 84.8608C119.7 84.3667 121.971 83.8421 124.202 83.3175C124.984 83.1341 125.782 82.9354 126.549 82.747C128.099 82.365 129.704 81.9728 131.294 81.6468C133.393 81.2189 135.547 80.898 137.635 80.5924L137.869 80.5567C139.053 80.3836 140.43 80.1951 141.771 80.1543C141.868 80.1543 141.964 80.1543 142.061 80.1543C144.027 80.1543 145.582 80.7146 146.806 81.8607C147.04 82.0797 147.248 82.1408 147.523 82.0797C148.178 81.932 148.864 81.8811 149.565 81.932C149.931 81.9575 150.276 82.0339 150.571 82.151C151.226 82.4108 151.531 82.9966 151.369 83.6842C151.308 83.944 151.186 84.219 150.988 84.5552C150.678 85.0798 150.236 85.4822 149.809 85.8337C147.634 87.6266 145.18 88.7319 142.508 89.119C141.898 89.2056 141.299 89.2668 140.699 89.0274C140.47 88.9357 140.216 88.9408 139.901 89.0477C139.353 89.2362 138.809 89.4145 138.26 89.5978C137.666 89.7965 137.076 89.99 136.487 90.1938C135.212 90.6318 133.916 91.0852 132.661 91.5232C129.867 92.5012 126.976 93.5148 124.09 94.4011C121.25 95.2772 118.349 96.1278 115.544 96.953C113.913 97.4318 112.226 97.9258 110.57 98.4199C109.676 98.6899 108.766 98.97 107.887 99.24C106.581 99.6424 105.23 100.06 103.894 100.442C102.501 100.839 101.079 101.221 99.707 101.593C98.4266 101.94 97.1056 102.296 95.81 102.663C94.1537 103.131 92.4465 103.498 90.7953 103.855C90.0331 104.018 89.2507 104.186 88.4835 104.364C86.9237 104.721 85.0743 105.143 83.2096 105.561C80.4964 106.167 77.7122 106.295 74.933 105.933C74.0641 105.821 73.2004 105.709 72.3316 105.592C70.3856 105.337 68.3686 105.067 66.382 104.838C64.9898 104.675 63.557 104.604 62.175 104.537C61.2453 104.491 60.3155 104.507 59.5127 104.527C56.2762 104.609 53.4056 104.924 50.7331 105.49C47.6642 106.142 45.007 107.171 42.6088 108.653C41.0236 109.631 39.4791 110.772 37.8837 112.132C37.4417 112.514 37.0047 112.911 36.5779 113.298C36.2019 113.64 35.8158 113.991 35.4296 114.332C32.8994 116.533 30.7807 119.1 29.0431 121.326C28.6823 121.789 28.3419 122.283 28.0167 122.762C27.8491 123.012 27.6763 123.256 27.5036 123.501L27.4731 123.547C27.3766 123.684 27.28 123.822 27.153 123.934C27.0666 124.01 26.9599 124.046 26.8482 124.046L26.8329 124.015ZM60.0716 103.269C59.2587 103.269 58.5677 103.289 57.9021 103.33C57.1196 103.381 56.3219 103.468 55.5547 103.554C55.0721 103.61 54.5792 103.666 54.0864 103.712C52.2878 103.88 50.479 104.216 48.7109 104.705C45.6268 105.566 42.8121 106.896 40.3377 108.653C37.8634 110.415 35.3941 112.544 32.5691 115.351C30.5216 117.388 28.7992 119.66 27.2343 121.815C27.0158 122.115 26.8075 122.451 26.5687 122.874C26.4773 123.037 26.4112 123.231 26.3807 123.44C26.3553 123.592 26.4417 123.735 26.6043 123.822C26.7669 123.908 26.9294 123.903 27.0514 123.801C27.1682 123.699 27.2597 123.567 27.3512 123.44L27.3816 123.394C27.5544 123.149 27.7221 122.905 27.8897 122.655C28.2149 122.176 28.5553 121.677 28.9211 121.214C30.6638 118.988 32.7825 116.41 35.3229 114.205C35.7091 113.869 36.0952 113.517 36.4712 113.176C36.898 112.789 37.3349 112.387 37.7821 112.005C39.3825 110.634 40.9322 109.493 42.5225 108.51C44.9308 107.023 47.6033 105.984 50.6873 105.332C53.3649 104.767 56.2457 104.451 59.4873 104.364C60.2901 104.344 61.2249 104.323 62.1496 104.369C63.5418 104.441 64.9746 104.507 66.3718 104.67C68.3584 104.899 70.3704 105.169 72.3214 105.424C73.1902 105.536 74.054 105.653 74.9228 105.765C77.6918 106.121 80.4609 105.994 83.1588 105.393C85.0235 104.975 86.8678 104.553 88.4327 104.196C89.205 104.018 89.9874 103.85 90.7495 103.687C92.4008 103.33 94.1029 102.963 95.7592 102.495C97.0548 102.128 98.3809 101.771 99.6562 101.425C101.033 101.053 102.451 100.671 103.843 100.274C105.179 99.892 106.525 99.4743 107.831 99.0719C108.71 98.8019 109.62 98.5167 110.519 98.2518C112.175 97.7578 113.862 97.2637 115.493 96.7849C118.298 95.9597 121.199 95.1091 124.039 94.233C126.92 93.3416 129.811 92.3331 132.605 91.3551C133.86 90.9171 135.151 90.4638 136.431 90.0257C137.02 89.822 137.615 89.6284 138.209 89.4298C138.758 89.2464 139.307 89.0681 139.85 88.8796C140.196 88.7625 140.475 88.7574 140.735 88.8593C141.304 89.0885 141.883 89.0325 142.477 88.9459C145.124 88.5638 147.558 87.4636 149.717 85.686C150.139 85.3396 150.566 84.9474 150.871 84.4431C151.064 84.1172 151.181 83.8523 151.237 83.6078C151.384 82.9762 151.12 82.4617 150.52 82.2223C150.241 82.1103 149.905 82.039 149.555 82.0135C148.864 81.9626 148.188 82.0135 147.548 82.1561C147.228 82.2274 146.979 82.1561 146.715 81.9065C145.516 80.7859 143.986 80.2358 142.056 80.2358C141.959 80.2358 141.862 80.2358 141.766 80.2358C140.43 80.2715 139.063 80.46 137.879 80.6331L137.645 80.6688C135.562 80.9744 133.408 81.2953 131.315 81.7232C129.724 82.0492 128.124 82.4414 126.574 82.8234C125.802 83.0118 125.009 83.2105 124.222 83.3939C121.997 83.9185 119.72 84.4431 117.581 84.9372C117.434 84.9729 117.282 84.9882 117.083 85.0136C116.977 85.0289 116.855 85.0442 116.718 85.0595L116.499 85.09L116.672 84.9474C116.763 84.871 116.834 84.8099 116.895 84.7539C117.002 84.6622 117.068 84.601 117.149 84.5501C117.622 84.2445 118.1 83.9338 118.572 83.6231C119.7 82.8845 120.863 82.1205 122.032 81.4125C126.457 78.7281 131.742 75.672 137.366 73.3544L138.357 72.9469L138.387 72.9673C138.839 73.2678 139.337 73.2729 139.866 73.278H139.911C140.841 73.278 141.781 73.059 142.868 72.5853C145.058 71.6328 147.126 70.1811 149.362 68.0265C149.413 67.9756 149.463 67.9196 149.509 67.8686C149.794 67.5477 149.865 67.237 149.733 66.9161C149.621 66.6462 149.291 66.473 148.894 66.473C148.864 66.473 148.833 66.473 148.803 66.473C148.691 66.4781 148.574 66.5036 148.462 66.529C148.427 66.5392 148.386 66.5443 148.351 66.5545C148.259 66.5749 148.168 66.5952 148.066 66.6156L147.934 66.6462L147.914 66.636C147.655 66.4985 147.395 66.366 147.136 66.2285C146.552 65.9229 145.947 65.6071 145.353 65.2862C144.753 64.9602 144.113 64.7157 143.397 64.5425C141.934 64.1911 140.333 64.1198 138.509 64.3286C137.071 64.4916 135.547 64.843 133.718 65.4339C133.571 65.4797 133.418 65.5256 133.271 65.5663C133.2 65.5867 133.129 65.6071 133.057 65.6275L133.027 65.6376L132.915 65.5561C132.844 65.5052 132.783 65.4594 132.722 65.4186C131.264 64.3846 129.963 63.8192 128.622 63.6359C127.916 63.5391 127.189 63.4882 126.483 63.4372L126.209 63.4168C125.558 63.371 124.867 63.427 123.968 63.6053C122.535 63.8855 121.077 64.3184 119.624 64.8889C118.328 65.3982 117.033 65.9636 115.778 66.5036C115.447 66.6462 115.117 66.7888 114.792 66.9314C114.055 67.2472 113.308 67.5834 112.587 67.9043C112.252 68.052 111.916 68.2048 111.581 68.3525L111.55 68.3678L111.52 68.3474C110.138 67.4764 108.624 67.1453 106.886 67.3236C105.189 67.5019 103.492 67.9399 101.836 68.6327C100.058 69.3763 98.3047 70.1709 96.6788 70.9197C92.228 72.9622 87.8128 75.2085 83.55 77.6025C83.4891 77.6381 83.4281 77.6687 83.3671 77.6992C83.2706 77.7502 83.169 77.8062 83.0724 77.8622C82.8184 78.0201 82.544 78.066 82.2036 78.01C81.9496 77.9641 81.6904 77.9285 81.4415 77.8979C81.1061 77.8521 80.7607 77.8062 80.4202 77.7349C77.2498 77.0931 73.8762 76.4055 70.5177 75.7026C67.7131 75.1117 64.7307 74.312 61.1284 73.1863C58.9894 72.514 56.8249 71.7907 54.7317 71.0929L53.8323 70.7924C51.5917 70.0436 49.7016 69.6565 47.8827 69.575C45.7539 69.4782 44.0213 69.5648 42.431 69.8449C38.8033 70.4816 35.4703 71.7805 32.5133 73.7059C29.6934 75.5447 27.1835 77.4089 24.8463 79.4056L24.5313 79.6756C22.8546 81.1069 21.1221 82.584 19.5826 84.219C17.6722 86.2463 15.6602 88.4467 13.8616 90.7745C12.0427 93.1277 10.2136 95.537 8.44545 97.8698C7.31751 99.3571 6.18957 100.839 5.05655 102.322C3.53231 104.313 2.20622 106.432 1.22054 108.057C1.09352 108.271 0.956337 108.5 0.859802 108.74C0.768347 108.969 0.854721 109.223 1.06812 109.341H1.05287C1.23578 109.442 1.45426 109.386 1.60668 109.203C1.72862 109.055 1.83532 108.887 1.93693 108.724L1.9979 108.627C3.17665 106.758 4.25378 105.082 5.47318 103.488C6.64177 101.96 7.82051 100.401 8.95862 98.8936C9.58356 98.0685 10.2034 97.2433 10.8284 96.4181L10.8487 96.3927C13.1147 93.4078 15.457 90.316 18.0228 87.4942L18.3226 87.1631C19.5216 85.8388 20.7613 84.4686 22.0925 83.2411C25.583 80.0168 28.9567 77.3376 32.4116 75.0455C36.6186 72.2542 40.8966 70.8127 45.4897 70.6294C48.0656 70.5275 50.3317 70.8025 52.3945 71.4749L52.5825 71.536C53.9848 71.9893 55.4379 72.463 56.8605 72.9469C61.1335 74.4088 64.9187 75.5141 68.4295 76.3342C70.0503 76.7111 71.7066 77.0574 73.3122 77.3936C74.247 77.5872 75.2175 77.7909 76.1676 77.9947C77.763 78.341 79.6479 78.7332 81.5533 79.0134C82.7981 79.1968 84.053 79.4158 85.2673 79.6297C85.8008 79.7214 86.3292 79.8233 86.8627 79.92C87.8027 80.0983 88.7782 80.2817 89.7435 80.4192C90.6682 80.5516 91.6234 80.6077 92.5481 80.6637L93.0156 80.6892C94.6363 80.791 96.4705 80.9031 98.2437 81.1476C99.3717 81.3055 100.566 81.4991 101.678 81.9677C102.014 82.1103 102.339 82.2936 102.654 82.4719L102.811 82.5585C102.898 82.6044 103.076 82.7062 102.969 82.9456L102.949 82.9915L102.755 82.9609C102.628 82.9405 102.501 82.9202 102.374 82.9049C102.227 82.8845 102.08 82.8641 101.932 82.8438C101.597 82.7979 101.246 82.747 100.901 82.7368C100.865 82.7368 100.83 82.7368 100.789 82.7368C99.5292 82.7368 98.701 83.511 98.5638 84.8303C98.4622 85.7675 98.5384 86.72 98.5994 87.5604C98.6451 88.1513 98.9195 88.5537 99.4377 88.7931C99.7172 88.9204 100.042 89.0223 100.469 89.1038C100.703 89.1496 100.942 89.17 101.175 89.1853C101.328 89.1955 101.48 89.2107 101.633 89.2311C101.714 89.2413 101.785 89.2719 101.892 89.3126C101.953 89.3381 102.029 89.3635 102.12 89.3992L102.293 89.4603L102.12 89.5214C101.958 89.5775 101.81 89.6284 101.673 89.6793C101.409 89.7761 101.175 89.8576 100.942 89.9187C99.6308 90.2651 98.2031 90.3772 96.5671 90.2702C95.7389 90.2142 94.8955 90.1174 94.0876 90.0206C93.6659 89.9697 93.2493 89.9187 92.8327 89.878C92.4872 89.8423 92.1468 89.8067 91.8013 89.7659C90.7343 89.6488 89.6317 89.5316 88.5444 89.445C87.4013 89.3534 86.2327 89.282 85.1047 89.2107C84.5814 89.1802 84.0632 89.1496 83.5449 89.114C83.0877 89.0834 82.6304 89.0528 82.168 89.0172C81.162 88.9459 80.1154 88.8695 79.0891 88.8287C77.4327 88.7625 75.9186 88.7421 74.4706 88.7625C73.5764 88.7778 72.6669 88.8236 71.7879 88.8746C71.2595 88.9051 70.7108 88.9357 70.1722 88.9561C69.7709 88.9713 69.3644 88.9764 68.9732 88.9815C68.4651 88.9866 67.9468 88.9968 67.4337 89.0274C66.4836 89.0834 65.5182 89.1649 64.5833 89.2464L64.0803 89.2922C62.7492 89.4043 61.3215 89.6233 59.5991 89.9799C59.4314 90.0155 59.2485 90.0919 59.0503 90.2142C58.8878 90.316 58.8624 90.5402 58.9182 90.6981C58.9792 90.8712 59.1062 90.968 59.2688 90.968C59.4619 90.9782 59.6753 90.9375 59.8734 90.8967C62.5104 90.3823 65.3353 90.1174 68.7649 90.0614C69.2983 90.0512 69.8318 90.0308 70.3297 90.0104C70.9242 89.985 71.5187 89.9595 72.1131 89.9289C73.3223 89.8729 74.5773 89.8118 75.8119 89.7863C77.6969 89.7507 79.5921 89.8831 81.4313 90.0155C82.0105 90.0563 82.5948 90.097 83.174 90.1327C83.8244 90.1734 84.4849 90.2244 85.1251 90.2753C85.8415 90.3313 86.5833 90.3874 87.3149 90.4332C89.4539 90.5605 91.72 90.7846 94.2553 91.1259C95.6678 91.3144 96.9176 91.3908 98.071 91.3602C99.961 91.3042 101.455 91.0037 102.781 90.4128C103.233 90.2091 103.807 89.9136 104.244 89.4298C104.437 89.2158 104.671 89.0936 105.022 89.0223C105.596 88.9051 106.185 88.7829 106.774 88.6199C107.521 88.411 108.06 88.1309 108.466 87.7387C108.705 87.5095 108.959 87.4076 109.284 87.4178C109.401 87.4178 109.538 87.4025 109.66 87.3821C110.351 87.2701 111.037 87.158 111.728 87.0511C113.334 86.7964 114.99 86.5315 116.616 86.2361C119.258 85.7573 121.905 85.1002 124.466 84.4635C125.03 84.326 125.594 84.1834 126.158 84.0458C126.473 83.9694 126.793 83.8879 127.108 83.8115C128.744 83.4091 130.431 82.9915 132.112 82.6706C134.19 82.2733 136.324 81.9575 138.382 81.6468L139.464 81.4838C140.313 81.3564 141.329 81.2291 142.365 81.2647C143.473 81.3004 144.438 81.5704 145.307 82.0797C145.378 82.1205 145.434 82.1816 145.505 82.2631C145.541 82.3038 145.582 82.3497 145.632 82.3955L145.709 82.477L145.602 82.5025C145.49 82.528 145.389 82.5585 145.292 82.584C145.099 82.6349 144.931 82.6757 144.764 82.7113C143.183 83.0526 141.837 83.5161 140.648 84.1426C140.257 84.3515 139.911 84.5807 139.632 84.8404C139.19 85.2428 139.027 85.7624 139.154 86.3481C139.195 86.5366 139.241 86.72 139.287 86.9033C139.322 87.046 139.358 87.1937 139.393 87.3363C139.414 87.4331 139.434 87.5299 139.449 87.6419C139.459 87.6979 139.469 87.7642 139.48 87.8304L139.49 87.8864L139.434 87.9017C139.246 87.9577 139.063 88.0137 138.88 88.0698C138.489 88.1869 138.123 88.2939 137.757 88.4212C135.715 89.1241 133.642 89.8525 131.635 90.5503L131.543 90.5809C131.086 90.7388 130.629 90.9069 130.172 91.0699C129.318 91.3806 128.434 91.7015 127.55 91.9816L126.427 92.3382C123.566 93.2499 120.604 94.1922 117.668 95.0378C113.405 96.2602 109.198 97.5438 105.128 98.7867C101.023 100.04 96.9227 101.104 93.1019 102.067C91.0137 102.592 88.8696 103.06 86.8017 103.513C85.811 103.727 84.7847 103.952 83.7787 104.181C81.4872 104.7 79.587 104.919 77.7884 104.894C76.6249 104.873 75.3801 104.767 73.8812 104.563C71.9556 104.298 69.9944 104.048 68.0942 103.804L67.9011 103.778C67.703 103.753 67.5099 103.727 67.3117 103.702C66.6157 103.61 65.8942 103.514 65.1778 103.463C63.872 103.371 62.5561 103.31 61.2707 103.284C60.8439 103.274 60.4476 103.269 60.0767 103.269H60.0716ZM102.567 88.2379H102.552C102.364 88.2175 102.186 88.2022 102.004 88.1818C101.546 88.136 101.069 88.0901 100.606 88.0341C100.388 88.0086 100.174 87.9322 99.9966 87.8609C99.773 87.7743 99.6206 87.5808 99.5851 87.3414L99.5698 87.2446C99.5292 86.9696 99.4834 86.6843 99.4885 86.3991C99.4885 85.8795 99.519 85.3549 99.5647 84.8303C99.6206 84.2037 100.012 83.8166 100.642 83.781C100.937 83.7606 101.262 83.781 101.663 83.8523C103.07 84.0866 104.31 84.3922 105.464 84.7844C105.977 84.9576 106.48 85.2021 106.901 85.416C107.277 85.6045 107.582 85.8693 107.806 86.2004C108.009 86.5009 107.968 86.776 107.699 86.9797C107.481 87.1427 107.186 87.3414 106.871 87.4433C106.21 87.6521 105.55 87.8304 104.905 87.9679C104.005 88.1564 103.269 88.2481 102.578 88.2481L102.567 88.2379ZM100.84 83.8981C100.774 83.8981 100.708 83.8981 100.647 83.9032C100.083 83.9389 99.7426 84.27 99.6918 84.8404C99.646 85.36 99.6206 85.8846 99.6155 86.3991C99.6155 86.6741 99.6562 86.9492 99.6968 87.2242L99.7121 87.3261C99.7426 87.5248 99.8594 87.6725 100.047 87.7489C100.22 87.8151 100.423 87.8915 100.627 87.917C101.089 87.973 101.562 88.0188 102.024 88.0647C102.207 88.08 102.385 88.1003 102.562 88.1207H102.573C103.248 88.1207 103.98 88.0341 104.874 87.8457C105.514 87.7081 106.17 87.5349 106.825 87.3261C107.125 87.2293 107.404 87.0409 107.618 86.883C107.831 86.7251 107.857 86.5213 107.694 86.2768C107.486 85.9661 107.196 85.7165 106.84 85.5383C106.424 85.3294 105.926 85.09 105.423 84.9168C104.28 84.5297 103.045 84.2241 101.643 83.9898C101.338 83.9389 101.079 83.9134 100.845 83.9134L100.84 83.8981ZM141.649 87.9679H141.644C140.892 87.9577 140.536 87.6928 140.318 86.995C139.932 85.7624 140.094 85.5535 141.09 85.0493C142.157 84.5094 143.3 84.1121 144.494 83.8625C145.653 83.6231 146.898 83.3837 148.412 83.1188C148.788 83.0526 149.189 83.0628 149.514 83.0679C149.733 83.073 149.971 83.1137 150.139 83.3888L150.154 83.4142L150.144 83.4448C150.129 83.4754 150.119 83.511 150.109 83.5518C150.078 83.6485 150.043 83.7606 149.971 83.8472L149.921 83.9134C149.712 84.1783 149.499 84.4533 149.24 84.6774C147.091 86.5315 144.642 87.6266 141.969 87.9322C141.934 87.9322 141.898 87.9424 141.868 87.9475C141.802 87.9577 141.73 87.9679 141.659 87.9679H141.649ZM148.427 83.2411C146.913 83.511 145.673 83.7453 144.515 83.9847C143.336 84.2292 142.203 84.6265 141.146 85.1613C140.201 85.6401 140.074 85.8031 140.435 86.9543C140.638 87.5961 140.953 87.8304 141.644 87.8355C141.705 87.8355 141.766 87.8253 141.832 87.8151C141.868 87.81 141.903 87.8049 141.939 87.7998C144.586 87.4942 147.009 86.4093 149.143 84.5756C149.392 84.3616 149.601 84.0917 149.809 83.8319L149.86 83.7657C149.916 83.6944 149.946 83.5976 149.977 83.511C149.987 83.4805 149.997 83.455 150.002 83.4244C149.865 83.2156 149.672 83.1952 149.499 83.1901C149.179 83.1799 148.788 83.1748 148.422 83.236L148.427 83.2411ZM109.457 86.3023C109.406 86.3023 109.361 86.3023 109.305 86.3023C109.249 86.3023 109.183 86.3023 109.117 86.3023H109.076L109.061 86.2615C108.685 85.3855 108.045 84.7437 107.1 84.3005C106.647 84.0866 106.185 83.9083 105.692 83.7148C105.469 83.6282 105.24 83.5365 105.006 83.4448L104.981 83.4346L104.971 83.4091C104.773 82.8234 104.295 82.4057 103.828 81.9982C103.68 81.8709 103.528 81.7385 103.386 81.6009L103.37 81.5856V81.5602C103.345 81.3106 103.497 81.2138 103.614 81.1476C103.629 81.1374 103.65 81.1272 103.665 81.117C106.541 79.2477 108.99 77.8062 111.367 76.5736L112.831 75.8146C113.806 75.3104 114.782 74.8061 115.752 74.3018C120.508 71.8416 125.391 69.7838 129.11 68.2659C132.016 67.0791 134.287 66.3202 136.472 65.8108C138.214 65.4033 139.652 65.2403 140.989 65.3015C143.021 65.3932 144.723 65.9789 146.196 67.0842L146.232 67.1097L146.222 67.1504C146.166 67.3898 145.978 67.4561 145.826 67.507C145.785 67.5223 145.739 67.5376 145.704 67.5528C144.093 68.3016 142.477 69.0453 140.862 69.7889L140.15 70.1149C139.454 70.4358 138.931 70.7618 138.514 71.1438C138.341 71.2966 138.169 71.4596 138.067 71.6481C137.915 71.9384 137.681 72.0657 137.452 72.1625C137.208 72.2695 136.965 72.3765 136.721 72.4834C136.416 72.6158 136.111 72.7534 135.801 72.8807C133.423 73.874 131.305 74.8978 129.323 76.0184C128.581 76.4411 127.834 76.8537 127.087 77.2714C125.533 78.1373 123.922 79.0338 122.367 79.9608C121.209 80.6535 120.071 81.4176 118.968 82.1561C118.45 82.5025 117.912 82.8641 117.378 83.2105C116.86 83.5518 116.342 83.8879 115.818 84.2241C115.264 84.5858 114.711 84.9423 114.157 85.304C113.857 85.4975 113.527 85.686 113.136 85.7471L112.008 85.9254C111.22 86.0476 110.438 86.1699 109.65 86.2921C109.589 86.3023 109.533 86.3023 109.467 86.3023H109.457ZM109.162 86.1699C109.213 86.1699 109.264 86.1699 109.31 86.1699C109.427 86.1699 109.523 86.175 109.62 86.1648C110.407 86.0476 111.19 85.9203 111.977 85.798L113.105 85.6198C113.476 85.5637 113.791 85.3804 114.076 85.197C114.629 84.8353 115.183 84.4737 115.737 84.1172C116.255 83.781 116.779 83.4397 117.297 83.1035C117.83 82.7572 118.364 82.3955 118.882 82.0492C119.985 81.3106 121.128 80.5415 122.291 79.8487C123.846 78.9217 125.457 78.0252 127.011 77.1593C127.758 76.7417 128.505 76.3291 129.247 75.9063C131.233 74.7857 133.357 73.7568 135.74 72.7636C136.05 72.6362 136.355 72.4987 136.66 72.3663C136.904 72.2593 137.147 72.1523 137.396 72.0454C137.605 71.9588 137.813 71.8416 137.95 71.5869C138.062 71.3781 138.245 71.21 138.428 71.047C138.855 70.6548 139.388 70.3237 140.094 69.9978L140.806 69.6718C142.421 68.9281 144.032 68.1844 145.643 67.4357C145.683 67.4153 145.734 67.4 145.78 67.3847C145.912 67.3389 146.034 67.2982 146.08 67.1606C144.637 66.091 142.97 65.5256 140.978 65.4339C139.652 65.3728 138.23 65.5358 136.497 65.9382C134.317 66.4475 132.057 67.2014 129.155 68.3882C125.436 69.9061 120.559 71.9639 115.808 74.419C114.833 74.9232 113.857 75.4275 112.887 75.9318L111.423 76.6907C109.046 77.9183 106.602 79.3597 103.731 81.224C103.716 81.2342 103.695 81.2444 103.675 81.2597C103.568 81.3208 103.482 81.3768 103.492 81.5296C103.624 81.657 103.772 81.7843 103.909 81.9065C104.381 82.3191 104.864 82.747 105.077 83.348C105.301 83.4397 105.519 83.5212 105.738 83.6078C106.231 83.8014 106.698 83.9796 107.155 84.1936C108.116 84.6418 108.776 85.2938 109.167 86.18L109.162 86.1699ZM102.085 80.9133H102.059C102.019 80.898 101.978 80.8878 101.937 80.8827C101.856 80.8675 101.79 80.8522 101.719 80.8267C99.8137 80.1849 97.8779 79.9914 95.7287 79.8131C95.1597 79.7672 94.5855 79.7265 94.0165 79.6806C93.544 79.645 93.0765 79.6093 92.604 79.5737C92.5176 79.5686 92.4364 79.5482 92.3398 79.5227C92.2941 79.5126 92.2433 79.4973 92.1823 79.4871L92.0959 79.4667L92.1417 79.3903C92.289 79.1356 92.5024 79.0389 92.6955 78.9574C92.7412 78.937 92.7869 78.9166 92.8276 78.8962C93.6812 78.4684 94.5398 78.0405 95.3934 77.6127C96.2216 77.2001 97.0497 76.7875 97.8728 76.3749C100.657 74.9793 103.619 73.4919 106.551 72.0046C109.635 70.446 113.024 68.8619 116.921 67.1657C118.806 66.3457 120.655 65.5663 122.576 65.0621C123.14 64.9144 123.882 64.7259 124.644 64.6037C125.167 64.5171 125.695 64.4814 126.214 64.4967C127.286 64.5323 128.546 64.624 129.78 65.0519C130.41 65.2709 130.959 65.5663 131.503 65.984L131.574 66.04L131.498 66.091C131.442 66.1266 131.391 66.1623 131.345 66.1928C131.254 66.2591 131.172 66.3151 131.081 66.3507C127.275 67.7362 123.251 69.4578 118.415 71.7754C114.213 73.7874 109.737 76.0235 105.458 78.7638C105.047 79.0287 104.635 79.2935 104.224 79.5635C103.822 79.8233 103.426 80.083 103.025 80.3428C102.811 80.4803 102.593 80.6077 102.38 80.735C102.283 80.791 102.192 80.8471 102.095 80.9031L102.075 80.9184L102.085 80.9133ZM92.3043 79.3852C92.3043 79.3852 92.35 79.3954 92.3754 79.4005C92.4668 79.4209 92.5431 79.4412 92.6193 79.4463C93.0918 79.482 93.5592 79.5177 94.0317 79.5533C94.6008 79.5941 95.1749 79.6399 95.744 79.6857C97.9033 79.8589 99.8493 80.0576 101.765 80.7045C101.826 80.7248 101.892 80.7401 101.968 80.7554C101.998 80.7605 102.034 80.7707 102.07 80.7758C102.156 80.7248 102.242 80.6739 102.329 80.623C102.542 80.5007 102.761 80.3683 102.969 80.2358C103.37 79.9812 103.772 79.7163 104.168 79.4565C104.579 79.1866 104.991 78.9217 105.403 78.6568C109.681 75.9165 114.167 73.6753 118.369 71.6583C123.211 69.3407 127.24 67.614 131.045 66.2285C131.122 66.203 131.193 66.1521 131.279 66.0859C131.305 66.0655 131.33 66.0502 131.36 66.0299C130.847 65.6478 130.334 65.3728 129.745 65.1741C128.525 64.7565 127.281 64.6597 126.219 64.624C125.706 64.6087 125.187 64.6444 124.674 64.7259C123.917 64.8532 123.18 65.0366 122.616 65.1843C120.701 65.6886 118.857 66.4628 116.977 67.2829C113.085 68.979 109.691 70.558 106.612 72.1167C103.68 73.604 100.713 75.0913 97.9338 76.487C97.1056 76.8995 96.2825 77.3121 95.4544 77.7247C94.6008 78.1526 93.7421 78.5753 92.8885 79.0083C92.8428 79.0287 92.7971 79.049 92.7514 79.0745C92.5939 79.1458 92.4313 79.2171 92.3043 79.3801V79.3852ZM89.6572 79.2681C89.5657 79.2681 89.4692 79.2579 89.3777 79.2426C88.5953 79.1051 87.8077 78.9675 87.0253 78.83C86.2937 78.7027 85.562 78.5753 84.8304 78.4429C84.7897 78.4378 84.7542 78.4123 84.7084 78.3869C84.6881 78.3716 84.6576 78.3563 84.6272 78.3359L84.5459 78.2901L84.617 78.229C84.6576 78.1933 84.6932 78.1577 84.7288 78.1271C84.8101 78.0507 84.8863 77.9794 84.9777 77.9285C85.5011 77.6381 85.9786 77.3834 86.4308 77.1542C91.1153 74.7755 95.0784 72.8043 99.1786 70.9452C100.876 70.176 102.796 69.305 104.818 68.8059C105.931 68.5308 107.227 68.2557 108.558 68.4289C108.99 68.485 109.498 68.5766 110.006 68.8364L110.057 68.8619L110.036 68.9128C109.95 69.1573 109.772 69.2337 109.615 69.2999C109.579 69.3152 109.549 69.3305 109.518 69.3458C108.822 69.6921 108.126 70.0385 107.425 70.3849C106.485 70.8535 105.545 71.317 104.61 71.7907L103.441 72.3815C100.728 73.7466 97.9236 75.1575 95.1749 76.5583C93.8285 77.2459 92.3754 78.015 90.6123 78.9828C90.2618 79.1764 89.962 79.263 89.6622 79.263L89.6572 79.2681ZM84.7643 78.2697C84.7643 78.2697 84.7745 78.2748 84.7796 78.2799C84.8151 78.3003 84.8355 78.3156 84.8558 78.3207C85.5874 78.448 86.3191 78.5804 87.0507 78.7078C87.8331 78.8453 88.6207 78.9828 89.4031 79.1203C89.774 79.1866 90.1144 79.1153 90.5514 78.8759C92.3195 77.9081 93.7726 77.139 95.119 76.4513C97.8677 75.0506 100.672 73.6397 103.386 72.2746L104.559 71.6837C105.494 71.21 106.434 70.7465 107.374 70.2779C108.07 69.9315 108.771 69.5852 109.467 69.2337C109.503 69.2184 109.533 69.2031 109.569 69.1879C109.701 69.1318 109.828 69.0758 109.899 68.923C109.427 68.6938 108.949 68.6072 108.543 68.5512C107.242 68.378 105.951 68.653 104.849 68.9281C102.837 69.4222 100.921 70.2932 99.2294 71.0572C95.1343 72.9164 91.1712 74.8825 86.4867 77.2612C86.0345 77.4904 85.562 77.7451 85.0387 78.0354C84.9625 78.0762 84.8913 78.1424 84.8151 78.2137C84.7999 78.229 84.7796 78.2443 84.7643 78.2595V78.2697ZM139.673 72.3459C139.581 72.3459 139.5 72.3306 139.388 72.3102C139.332 72.3 139.276 72.2899 139.21 72.2797L139.119 72.2644L139.165 72.1829C139.19 72.1371 139.21 72.0912 139.231 72.0505C139.271 71.9588 139.307 71.8773 139.378 71.8263L139.505 71.7398C139.784 71.5462 140.069 71.3476 140.379 71.1998C142.391 70.2677 144.444 69.3305 146.43 68.4289L146.776 68.271C146.887 68.2201 147.009 68.1844 147.121 68.1539C147.177 68.1386 147.228 68.1233 147.279 68.108L147.467 68.0469L147.35 68.2048C146.882 68.8415 146.313 69.2948 145.719 69.738C144.682 70.5173 143.544 71.1846 142.335 71.7194C141.654 72.0199 140.968 72.2186 140.298 72.3102C140.105 72.3357 139.901 72.3459 139.668 72.3459H139.673ZM139.317 72.1727C139.353 72.1778 139.383 72.1829 139.414 72.188C139.515 72.2084 139.596 72.2186 139.673 72.2186C139.901 72.2186 140.105 72.2084 140.287 72.1829C140.948 72.0963 141.624 71.9028 142.289 71.6022C143.488 71.0725 144.616 70.4103 145.648 69.6361C146.181 69.2337 146.694 68.8313 147.131 68.2863C147.025 68.3169 146.923 68.3474 146.826 68.3882L146.476 68.5461C144.489 69.4476 142.437 70.3849 140.425 71.317C140.125 71.4545 139.845 71.6532 139.571 71.8467L139.444 71.9333C139.403 71.9639 139.373 72.025 139.342 72.1014C139.332 72.1218 139.322 72.1421 139.312 72.1676L139.317 72.1727Z" fill="#E0C6AD"/>
<path d="M89.1387 36.201C88.7424 36.1246 88.3512 36.0533 87.9549 35.9769C87.6755 35.9259 87.5535 36.3538 87.838 36.4098C88.2343 36.4862 88.6256 36.5575 89.0219 36.6339C89.3013 36.6849 89.4233 36.257 89.1387 36.201Z" fill="#E0C6AD"/>
<path d="M89.4376 1.74314C85.0681 2.30344 82.233 6.31208 81.9485 10.5194C81.6182 15.3583 84.1993 19.8152 87.2935 23.3195C93.1364 29.9361 101.916 33.9906 110.752 33.9549C112.962 33.9448 115.243 33.6391 117.225 32.6C119.11 31.6119 120.502 29.9514 121.289 27.9802C122.981 23.7474 121.782 18.6487 119.247 15.0119C114.831 8.6755 108.13 3.68889 100.57 1.95198C98.1868 1.40187 95.7226 1.16248 93.2787 1.25925C92.044 1.31019 90.7586 1.40697 89.5544 1.71258C89.4986 1.72786 89.4427 1.73805 89.3817 1.75333C89.1023 1.82464 89.2242 2.25759 89.4986 2.18628C92.1355 1.48337 95.1027 1.56996 97.7803 1.91123C104.533 2.77714 110.64 6.20512 115.35 11.0644C116.945 12.7147 118.535 14.5127 119.658 16.5247C120.807 18.5825 121.492 20.9205 121.604 23.2788C121.701 25.3723 121.233 27.5167 120.121 29.3045C118.916 31.2452 116.996 32.4727 114.806 33.0381C112.687 33.5882 110.452 33.5882 108.282 33.4048C106.159 33.2266 104.06 32.8191 102.023 32.2027C97.9175 30.965 94.0561 28.8817 90.7789 26.1057C87.4307 23.2737 84.3466 19.6012 83.0053 15.3583C81.6436 11.0593 82.4311 5.77216 86.511 3.24066C87.4053 2.68545 88.396 2.31872 89.4376 2.18628C89.717 2.15063 89.7221 1.70239 89.4376 1.73805V1.74314Z" fill="#E0C6AD"/>
<path d="M110.63 34.2094C101.82 34.2094 93.0351 30.2059 87.1058 23.4875C83.2291 19.0968 81.4102 14.7265 81.6998 10.5039C81.9741 6.50038 84.6873 2.14027 89.3413 1.50358L89.4988 1.46792C90.7893 1.14702 92.1307 1.05534 93.2739 1.0095C95.7126 0.91272 98.187 1.14702 100.631 1.71241C107.947 3.39329 114.806 8.19144 119.46 14.8742C122.295 18.9491 123.108 24.1343 121.528 28.0819C120.695 30.1702 119.211 31.8562 117.347 32.8291C115.589 33.751 113.435 34.1993 110.757 34.2145C110.716 34.2145 110.676 34.2145 110.635 34.2145L110.63 34.2094ZM89.4582 2.44589C88.4725 2.57323 87.5275 2.9145 86.6485 3.4646C82.5483 6.01139 82.0097 11.38 83.2494 15.2868C84.7279 19.9423 88.2489 23.6352 90.9468 25.9171C94.1732 28.6422 98.0295 30.7356 102.104 31.9632C104.152 32.5795 106.245 32.9819 108.313 33.1551C110.914 33.369 112.962 33.257 114.75 32.7934C117.016 32.2077 118.8 30.9547 119.913 29.1719C120.944 27.5114 121.457 25.423 121.355 23.2939C121.249 21.0018 120.588 18.7046 119.44 16.6519C118.282 14.5788 116.63 12.7553 115.167 11.2425C110.284 6.19985 104.096 2.97562 97.7501 2.16065C94.5339 1.74807 91.7801 1.83975 89.5649 2.43061C89.5293 2.44079 89.4937 2.44589 89.4582 2.44589Z" fill="#E0C6AD"/>
<path d="M87.9133 9.81155C87.1257 12.5875 88.1419 15.5469 89.4324 18.002C90.6467 20.3094 92.3082 22.3825 94.2693 24.099C98.2375 27.5678 103.862 29.9363 109.187 29.1264C111.813 28.7291 114.267 27.3793 115.751 25.1279C117.296 22.7798 117.184 20.0293 116.02 17.5436C113.637 12.4704 108.689 8.71134 103.552 6.77578C100.61 5.66538 97.3229 4.86059 94.1576 5.16111C91.3885 5.42598 88.7516 7.03045 87.9133 9.81664C87.832 10.0917 88.2587 10.2088 88.3451 9.93379C89.1123 7.3921 91.541 5.87421 94.0763 5.61444C96.7183 5.34448 99.4213 5.88949 101.931 6.68409C106.966 8.27838 111.524 11.3549 114.496 15.7812C116.01 18.0428 117.113 20.8137 116.086 23.5082C115.162 25.9429 112.941 27.69 110.482 28.3929C105.498 29.814 99.843 27.7868 95.8241 24.7867C93.6495 23.1618 91.7848 21.1142 90.3825 18.7864C88.843 16.2244 87.4865 12.9492 88.34 9.93379C88.4163 9.65874 87.9895 9.5365 87.9082 9.81664L87.9133 9.81155Z" fill="#E0C6AD"/>
<path d="M107.048 29.5385C102.663 29.5385 97.9633 27.659 94.1069 24.287C92.1102 22.545 90.4183 20.4108 89.209 18.1187C87.5019 14.869 86.9989 12.1337 87.6695 9.74994C87.6695 9.74994 87.6695 9.73975 87.6695 9.73466C87.6695 9.73466 87.6695 9.72447 87.6695 9.71938C88.4672 7.086 91.0025 5.19628 94.1323 4.89576C96.9166 4.63089 100.031 5.16572 103.639 6.5257C109.339 8.67519 114.054 12.7501 116.244 17.426C117.55 20.2071 117.448 22.9881 115.959 25.2599C114.527 27.4399 112.068 28.9374 109.222 29.3704C108.506 29.4774 107.779 29.5334 107.043 29.5334L107.048 29.5385ZM88.5892 9.99952C87.9134 12.3935 88.5892 15.3019 90.6062 18.6484C91.973 20.9202 93.8326 22.9729 95.9817 24.5773C99.579 27.2668 105.259 29.6149 110.416 28.1428C112.972 27.4145 115.004 25.647 115.853 23.416C116.686 21.2309 116.158 18.7095 114.288 15.9234C111.509 11.7772 107.093 8.58351 101.855 6.923C98.8778 5.98069 96.3425 5.63433 94.1018 5.86354C91.4293 6.13859 89.2649 7.76344 88.5892 9.99952Z" fill="#E0C6AD"/>
<path d="M83.4477 5.74165C80.5516 8.54821 79.7082 12.674 80.4754 16.5502C81.3239 20.8645 83.9964 24.5675 87.0195 27.644C93.3654 34.0976 102.384 39.5681 111.763 37.4033C113.968 36.894 116.046 35.9211 117.631 34.2759C118.902 32.9566 120.339 31.2146 120.695 29.3606C120.751 29.0804 120.319 28.9582 120.263 29.2434C119.953 30.8683 118.744 32.3811 117.667 33.5781C116.326 35.0705 114.669 36.079 112.754 36.675C108.394 38.0299 103.608 37.4492 99.4167 35.7887C95.352 34.1791 91.7599 31.5406 88.5946 28.5609C85.5461 25.6932 82.7364 22.3467 81.4052 18.3177C80.0131 14.1104 80.4703 9.25622 83.7678 6.06255C83.9761 5.8639 83.6611 5.5481 83.4528 5.74675L83.4477 5.74165Z" fill="#E0C6AD"/>
<path d="M107.556 38.1264C102.419 38.1264 95.0318 36.1654 86.8365 27.8272C83.1326 24.058 80.9681 20.3906 80.2263 16.6061C79.388 12.358 80.5261 8.22712 83.2748 5.56827C83.3968 5.45112 83.5644 5.40527 83.727 5.45112C83.8947 5.49696 84.0319 5.63958 84.0725 5.80767C84.1132 5.97066 84.0674 6.12856 83.9404 6.25081C81.0139 9.09303 80.1349 13.6874 81.6439 18.2462C82.7718 21.6538 85.0379 24.8729 88.7672 28.3824C92.3746 31.7747 95.8905 34.1229 99.508 35.5593C104.04 37.3573 108.714 37.668 112.677 36.4405C114.598 35.8445 116.209 34.8258 117.479 33.42C118.566 32.2077 119.719 30.7611 120.014 29.2076C120.065 28.9529 120.294 28.8001 120.548 28.851C120.786 28.8969 121 29.1261 120.944 29.4266C120.563 31.4233 118.973 33.2621 117.814 34.4692C116.326 36.0177 114.308 37.0975 111.819 37.6731C110.671 37.938 109.233 38.1468 107.556 38.1468V38.1264Z" fill="#E0C6AD"/>
<path d="M80.8619 11.2017C81.2734 11.1253 81.685 11.0438 82.1016 10.9674C82.381 10.9164 82.2642 10.4835 81.9847 10.5344C81.5732 10.6108 81.1617 10.6923 80.745 10.7687C80.4656 10.8197 80.5824 11.2526 80.8619 11.2017Z" fill="#E0C6AD"/>
<path d="M80.8162 11.4611C80.679 11.4611 80.5469 11.4 80.4555 11.293C80.3386 11.1555 80.303 10.9671 80.3589 10.8041C80.4097 10.6513 80.5368 10.5494 80.6993 10.5188L81.939 10.2845C82.1067 10.254 82.2795 10.31 82.3963 10.4424C82.5132 10.5799 82.5488 10.7684 82.4929 10.9314C82.4421 11.0842 82.315 11.1861 82.1524 11.2166L80.9127 11.4509C80.8822 11.456 80.8518 11.4611 80.8213 11.4611H80.8162Z" fill="#E0C6AD"/>
<path d="M80.6577 13.0512C81.1404 12.8067 81.6485 12.6488 82.182 12.5724C82.4665 12.5316 82.3445 12.0987 82.0651 12.1394C81.491 12.2209 80.9524 12.3992 80.4342 12.6641C80.1801 12.7965 80.4037 13.1785 80.6577 13.0512Z" fill="#E0C6AD"/>
<path d="M80.5514 13.3313C80.3736 13.3313 80.2059 13.2294 80.1144 13.0562C79.9976 12.8219 80.0789 12.5571 80.3126 12.4348C80.8613 12.1547 81.4355 11.9713 82.0248 11.8847C82.3297 11.844 82.5532 12.0681 82.5888 12.3177C82.6244 12.5723 82.4669 12.7812 82.2128 12.8219C81.6895 12.8983 81.217 13.046 80.7648 13.2752C80.6937 13.3109 80.6175 13.3262 80.5463 13.3262L80.5514 13.3313Z" fill="#E0C6AD"/>
<path d="M80.5665 14.955C81.1203 14.7614 81.6792 14.5679 82.233 14.3743C82.5023 14.2826 82.3854 13.8497 82.1161 13.9414C81.5623 14.1349 81.0034 14.3285 80.4496 14.522C80.1804 14.6137 80.2972 15.0467 80.5665 14.955Z" fill="#E0C6AD"/>
<path d="M80.4956 15.2253C80.3076 15.2253 80.14 15.1081 80.0739 14.9146C79.9825 14.6497 80.1146 14.3746 80.3686 14.2881L82.0351 13.7074C82.279 13.6208 82.528 13.743 82.6143 13.9926C82.7058 14.2575 82.5737 14.5325 82.3196 14.6191L80.6531 15.1998C80.6023 15.2202 80.5464 15.2253 80.4956 15.2253ZM80.4855 14.7159L80.5718 14.9553L80.4905 14.7159H80.4855Z" fill="#E0C6AD"/>
<path d="M80.9686 16.8607C81.5478 16.5806 82.127 16.3004 82.7062 16.0203C82.9653 15.893 82.7367 15.5109 82.4826 15.6332C81.9034 15.9133 81.3242 16.1935 80.745 16.4736C80.4859 16.601 80.7145 16.983 80.9686 16.8607Z" fill="#E0C6AD"/>
<path d="M80.8666 17.1358C80.6735 17.1358 80.5007 17.0136 80.4245 16.8506C80.3128 16.6163 80.4042 16.3565 80.6329 16.2444L82.3705 15.404C82.528 15.3276 82.7109 15.3429 82.8532 15.4396C83.0005 15.5415 83.0869 15.7147 83.0767 15.8828C83.0666 16.0407 82.97 16.1782 82.8176 16.2495L81.08 17.09C81.0088 17.1256 80.9377 17.1409 80.8666 17.1409V17.1358Z" fill="#E0C6AD"/>
<path d="M81.5008 18.771C82.1207 18.3991 82.7405 18.0273 83.3604 17.6555C83.6043 17.5078 83.3807 17.1207 83.1368 17.2684C82.517 17.6402 81.8971 18.012 81.2773 18.3839C81.0334 18.5316 81.2569 18.9187 81.5008 18.771Z" fill="#E0C6AD"/>
<path d="M81.3895 19.0609C81.3133 19.0609 81.2422 19.0405 81.171 19.0049C81.0186 18.9183 80.917 18.7502 80.917 18.577C80.917 18.4089 81.0034 18.2612 81.1456 18.1695L83.0052 17.054C83.2338 16.9165 83.5133 16.9878 83.6505 17.2221C83.7927 17.4564 83.7216 17.7417 83.493 17.8792L81.6334 18.9947C81.5572 19.0405 81.4708 19.066 81.3895 19.066V19.0609ZM81.3743 18.5515L81.5064 18.7706L81.3743 18.5515Z" fill="#E0C6AD"/>
<path d="M82.4317 20.6756L84.2557 19.2494C84.4792 19.0711 84.1642 18.7604 83.9407 18.9336C83.331 19.4073 82.7263 19.8861 82.1166 20.3598C81.8931 20.5381 82.2081 20.8488 82.4317 20.6756Z" fill="#E0C6AD"/>
<path d="M82.2896 20.9865C82.1321 20.9865 81.9797 20.905 81.8882 20.7879C81.7307 20.5842 81.7612 20.3244 81.9644 20.1665L83.7884 18.7403C83.9307 18.6333 84.1136 18.6078 84.2762 18.6741C84.4439 18.7403 84.5658 18.8931 84.5861 19.0561C84.6064 19.2089 84.5455 19.3566 84.4134 19.4585L82.5944 20.8847C82.4979 20.9611 82.3963 20.9916 82.2947 20.9916L82.2896 20.9865Z" fill="#E0C6AD"/>
<path d="M83.2189 22.4072C83.9861 21.9691 84.6771 21.4292 85.2919 20.7925C85.49 20.5837 85.175 20.2679 84.9769 20.4767C84.3926 21.088 83.7321 21.6024 82.9953 22.0252C82.7464 22.1678 82.9699 22.5549 83.2189 22.4123V22.4072Z" fill="#E0C6AD"/>
<path d="M83.1075 22.6926C83.0262 22.6926 82.95 22.6722 82.8788 22.6315C82.7264 22.5449 82.6299 22.3717 82.6299 22.1985C82.6299 22.0304 82.7163 21.8878 82.8687 21.8012C83.58 21.3988 84.2253 20.8894 84.7892 20.2986C84.9061 20.1763 85.0687 20.1254 85.2313 20.1662C85.3989 20.2069 85.5412 20.3444 85.5869 20.5125C85.6326 20.6755 85.5869 20.8436 85.4701 20.9659C84.8451 21.6178 84.1287 22.1781 83.3412 22.6264C83.265 22.6671 83.1837 22.6926 83.1075 22.6926Z" fill="#E0C6AD"/>
<path d="M84.6666 24.1398C85.2559 23.5744 85.8453 23.009 86.4347 22.4385C86.643 22.2399 86.328 21.9241 86.1197 22.1227C85.5303 22.6881 84.9409 23.2535 84.3516 23.824C84.1432 24.0226 84.4583 24.3384 84.6666 24.1398Z" fill="#E0C6AD"/>
<path d="M84.5197 24.4603C84.3927 24.4603 84.2707 24.4093 84.1691 24.3075C83.9811 24.1139 83.9862 23.8287 84.1793 23.6453L85.9474 21.944C86.0694 21.8218 86.2421 21.781 86.3996 21.8269C86.5673 21.8778 86.7044 22.0154 86.7451 22.1834C86.7857 22.3464 86.7349 22.5043 86.613 22.6266L84.8449 24.3278C84.7534 24.4195 84.6366 24.4603 84.5197 24.4603Z" fill="#E0C6AD"/>
<path d="M85.922 25.9785C86.5113 25.2705 87.1007 24.5675 87.6901 23.8595C87.873 23.6405 87.558 23.3247 87.3751 23.5437C86.7857 24.2517 86.1963 24.9547 85.607 25.6627C85.424 25.8817 85.7391 26.1975 85.922 25.9785Z" fill="#E0C6AD"/>
<path d="M85.7797 26.3098C85.7797 26.3098 85.7289 26.3098 85.7035 26.3047C85.5359 26.2741 85.3885 26.1468 85.3276 25.9787C85.2666 25.8157 85.2971 25.6374 85.4139 25.4999L87.182 23.381C87.3497 23.1823 87.619 23.1619 87.8171 23.3249C88.0051 23.4828 88.0813 23.7884 87.8883 24.0228L86.1202 26.1417C86.0287 26.2486 85.9118 26.3098 85.7797 26.3098ZM85.7289 25.8157L85.922 25.9787L85.7289 25.8157Z" fill="#E0C6AD"/>
<path d="M87.522 27.4198C88.0656 26.7424 88.5585 26.0293 88.9954 25.2754C89.1377 25.0258 88.7566 24.8017 88.6093 25.0513C88.1926 25.7695 87.7252 26.4571 87.207 27.104C87.0291 27.3281 87.3441 27.6439 87.522 27.4198Z" fill="#E0C6AD"/>
<path d="M87.3747 27.7505C87.2781 27.7505 87.1765 27.7149 87.0901 27.6436C86.8971 27.4857 86.8158 27.18 87.0088 26.9406C87.5118 26.3141 87.9742 25.6367 88.3908 24.9185C88.4619 24.7962 88.5737 24.7147 88.7058 24.6893C88.8176 24.6689 88.9345 24.6893 89.0412 24.7504C89.2749 24.8879 89.3511 25.1681 89.219 25.3973C88.7871 26.141 88.2841 26.8744 87.7252 27.5722C87.6338 27.6843 87.5118 27.7454 87.3848 27.7454L87.3747 27.7505ZM87.3238 27.2564L87.522 27.4143L87.3238 27.2564Z" fill="#E0C6AD"/>
<path d="M89.0265 28.739C89.4787 27.9699 89.9309 27.2008 90.378 26.4317C90.5253 26.1821 90.1392 25.9579 89.9919 26.2075C89.5397 26.9767 89.0875 27.7458 88.6404 28.5149C88.493 28.7645 88.8792 28.9886 89.0265 28.739Z" fill="#E0C6AD"/>
<path d="M88.8484 29.1007C88.7621 29.1007 88.6808 29.0803 88.5944 29.0294C88.3607 28.8919 88.2845 28.6117 88.4216 28.3825L89.7731 26.0751C89.8595 25.9274 90.0069 25.8408 90.1694 25.8408C90.3422 25.8408 90.5099 25.9427 90.5962 26.0955C90.6775 26.2432 90.6775 26.4113 90.5861 26.559L89.2346 28.8664C89.1482 29.0192 88.9958 29.1007 88.8383 29.1007H88.8484Z" fill="#E0C6AD"/>
<path d="M90.5252 30.2314C91.2314 29.5183 91.7446 28.6983 92.2374 27.8323C92.3797 27.5828 91.9936 27.3535 91.8513 27.6082C91.3788 28.4436 90.8859 29.2331 90.2102 29.9207C90.007 30.1245 90.322 30.4403 90.5252 30.2365V30.2314Z" fill="#E0C6AD"/>
<path d="M90.3779 30.5519C90.256 30.5519 90.1391 30.506 90.0426 30.4092C89.8495 30.2157 89.8444 29.9253 90.0324 29.7369C90.7082 29.0543 91.201 28.2496 91.6329 27.4804C91.765 27.2461 92.0393 27.1748 92.273 27.3072C92.5118 27.4397 92.5931 27.7198 92.461 27.9592C91.9987 28.7844 91.4652 29.6554 90.7082 30.4143C90.6167 30.5111 90.4948 30.5569 90.3779 30.5569V30.5519ZM90.3474 30.0527L90.5303 30.231L90.3474 30.0527Z" fill="#E0C6AD"/>
<path d="M92.3341 31.7952L93.9244 29.0039C94.0667 28.7543 93.6805 28.5302 93.5382 28.7798C93.0098 29.7119 92.4814 30.6441 91.948 31.5711C91.8057 31.8207 92.1918 32.0448 92.3341 31.7952Z" fill="#E0C6AD"/>
<path d="M92.1562 32.1616C92.0749 32.1616 91.9885 32.1412 91.9123 32.0953C91.6735 31.9578 91.5973 31.6828 91.7294 31.4485L93.3197 28.6572C93.4518 28.4229 93.7262 28.3516 93.965 28.484C94.2038 28.6215 94.28 28.8966 94.1479 29.1309L92.5576 31.9222C92.4712 32.075 92.3188 32.1616 92.1562 32.1616ZM92.1156 31.6726L92.3391 31.7999L92.1206 31.6726H92.1156Z" fill="#E0C6AD"/>
<path d="M94.3962 33.2168C94.8687 32.2389 95.3412 31.2609 95.8087 30.2829C95.9306 30.0232 95.5496 29.799 95.4225 30.0588C94.95 31.0368 94.4775 32.0147 94.0101 32.9927C93.8881 33.2525 94.2692 33.4766 94.3962 33.2168Z" fill="#E0C6AD"/>
<path d="M94.2235 33.5833C94.1575 33.5833 94.0863 33.5681 94.0152 33.5324C93.7967 33.4254 93.6494 33.1504 93.7815 32.8753L95.199 29.9414C95.2702 29.7886 95.4073 29.6969 95.5648 29.6867C95.7427 29.6817 95.9103 29.7632 96.0069 29.9109C96.1034 30.0535 96.1186 30.2369 96.0424 30.3948L94.63 33.3287C94.5487 33.4917 94.3963 33.5884 94.2286 33.5884L94.2235 33.5833ZM94.1676 33.1045L94.3963 33.2166L94.1676 33.1045Z" fill="#E0C6AD"/>
<path d="M96.5663 34.637C97.0693 33.5317 97.5723 32.4264 98.0703 31.3262C98.1871 31.0664 97.8061 30.8372 97.6841 31.1021C97.1811 32.2074 96.6781 33.3127 96.1802 34.4129C96.0633 34.6727 96.4444 34.9019 96.5663 34.637Z" fill="#E0C6AD"/>
<path d="M96.4034 35.0041C96.2509 35.0041 96.0934 34.9226 95.9969 34.7901C95.8953 34.6475 95.88 34.4641 95.9512 34.3012L97.4551 30.9903C97.5262 30.8375 97.6532 30.7407 97.8107 30.7255C97.9784 30.7102 98.1512 30.7917 98.2579 30.9394C98.3595 31.082 98.3798 31.2654 98.3036 31.4284L96.7997 34.7392C96.7285 34.892 96.6015 34.9888 96.444 35.0041C96.4288 35.0041 96.4186 35.0041 96.4034 35.0041ZM96.3373 34.5304L96.571 34.6373L96.3373 34.5304Z" fill="#E0C6AD"/>
<path d="M99.0504 35.6156C99.5026 34.5103 99.9497 33.41 100.402 32.3047C100.509 32.0399 100.082 31.9227 99.97 32.1876C99.5178 33.2929 99.0707 34.3931 98.6185 35.4984C98.5118 35.7633 98.9386 35.8804 99.0504 35.6156Z" fill="#E0C6AD"/>
<path d="M98.8269 36.0176C98.6745 36.0176 98.5272 35.9514 98.4357 35.8343C98.3392 35.712 98.3239 35.5541 98.3849 35.3962L99.7364 32.0854C99.8024 31.9224 99.9498 31.8103 100.128 31.7849C100.305 31.7645 100.483 31.8307 100.585 31.9632C100.681 32.0854 100.697 32.2433 100.636 32.4012L99.2842 35.712C99.2182 35.875 99.0708 35.9922 98.893 36.0125C98.8727 36.0125 98.8473 36.0125 98.8218 36.0125L98.8269 36.0176Z" fill="#E0C6AD"/>
<path d="M101.744 36.5583C102.146 35.3359 102.547 34.1185 102.948 32.896C103.04 32.621 102.608 32.5038 102.517 32.7789C102.115 34.0013 101.714 35.2187 101.312 36.4412C101.221 36.7162 101.653 36.8334 101.744 36.5583Z" fill="#E0C6AD"/>
<path d="M101.531 36.9705C101.48 36.9705 101.424 36.9603 101.368 36.945C101.119 36.8635 100.987 36.6139 101.073 36.3643L102.277 32.702C102.333 32.539 102.465 32.4168 102.628 32.3811C102.801 32.3455 102.989 32.4066 103.101 32.534C103.207 32.6562 103.243 32.8192 103.187 32.9822L101.983 36.6445C101.917 36.8482 101.729 36.9756 101.526 36.9756L101.531 36.9705Z" fill="#E0C6AD"/>
<path d="M104.329 37.1482C104.634 35.9563 104.939 34.7644 105.244 33.5725C105.315 33.2924 104.883 33.1752 104.812 33.4554C104.507 34.6473 104.202 35.8392 103.898 37.0311C103.826 37.3112 104.258 37.4284 104.329 37.1482Z" fill="#E0C6AD"/>
<path d="M104.132 37.5659C104.091 37.5659 104.045 37.5608 104.005 37.5507C103.74 37.4844 103.588 37.2349 103.654 36.97L104.569 33.3943C104.635 33.1345 104.884 32.9919 105.143 33.0581C105.407 33.1243 105.559 33.3739 105.493 33.6388L104.579 37.2145C104.523 37.4284 104.345 37.5659 104.132 37.5659ZM104.086 37.0871L104.33 37.1483L104.086 37.0871Z" fill="#E0C6AD"/>
<path d="M107.114 37.5811C107.317 36.3281 107.52 35.075 107.724 33.8169C107.769 33.5368 107.338 33.4145 107.292 33.6998C107.089 34.9528 106.885 36.2058 106.682 37.4639C106.636 37.7441 107.068 37.8663 107.114 37.5811Z" fill="#E0C6AD"/>
<path d="M106.936 37.9991C106.91 37.9991 106.88 37.9991 106.855 37.9941C106.611 37.9533 106.387 37.7292 106.438 37.4236L107.048 33.6594C107.088 33.4047 107.307 33.2519 107.561 33.2927C107.805 33.3334 108.028 33.5575 107.977 33.8632L107.368 37.6273C107.332 37.8565 107.154 38.0042 106.936 38.0042V37.9991ZM106.865 37.5407L107.114 37.5815L106.865 37.5407Z" fill="#E0C6AD"/>
<path d="M109.685 37.4131C109.873 36.3536 110.061 35.2992 110.249 34.2398C110.3 33.9596 109.868 33.8374 109.817 34.1226C109.629 35.1821 109.441 36.2365 109.253 37.2959C109.202 37.5761 109.634 37.6983 109.685 37.4131Z" fill="#E0C6AD"/>
<path d="M109.502 37.831C109.471 37.831 109.446 37.831 109.415 37.8259C109.171 37.7851 108.953 37.5559 109.009 37.2554L109.573 34.0821C109.619 33.8274 109.842 33.6695 110.096 33.7205C110.34 33.7612 110.558 33.9904 110.503 34.291L109.939 37.4643C109.898 37.6884 109.72 37.8361 109.502 37.8361V37.831ZM109.441 37.3726L109.69 37.4184L109.441 37.3726Z" fill="#E0C6AD"/>
<path d="M112.535 36.8834C112.632 35.8545 112.723 34.8307 112.82 33.8018C112.845 33.5166 112.398 33.5166 112.372 33.8018C112.276 34.8307 112.184 35.8545 112.088 36.8834C112.063 37.1687 112.51 37.1687 112.535 36.8834Z" fill="#E0C6AD"/>
<path d="M112.296 37.3525C112.195 37.3525 112.098 37.3219 112.022 37.2659C111.895 37.1742 111.829 37.0265 111.844 36.8584L112.128 33.7768C112.159 33.4712 112.423 33.3082 112.672 33.3337C112.926 33.3591 113.104 33.568 113.079 33.8226L112.794 36.8992C112.779 37.0774 112.672 37.2251 112.515 37.2965C112.443 37.327 112.372 37.3423 112.296 37.3423V37.3525Z" fill="#E0C6AD"/>
<path d="M115.426 35.7115C115.492 34.8813 115.558 34.051 115.624 33.2208C115.645 32.9355 115.203 32.9355 115.177 33.2208C115.111 34.051 115.045 34.8813 114.979 35.7115C114.959 35.9968 115.401 35.9968 115.426 35.7115Z" fill="#E0C6AD"/>
<path d="M115.182 36.1805C115.182 36.1805 115.157 36.1805 115.142 36.1805C114.883 36.1602 114.705 35.9513 114.725 35.6916L114.923 33.2008C114.939 33.0276 115.04 32.8748 115.198 32.8035C115.355 32.7271 115.553 32.7373 115.691 32.8341C115.823 32.9257 115.889 33.0735 115.879 33.2415L115.68 35.7323C115.66 36.0226 115.416 36.1805 115.188 36.1805H115.182Z" fill="#E0C6AD"/>
<path d="M117.901 33.8323C117.855 33.3128 117.815 32.7882 117.769 32.2686C117.744 31.9834 117.302 31.9834 117.322 32.2686C117.368 32.7882 117.408 33.3128 117.454 33.8323C117.479 34.1176 117.922 34.1176 117.901 33.8323Z" fill="#E0C6AD"/>
<path d="M117.698 34.3008C117.622 34.3008 117.545 34.2855 117.479 34.2499C117.322 34.1734 117.22 34.0257 117.205 33.8526L117.073 32.2888C117.053 32.0341 117.23 31.8202 117.489 31.7998C117.733 31.7846 118.003 31.9425 118.028 32.2481L118.155 33.8118C118.17 33.9799 118.104 34.1276 117.972 34.2193C117.891 34.2753 117.794 34.3008 117.698 34.3008ZM117.652 33.8526L117.906 33.8322L117.652 33.8526Z" fill="#E0C6AD"/>
<path d="M80.8258 28.0206C82.8378 28.2803 84.6364 29.4621 85.8304 31.0818C87.1463 32.8646 87.6645 35.1108 87.5629 37.3062C87.3546 41.7834 84.6567 45.787 81.6285 48.9093C75.9939 54.7109 67.7427 58.2713 59.6235 57.9097C57.5404 57.818 55.3861 57.3901 53.6434 56.1779C51.921 54.9809 50.8286 53.1014 50.3561 51.0792C49.8633 48.9756 50.0818 46.7497 50.6965 44.6919C51.3621 42.4558 52.5714 40.561 54.0397 38.7731C58.399 33.4656 64.2369 29.4162 71.0249 28.0511C74.1953 27.4144 77.4521 27.3635 80.6225 27.9798C80.6682 27.99 80.7191 28.0002 80.7648 28.0155C81.0442 28.0919 81.1611 27.6589 80.8816 27.5825C78.077 26.8338 74.9117 26.9713 72.0817 27.4093C65.121 28.4892 58.9833 32.3705 54.4005 37.6525C52.9067 39.3742 51.545 41.1824 50.6965 43.3217C49.8887 45.3693 49.4568 47.6665 49.7007 49.872C49.9141 51.8432 50.6508 53.7788 51.9667 55.2763C53.369 56.8706 55.3556 57.7467 57.4083 58.1134C61.5187 58.8469 66.005 58.1185 69.9223 56.784C73.8955 55.4291 77.5893 53.2643 80.6886 50.4323C83.9149 47.4882 86.8872 43.6375 87.7611 39.2672C88.5892 35.1414 87.2936 30.4553 83.3865 28.3822C82.5837 27.9544 81.72 27.6895 80.8207 27.5723C80.5361 27.5367 80.5412 27.9849 80.8207 28.0206H80.8258Z" fill="#E0C6AD"/>
<path d="M60.8533 58.6637C59.705 58.6637 58.5314 58.572 57.3628 58.3632C55.0154 57.9455 53.0847 56.9319 51.7739 55.4395C50.4884 53.9725 49.6806 52.0573 49.4469 49.8925C49.2182 47.7889 49.5688 45.4815 50.463 43.2251C51.3776 40.9177 52.8713 39.0279 54.2127 37.4795C59.1055 31.8409 65.4413 28.1735 72.0463 27.1497C75.4962 26.6149 78.4888 26.6709 80.9377 27.3229C81.8574 27.4502 82.7211 27.7253 83.5137 28.1481C87.7206 30.3841 88.8079 35.3657 88.0204 39.3132C87.055 44.147 83.595 48.1302 80.8666 50.6209C77.7724 53.4479 74.0177 55.6585 70.0089 57.0236C67.6311 57.8334 64.3489 58.6586 60.8584 58.6586L60.8533 58.6637ZM76.0551 27.7915C74.4089 27.7915 72.7424 27.9596 71.0708 28.2958C64.7198 29.5743 58.8972 33.2518 54.233 38.9312C52.5665 40.9635 51.5198 42.8176 50.9355 44.7633C50.275 46.9688 50.1582 49.1336 50.6002 51.0182C51.0931 53.1219 52.221 54.8792 53.7859 55.9641C55.2593 56.9879 57.1748 57.538 59.6339 57.6501C67.5244 58.0066 75.6791 54.6601 81.4458 48.7261C85.1599 44.9008 87.1363 41.0552 87.3091 37.291C87.4158 34.9938 86.8162 32.8443 85.6273 31.2297C84.4181 29.5895 82.6601 28.5148 80.8056 28.2703C80.7701 28.2703 80.7345 28.2652 80.6989 28.255C80.6481 28.2397 80.6126 28.2296 80.5719 28.2245C79.0883 27.9392 77.5793 27.7915 76.0551 27.7915Z" fill="#E0C6AD"/>
<path d="M81.8627 35.4064C82.6045 38.0194 81.5833 40.8208 80.3385 43.1079C79.236 45.1402 77.7676 46.9688 76.0401 48.502C72.4633 51.6854 67.4587 53.8604 62.6116 53.3918C60.0661 53.1422 57.6019 51.9707 56.1284 49.8161C54.5737 47.5444 54.7617 44.8855 55.9913 42.5017C58.2979 38.0245 62.6319 34.6576 67.2656 32.8749C69.8873 31.8663 72.7427 31.1379 75.5676 31.2296C78.2808 31.3162 81.0244 32.6253 81.8627 35.4064C81.944 35.6814 82.3759 35.5643 82.2946 35.2892C81.5986 32.9869 79.49 31.3519 77.163 30.9444C74.5108 30.4809 71.7113 30.9902 69.1607 31.7594C64.0799 33.2874 59.4818 36.3334 56.4993 40.7852C55.0208 42.9907 53.9691 45.7005 54.8836 48.339C55.6661 50.5903 57.5561 52.3272 59.7409 53.1779C64.6896 55.1083 70.6596 53.1014 74.7598 50.1115C76.9852 48.4867 78.8956 46.4238 80.3131 44.0604C81.8373 41.5136 83.138 38.2791 82.2946 35.2892C82.2184 35.0142 81.7865 35.1313 81.8627 35.4064Z" fill="#E0C6AD"/>
<path d="M64.0445 54.1864C62.3577 54.1864 60.8589 53.8909 59.6547 53.4172C57.282 52.4902 55.4122 50.626 54.645 48.4255C53.8372 46.0978 54.391 43.4797 56.2912 40.6476C59.1466 36.3843 63.6939 33.1448 69.0948 31.5199C72.2602 30.5674 74.9124 30.2975 77.214 30.6999C79.7544 31.143 81.8426 32.9105 82.5387 35.2077C82.5387 35.2077 82.5387 35.2179 82.5387 35.223C82.5387 35.223 82.5387 35.2332 82.5387 35.2383C83.25 37.7698 82.5742 40.7852 80.5318 44.1979C79.1193 46.5511 77.1784 48.67 74.9124 50.3254C71.0306 53.1575 67.1997 54.1915 64.0445 54.1915V54.1864ZM75.0699 31.4843C72.7429 31.4843 70.2126 32.0191 67.3572 33.1193C62.4085 35.0243 58.3489 38.4931 56.2201 42.629C54.9194 45.1555 54.96 47.6615 56.342 49.6786C57.6681 51.6192 59.9646 52.8824 62.6422 53.1422C67.0625 53.5751 72.0062 51.7669 75.8777 48.3186C77.6154 46.7701 79.0431 44.9823 80.1202 42.9907C81.7257 40.0364 82.2135 37.5762 81.6241 35.4828C80.7706 32.6609 77.9355 31.5709 75.5627 31.4894C75.4001 31.4843 75.2375 31.4792 75.075 31.4792L75.0699 31.4843Z" fill="#E0C6AD"/>
<path d="M86.2471 31.7131C89.0161 34.4026 89.7325 38.3908 88.8789 42.0684C87.9695 46.0057 85.49 49.3522 82.6905 52.169C76.8374 58.0622 68.6319 63.0896 59.9996 61.317C57.8555 60.879 55.8029 60.0029 54.2532 58.4137C53.0643 57.1912 51.7128 55.5715 51.3775 53.8498C51.3216 53.5697 50.8948 53.6868 50.9456 53.967C51.2504 55.5511 52.3987 57.0028 53.4352 58.1845C54.6698 59.5903 56.1738 60.5886 57.9368 61.2101C62.1793 62.7025 66.9705 62.2186 71.1164 60.6396C75.2166 59.0759 78.8291 56.4425 82.0046 53.4475C85.0277 50.595 87.7866 47.2333 89.0263 43.1992C90.2812 39.1141 89.7122 34.4586 86.5519 31.3923C86.3436 31.1936 86.0286 31.5094 86.2369 31.7081L86.2471 31.7131Z" fill="#E0C6AD"/>
<path d="M63.4542 62.3765C61.4879 62.3765 59.5979 62.0709 57.8552 61.4597C56.0413 60.823 54.4917 59.7788 53.2469 58.3628C52.1647 57.1301 51.0113 55.6479 50.7014 54.0231C50.6455 53.7225 50.8589 53.4933 51.0977 53.4475C51.3517 53.3965 51.5804 53.5494 51.6312 53.804C51.9665 55.5358 53.3942 57.1658 54.4358 58.2354C55.7924 59.626 57.6824 60.5785 60.0501 61.0675C61.239 61.312 62.4177 61.424 63.566 61.424C71.7918 61.424 78.8084 55.7141 82.5073 51.9856C85.8504 48.6188 87.8523 45.3538 88.6296 42.0073C89.534 38.1056 88.5737 34.3262 86.0689 31.8915C85.8758 31.7081 85.8758 31.4228 86.0638 31.2242C86.2569 31.0255 86.5465 31.0205 86.7396 31.2089C89.7068 34.0919 90.6823 38.7169 89.28 43.2756C88.1978 46.8004 85.9419 50.0908 82.1872 53.6359C78.5239 57.0894 74.9369 59.463 71.2126 60.8841C68.6062 61.8774 65.9692 62.3765 63.4542 62.3765ZM86.4195 31.5247L86.2417 31.7081L86.4195 31.5247Z" fill="#E0C6AD"/>
<path d="M89.4385 38.0097C88.9457 37.7601 88.4275 37.5869 87.8787 37.5105C87.5993 37.4698 87.4773 37.9027 87.7619 37.9435C88.27 38.0148 88.7577 38.1625 89.215 38.3968C89.469 38.5292 89.6977 38.1421 89.4385 38.0097Z" fill="#E0C6AD"/>
<path d="M89.3165 38.6765C89.2453 38.6765 89.1691 38.6612 89.098 38.6255C88.6712 38.4065 88.219 38.2639 87.7211 38.1926C87.5585 38.1671 87.4315 38.0703 87.3756 37.9277C87.3146 37.7749 87.3451 37.5813 87.4569 37.4387C87.5687 37.2961 87.7363 37.2299 87.9142 37.2553C88.4781 37.3368 89.0269 37.5151 89.5553 37.78C89.789 37.8971 89.8703 38.1671 89.7534 38.4014C89.667 38.5746 89.4943 38.6765 89.3216 38.6765H89.3165ZM89.3216 38.2384L89.4384 38.0092L89.3216 38.2384Z" fill="#E0C6AD"/>
<path d="M89.4224 39.787C88.894 39.6036 88.3605 39.4202 87.8321 39.2318C87.5628 39.135 87.446 39.568 87.7153 39.6647C88.2437 39.8481 88.7771 40.0315 89.3056 40.2199C89.5748 40.3167 89.6917 39.8838 89.4224 39.787Z" fill="#E0C6AD"/>
<path d="M89.3771 40.485C89.3263 40.485 89.2704 40.4748 89.2196 40.4595L87.6293 39.9043C87.3753 39.8126 87.2432 39.5376 87.3347 39.2778C87.421 39.0282 87.67 38.906 87.9139 38.9925L89.5042 39.5477C89.6668 39.6038 89.7887 39.7413 89.8192 39.9094C89.8547 40.0826 89.7938 40.271 89.6617 40.3831C89.5804 40.4544 89.4838 40.4901 89.3771 40.4901V40.485Z" fill="#E0C6AD"/>
<path d="M89.1378 41.6458C88.584 41.3809 88.0302 41.1109 87.4764 40.8461C87.2173 40.7238 86.9937 41.1058 87.2529 41.2332C87.8067 41.498 88.3605 41.768 88.9143 42.0329C89.1734 42.1551 89.397 41.7731 89.1378 41.6458Z" fill="#E0C6AD"/>
<path d="M89.0164 42.313C88.9453 42.313 88.8741 42.2978 88.803 42.2621L87.1466 41.4624C86.9942 41.3911 86.9028 41.2536 86.8875 41.0957C86.8774 40.9276 86.9637 40.7493 87.1111 40.6525C87.2533 40.5558 87.4312 40.5405 87.5938 40.6169L89.2501 41.4166C89.4025 41.4879 89.494 41.6254 89.5092 41.7833C89.5194 41.9514 89.433 42.1297 89.2857 42.2264C89.2044 42.2825 89.1129 42.3079 89.0164 42.3079V42.313ZM89.0316 41.8801L89.1434 41.6509L89.0316 41.8801Z" fill="#E0C6AD"/>
<path d="M88.63 43.4755C88.0355 43.119 87.4462 42.7675 86.8517 42.411C86.6028 42.2632 86.3792 42.6503 86.6282 42.7981C87.2226 43.1546 87.812 43.5061 88.4064 43.8626C88.6554 44.0103 88.879 43.6232 88.63 43.4755Z" fill="#E0C6AD"/>
<path d="M88.5186 44.1525C88.4374 44.1525 88.351 44.1322 88.2748 44.0863L86.4965 43.0218C86.2678 42.8842 86.1967 42.599 86.339 42.3647C86.4762 42.1304 86.7556 42.0591 86.9842 42.1966L88.7625 43.2612C88.9912 43.3987 89.0623 43.6788 88.92 43.9182C88.8286 44.071 88.6762 44.1576 88.5186 44.1576V44.1525Z" fill="#E0C6AD"/>
<path d="M87.8318 45.3641C87.2526 44.9108 86.6734 44.4575 86.0891 43.9991C85.8655 43.8259 85.5454 44.1366 85.774 44.3149C86.3533 44.7682 86.9325 45.2215 87.5168 45.6799C87.7403 45.8531 88.0604 45.5424 87.8318 45.3641Z" fill="#E0C6AD"/>
<path d="M87.6595 45.9908C87.5579 45.9908 87.4563 45.9603 87.3597 45.8839L85.617 44.5239C85.4849 44.422 85.4239 44.2743 85.4443 44.1215C85.4646 43.9585 85.5916 43.8057 85.7542 43.7395C85.9219 43.6733 86.1048 43.6987 86.2419 43.8057L87.9847 45.1657C88.1879 45.3236 88.2184 45.5885 88.0609 45.7871C87.9643 45.9094 87.817 45.9858 87.6595 45.9858V45.9908ZM87.6747 45.5681L87.8322 45.3694L87.6747 45.5681Z" fill="#E0C6AD"/>
<path d="M86.9888 46.9539C86.2876 46.5515 85.6576 46.0625 85.0987 45.4767C84.9006 45.2679 84.5855 45.5837 84.7837 45.7925C85.368 46.4038 86.0336 46.9182 86.7652 47.341C87.0142 47.4836 87.2377 47.0965 86.9888 46.9539Z" fill="#E0C6AD"/>
<path d="M86.8768 47.6212C86.7955 47.6212 86.7142 47.6008 86.638 47.555C85.886 47.122 85.2001 46.5872 84.6006 45.9607C84.5041 45.8588 84.4532 45.7264 84.4685 45.5889C84.4787 45.4717 84.5345 45.3647 84.6209 45.2832C84.7073 45.2017 84.814 45.1508 84.9258 45.1457C85.0579 45.1355 85.1849 45.1916 85.2814 45.2934C85.82 45.8588 86.4398 46.3376 87.1156 46.7247C87.2375 46.796 87.3188 46.903 87.3442 47.0354C87.3646 47.1475 87.3442 47.2646 87.2883 47.3665C87.2274 47.4684 87.1359 47.5499 87.0292 47.5855C86.9784 47.6059 86.9276 47.611 86.8768 47.611V47.6212ZM86.8666 47.173L86.9937 46.9539L86.8666 47.173Z" fill="#E0C6AD"/>
<path d="M85.6932 48.6753C85.1293 48.1354 84.5653 47.5904 84.0064 47.0505C83.7981 46.8518 83.4831 47.1676 83.6914 47.3663C84.2554 47.9062 84.8193 48.4512 85.3782 48.9911C85.5865 49.1898 85.9016 48.874 85.6932 48.6753Z" fill="#E0C6AD"/>
<path d="M85.5253 49.3123C85.4084 49.3123 85.2916 49.2665 85.2001 49.1799L83.5133 47.5551C83.3202 47.3717 83.3202 47.0864 83.5031 46.8929C83.6962 46.6942 83.9858 46.684 84.1789 46.8725L85.8708 48.4974C86.0639 48.6807 86.0639 48.966 85.8809 49.1595C85.7844 49.2614 85.6574 49.3123 85.5304 49.3123H85.5253ZM85.5151 48.859L85.693 48.6756L85.5151 48.859Z" fill="#E0C6AD"/>
<path d="M84.4947 50.4331C83.9308 49.7607 83.3668 49.0833 82.8028 48.4109C82.6199 48.1919 82.3049 48.5077 82.4878 48.7267L84.1797 50.7489C84.3626 50.9679 84.6777 50.6521 84.4947 50.4331Z" fill="#E0C6AD"/>
<path d="M84.3217 51.0745C84.1947 51.0745 84.0728 51.0184 83.9813 50.9064L82.2894 48.8842C82.0913 48.6499 82.1675 48.3443 82.3555 48.1864C82.5536 48.0183 82.828 48.0438 82.9906 48.2424L84.6825 50.2646C84.7943 50.4021 84.8247 50.5804 84.7689 50.7434C84.7079 50.9115 84.5605 51.0388 84.3929 51.0694C84.3675 51.0694 84.3421 51.0745 84.3167 51.0745H84.3217Z" fill="#E0C6AD"/>
<path d="M82.9702 51.8072C82.4722 51.1858 82.0302 50.5338 81.6339 49.8462C81.4916 49.5966 81.1055 49.8207 81.2478 50.0703C81.6644 50.7885 82.1369 51.4711 82.6551 52.123C82.833 52.3472 83.148 52.0314 82.9702 51.8072Z" fill="#E0C6AD"/>
<path d="M82.7977 52.4541C82.6707 52.4541 82.5437 52.393 82.4573 52.281C81.9238 51.6137 81.4412 50.9108 81.0296 50.1977C80.9433 50.0449 80.9433 49.8768 81.0296 49.7291C81.116 49.5763 81.2837 49.4795 81.4615 49.4795C81.6292 49.4795 81.7714 49.5661 81.8578 49.7138C82.2541 50.3963 82.6961 51.0483 83.1737 51.6443C83.3668 51.8837 83.2855 52.1893 83.0924 52.3472C83.0061 52.4185 82.9044 52.4541 82.8079 52.4541H82.7977Z" fill="#E0C6AD"/>
<path d="M81.5978 53.1582C81.1659 52.4247 80.734 51.6861 80.3022 50.9527C80.1548 50.7031 79.7738 50.9272 79.916 51.1768C80.3479 51.9102 80.7798 52.6488 81.2116 53.3823C81.359 53.6319 81.74 53.4078 81.5978 53.1582Z" fill="#E0C6AD"/>
<path d="M81.3897 53.7435C81.2271 53.7435 81.0747 53.6569 80.9934 53.5092L79.7029 51.3037C79.5657 51.0745 79.6419 50.7943 79.8756 50.6568C80.1094 50.5192 80.3888 50.5906 80.526 50.8198L81.8165 53.0253C81.9029 53.173 81.908 53.3462 81.8267 53.4888C81.7403 53.6416 81.5726 53.7384 81.3999 53.7435H81.3897ZM81.3745 53.2851L81.593 53.1577L81.3745 53.2851Z" fill="#E0C6AD"/>
<path d="M80.0943 54.4922C79.449 53.8402 78.9765 53.0863 78.5294 52.2866C78.3871 52.0371 78.001 52.2612 78.1433 52.5108C78.6107 53.341 79.1086 54.1254 79.7793 54.808C79.9825 55.0117 80.2975 54.6959 80.0943 54.4922Z" fill="#E0C6AD"/>
<path d="M79.9263 55.1287C79.8043 55.1287 79.6926 55.0778 79.6011 54.9861C78.8796 54.2577 78.3665 53.4274 77.9244 52.6379C77.7923 52.4036 77.8736 52.1235 78.1124 51.986C78.3461 51.8535 78.6205 51.9248 78.7526 52.1591C79.1641 52.8926 79.6367 53.6617 80.2768 54.3086C80.3988 54.4309 80.4445 54.599 80.3988 54.7569C80.3531 54.925 80.2159 55.0625 80.0482 55.1083C80.0076 55.1185 79.9669 55.1236 79.9313 55.1236L79.9263 55.1287Z" fill="#E0C6AD"/>
<path d="M78.4372 56.0816C77.9292 55.1903 77.4262 54.304 76.9181 53.4126C76.7758 53.163 76.3897 53.3871 76.5319 53.6367C77.04 54.5281 77.543 55.4144 78.0511 56.3058C78.1934 56.5554 78.5795 56.3312 78.4372 56.0816Z" fill="#E0C6AD"/>
<path d="M78.2293 56.6725C78.0616 56.6725 77.9193 56.5859 77.833 56.4331L76.3138 53.7641C76.2274 53.6164 76.2274 53.4381 76.3138 53.2955C76.4002 53.1427 76.5678 53.0663 76.7457 53.0459C76.9133 53.0459 77.0556 53.1325 77.142 53.2853L78.6611 55.9543C78.7475 56.102 78.7475 56.2803 78.6611 56.4229C78.5748 56.5757 78.4071 56.6725 78.2344 56.6725H78.2293Z" fill="#E0C6AD"/>
<path d="M76.4665 57.4364L75.115 54.6349C74.9879 54.3752 74.6069 54.6044 74.7288 54.859C75.181 55.7912 75.6281 56.7284 76.0803 57.6605C76.2073 57.9203 76.5884 57.6911 76.4665 57.4364Z" fill="#E0C6AD"/>
<path d="M76.2534 58.0269C76.0858 58.0269 75.9333 57.9352 75.852 57.7671L74.5005 54.9657C74.4243 54.8078 74.4396 54.6244 74.5361 54.4818C74.6377 54.3341 74.8054 54.2475 74.9781 54.2576C75.1356 54.2678 75.2728 54.3646 75.344 54.5123L76.6955 57.3138C76.8276 57.5888 76.6802 57.8639 76.4617 57.9709C76.3957 58.0014 76.3246 58.0218 76.2534 58.0218V58.0269Z" fill="#E0C6AD"/>
<path d="M74.3888 58.7905C73.9112 57.7361 73.4285 56.6818 72.9509 55.6223C72.834 55.3625 72.4479 55.5866 72.5647 55.8464C73.0423 56.9008 73.525 57.9552 74.0026 59.0146C74.1195 59.2744 74.5056 59.0503 74.3888 58.7905Z" fill="#E0C6AD"/>
<path d="M74.1752 59.3868C74.0075 59.3868 73.85 59.2901 73.7738 59.122L72.3359 55.9538C72.2648 55.7908 72.28 55.6125 72.3817 55.4648C72.4833 55.3171 72.656 55.2356 72.8288 55.2508C72.9863 55.2661 73.1133 55.3629 73.1844 55.5157L74.6223 58.6839C74.7493 58.9641 74.5918 59.2391 74.3683 59.341C74.3022 59.3716 74.2361 59.3868 74.1752 59.3868Z" fill="#E0C6AD"/>
<path d="M72.0615 59.8351C71.6296 58.7807 71.1977 57.7263 70.7709 56.672C70.6642 56.4071 70.2324 56.5242 70.3391 56.7891C70.7709 57.8435 71.2028 58.8978 71.6296 59.9522C71.7363 60.2171 72.1682 60.0999 72.0615 59.8351Z" fill="#E0C6AD"/>
<path d="M71.8582 60.3543C71.8582 60.3543 71.8125 60.3543 71.7871 60.3543C71.6092 60.3288 71.467 60.2168 71.3958 60.0538L70.1053 56.8906C70.0088 56.6512 70.1053 56.4068 70.3492 56.31C70.5829 56.2183 70.8878 56.2896 71.0046 56.5799L72.2951 59.743C72.3561 59.8959 72.3409 60.0538 72.2443 60.1811C72.158 60.2932 72.0106 60.3645 71.8531 60.3645L71.8582 60.3543ZM71.8277 59.9315L72.0614 59.8347L71.8277 59.9315Z" fill="#E0C6AD"/>
<path d="M69.491 60.7369C69.1099 59.5705 68.7238 58.404 68.3427 57.2376C68.2513 56.9677 67.8245 57.0797 67.9109 57.3548C68.2919 58.5212 68.6781 59.6876 69.0591 60.8541C69.1506 61.124 69.5774 61.0119 69.491 60.7369Z" fill="#E0C6AD"/>
<path d="M69.2724 61.2617C69.2368 61.2617 69.2063 61.2617 69.1708 61.2515C69.0031 61.2158 68.871 61.0987 68.8202 60.9306L67.6719 57.4313C67.5906 57.1817 67.7177 56.9321 67.9666 56.8507C68.2257 56.7641 68.5001 56.8965 68.5814 57.1563L69.7297 60.6556C69.7856 60.8185 69.75 60.9815 69.6433 61.1038C69.5518 61.2057 69.4147 61.2668 69.2724 61.2668V61.2617ZM69.247 60.8135L69.4858 60.732L69.247 60.8135Z" fill="#E0C6AD"/>
<path d="M67.0158 61.3022C66.7262 60.1663 66.4315 59.0253 66.1419 57.8895C66.0708 57.6093 65.6389 57.7316 65.71 58.0066C65.9996 59.1425 66.2943 60.2835 66.5839 61.4193C66.6551 61.6995 67.0869 61.5772 67.0158 61.3022Z" fill="#E0C6AD"/>
<path d="M66.7874 61.8322C66.7417 61.8322 66.7011 61.8271 66.6604 61.8118C66.5029 61.7659 66.386 61.6437 66.3403 61.4807L65.4664 58.068C65.4258 57.8999 65.4664 57.7318 65.5884 57.6147C65.7154 57.4924 65.9034 57.4415 66.071 57.4873C66.2285 57.5332 66.3454 57.6554 66.3911 57.8184L67.265 61.2311C67.3057 61.3992 67.265 61.5673 67.1431 61.6845C67.0516 61.7761 66.9195 61.8271 66.7925 61.8271L66.7874 61.8322Z" fill="#E0C6AD"/>
<path d="M64.3545 61.7099C64.1614 60.5129 63.9633 59.3108 63.7702 58.1138C63.7245 57.8286 63.2926 57.9508 63.3383 58.231C63.5314 59.428 63.7296 60.6301 63.9226 61.8271C63.9684 62.1123 64.4002 61.9901 64.3545 61.7099Z" fill="#E0C6AD"/>
<path d="M64.1105 62.2444C64.0547 62.2444 63.9988 62.2342 63.948 62.2138C63.8006 62.1578 63.7041 62.0304 63.6736 61.8674L63.0893 58.2714C63.0385 57.9657 63.2621 57.7416 63.5059 57.7009C63.76 57.6601 63.9784 57.8129 64.0191 58.0676L64.6034 61.6637C64.6339 61.8369 64.5678 62.01 64.4306 62.1221C64.3392 62.1985 64.2223 62.2393 64.1055 62.2393L64.1105 62.2444Z" fill="#E0C6AD"/>
<path d="M61.8948 61.5518C61.7169 60.5432 61.5391 59.5296 61.3562 58.5211C61.3054 58.2358 60.8786 58.3581 60.9243 58.6382C61.1021 59.6468 61.28 60.6604 61.4629 61.6689C61.5137 61.9541 61.9405 61.8319 61.8948 61.5518Z" fill="#E0C6AD"/>
<path d="M61.6512 62.0864C61.4327 62.0864 61.2549 61.9387 61.2143 61.7146L60.6757 58.6788C60.6452 58.5057 60.7062 58.3325 60.8383 58.2204C60.9755 58.1033 61.1634 58.0676 61.326 58.1236C61.4734 58.1797 61.575 58.3019 61.6055 58.47L62.144 61.5058C62.1999 61.8063 61.9764 62.0355 61.7376 62.0763C61.7071 62.0763 61.6817 62.0813 61.6512 62.0813V62.0864Z" fill="#E0C6AD"/>
<path d="M59.192 61.159C59.1006 60.1759 59.0142 59.198 58.9228 58.2149C58.8974 57.9297 58.4502 57.9297 58.4757 58.2149C58.5671 59.198 58.6535 60.1759 58.7449 61.159C58.7703 61.4442 59.2175 61.4442 59.192 61.159Z" fill="#E0C6AD"/>
<path d="M58.9884 61.628C58.9172 61.628 58.841 61.6127 58.7699 61.5821C58.6124 61.5108 58.5057 61.358 58.4904 61.1848L58.2212 58.2407C58.1958 57.9861 58.3736 57.7721 58.6276 57.7518C58.8715 57.7314 59.1408 57.8893 59.1713 58.1949L59.4406 61.139C59.4558 61.3071 59.3898 61.4548 59.2627 61.5465C59.1814 61.6025 59.0849 61.6331 58.9884 61.6331V61.628ZM58.9376 61.1848L59.1916 61.1594L58.9376 61.1848Z" fill="#E0C6AD"/>
<path d="M56.4278 60.044C56.3668 59.2494 56.3007 58.4548 56.2398 57.6602C56.2195 57.375 55.7723 57.375 55.7927 57.6602C55.8536 58.4548 55.9197 59.2494 55.9807 60.044C56.001 60.3293 56.4481 60.3293 56.4278 60.044Z" fill="#E0C6AD"/>
<path d="M56.2249 60.513C55.9911 60.513 55.7523 60.35 55.732 60.0648L55.544 57.681C55.5288 57.5129 55.5999 57.3652 55.732 57.2735C55.8692 57.1767 56.0673 57.1665 56.2249 57.2429C56.3824 57.3193 56.484 57.4671 56.4992 57.6402L56.6872 60.0189C56.7075 60.2736 56.5297 60.4876 56.2706 60.5079C56.2553 60.5079 56.2452 60.5079 56.2299 60.5079L56.2249 60.513ZM56.174 60.0648L56.4281 60.0444L56.174 60.0648Z" fill="#E0C6AD"/>
<path d="M54.0605 58.2456C54.1011 57.7464 54.1418 57.2473 54.1824 56.7481C54.2078 56.4629 53.7607 56.4629 53.7353 56.7481C53.6946 57.2473 53.654 57.7464 53.6133 58.2456C53.5879 58.5309 54.0351 58.5309 54.0605 58.2456Z" fill="#E0C6AD"/>
<path d="M53.8217 58.7145C53.7252 58.7145 53.6287 58.6891 53.5474 58.633C53.4153 58.5414 53.3492 58.3936 53.3645 58.2256L53.4864 56.728C53.5016 56.5549 53.6033 56.4021 53.7608 56.3307C53.9233 56.2543 54.1164 56.2696 54.2536 56.3664C54.3857 56.4581 54.4518 56.6058 54.4365 56.7739L54.3146 58.2714C54.2993 58.4446 54.1977 58.5974 54.0402 58.6687C53.9691 58.6993 53.8929 58.7196 53.8217 58.7196V58.7145Z" fill="#E0C6AD"/>
</g>
<defs>
<clipPath id="clip0_109_75963">
<rect width="150.712" height="123.03" fill="white" transform="translate(0.681641 0.984375)"/>
</clipPath>
</defs>
</svg>
