<svg width="161" height="126" viewBox="0 0 161 126" fill="none" xmlns="http://www.w3.org/2000/svg">
<path d="M160.927 58.5893C160.773 58.1554 160.402 57.8596 159.971 57.835L128.703 55.8828C128.495 55.868 128.287 55.8581 128.079 55.8433C128.133 55.3651 128.183 54.8376 128.217 54.251C128.406 51.3769 128.554 48.4584 128.703 45.6336C128.777 44.199 128.852 42.7644 128.931 41.3299C129.149 37.3909 126.83 35.2119 122.035 34.8619C120.257 34.7337 118.364 34.8422 116.537 34.9457C115.045 35.0295 113.634 35.1133 112.539 35.0394C112.237 35.0197 111.93 35.0049 111.622 34.9851C111.86 34.9211 112.103 34.857 112.341 34.7929C114.832 34.1076 117.998 33.0329 120.361 30.7898C120.901 30.2771 121.654 29.4686 121.966 28.3594C122.209 27.4869 122.129 26.6291 122.02 25.8255C121.049 18.5047 119.177 13.0227 115.348 6.27371L115.268 6.31808C114.243 3.2813 111.642 0.781862 108.447 0.170561C103.607 -0.75625 99.2183 2.39885 96.3451 4.85392C91.5053 8.9802 87.2253 13.7622 83.6239 19.0568C81.8654 21.6401 80.2158 24.4698 78.7098 27.4671C78.6999 27.4868 78.1798 28.5813 77.9073 29.8877C77.5804 29.7644 77.2386 29.6806 76.8968 29.6412C75.6088 29.4982 74.4001 29.8975 73.3994 30.3264C73.1716 28.8327 72.5325 27.4869 72.5177 27.4622C71.0117 24.4649 69.3572 21.6351 67.6036 19.0519C64.0022 13.7572 59.7222 8.97527 54.8824 4.84899C52.0043 2.39392 47.6202 -0.76118 42.7755 0.165632C39.5803 0.776933 36.9796 3.27637 35.9542 6.31315L35.8749 6.26878C32.0457 13.0227 30.1732 18.5047 29.2022 25.8206C29.0982 26.6241 29.014 27.477 29.2567 28.3545C29.5688 29.4637 30.3218 30.2722 30.8617 30.7849C33.2247 33.0231 36.3901 34.0978 38.8818 34.788C39.3425 34.9161 39.8032 35.0394 40.259 35.1577C39.6001 35.1281 38.9116 35.0837 38.2032 35.0295C34.7752 34.783 29.3459 34.1569 27.1464 36.1683C25.9823 37.2332 25.378 38.8009 25.3532 40.832C25.3284 42.7645 25.2591 44.7808 25.1848 46.733C25.1006 49.0747 25.0213 51.4656 25.0114 53.8467C24.6844 53.9749 24.3575 54.1031 24.0306 54.2214C21.4744 55.163 18.4378 56.1539 15.3021 56.3215C12.5428 56.4694 10.383 56.4398 8.70866 56.2229C8.59968 56.2081 8.4263 56.1884 8.21329 56.1638C5.68688 55.8581 2.3877 54.251 0 54.4334C0.336854 54.4087 4.96364 62.4444 5.53332 63.2825C7.32161 65.9101 8.52537 68.7201 10.3979 71.254C11.6264 72.9154 17.883 70.13 19.4682 69.7061C25.0213 68.2074 30.7329 66.6594 36.2861 64.0269C35.9294 71.54 35.5827 79.2453 35.4093 86.8619C35.2854 92.1763 35.6966 97.5104 36.0929 102.677C36.4347 107.148 36.7914 111.772 36.7914 116.328C36.8409 122.189 43.5879 124.669 49.889 125.034C60.4652 125.65 71.0712 125.734 81.0282 125.768C85.5014 125.783 90.3362 125.65 96.2411 125.339C97.7619 125.261 99.4214 125.448 101.18 125.645C102.745 125.823 104.34 126 105.911 126C107.813 126 109.69 125.739 111.449 124.886C113.723 123.786 115.358 121.469 116.299 118.004C117.552 113.404 117.423 108.277 117.299 103.318C117.26 101.804 117.225 100.38 117.23 98.9844C117.235 96.5096 117.166 93.9806 117.096 91.5305C116.972 87.2415 116.849 82.8096 117.146 78.5897C117.428 74.5669 117.542 70.3667 117.488 65.8805C119.088 66.9355 120.792 67.7933 122.649 68.3602C126.281 69.4596 130.07 69.2821 133.731 69.1046C134.781 69.0553 135.871 69.0011 136.926 68.9814C142.658 68.8778 146.675 70.1251 149.206 72.7922C149.38 72.9746 149.598 73.0879 149.836 73.1175C149.92 73.1274 150.004 73.1274 150.088 73.1175C150.415 73.083 150.712 72.8907 150.906 72.5999C153.848 68.1039 157.137 63.8149 160.679 59.8562C160.981 59.5161 161.08 59.0231 160.932 58.5893H160.927ZM112.361 37.667C113.619 37.7508 115.11 37.667 116.69 37.5733C118.434 37.4747 120.237 37.3712 121.842 37.4846C125.696 37.7656 126.409 39.1706 126.295 41.1869C126.216 42.6215 126.142 44.061 126.068 45.4956C125.919 48.3105 125.765 51.2241 125.582 54.0784C125.552 54.5616 125.513 55.1137 125.458 55.6264C123.804 55.4539 122.164 55.1827 120.613 54.6454C116.304 53.1566 112.93 49.8486 109.364 46.3435C107.669 44.6822 105.921 42.9666 104.063 41.463C102.488 40.1861 100.442 38.7959 98.1483 37.5043C99.3075 37.4008 100.486 37.2627 101.705 37.0853C105.306 37.243 108.863 37.4304 112.361 37.6621V37.667ZM115.298 11.8937C117.478 16.5229 118.696 20.8365 119.405 26.1804C119.479 26.7572 119.534 27.265 119.425 27.6594C119.321 28.0291 119.038 28.4235 118.538 28.8968C116.601 30.7356 113.832 31.6624 111.637 32.2688C104.657 34.1914 98.5991 35.1232 93.2045 35.0985C89.8755 33.7182 86.3683 32.7815 83.1731 32.7914C84.5057 32.5695 85.8729 32.466 87.2402 32.4808C94.7748 30.0109 101.106 25.8994 108.244 20.3731C111.3 18.0068 114.213 15.3496 115.298 11.8987V11.8937ZM113.059 9.85771C112.643 13.2149 109.72 15.8968 106.624 18.2927C100.789 22.8084 95.5327 26.3431 89.7022 28.7588C94.6262 19.4906 103.161 12.0268 113.054 8.43792C113.114 8.90625 113.118 9.37952 113.064 9.85278L113.059 9.85771ZM81.0678 28.6503C82.5193 25.7565 84.1144 23.0253 85.8085 20.5358C89.2761 15.4334 93.3977 10.8289 98.0591 6.85544C101.973 3.51793 105.113 2.21645 107.947 2.75873C109.74 3.10382 111.291 4.35107 112.212 5.95327C100.799 10.0746 91.0743 19.0519 86.1157 30.075H86.1206C84.2927 30.6666 82.3954 31.1547 80.3892 31.5293C80.3842 31.5293 80.3792 31.5293 80.3743 31.5293C80.3049 30.9082 80.6765 29.4194 81.0629 28.6454L81.0678 28.6503ZM74.3605 32.7864C75.1976 32.4216 75.9209 32.185 76.5946 32.2639C77.1593 32.328 77.7092 32.7174 78.0609 33.3041C78.16 33.4668 78.2293 33.6344 78.2838 33.8069C78.2194 33.8661 78.1649 33.9302 78.1154 33.9992C76.8968 33.9992 75.6732 34.009 74.4447 34.0189C74.3555 33.6147 74.3258 33.2005 74.3605 32.7864ZM68.4606 38.9882C69.2482 38.4015 70.3826 37.5536 71.2099 36.9965C70.4272 43.8441 69.7981 50.7163 69.3324 57.6033C62.7687 57.7117 56.2149 57.8005 49.7949 57.8843C48.4029 57.904 47.006 57.9237 45.614 57.9435C47.541 56.2427 49.2748 54.4334 50.9739 52.6537C52.9058 50.6325 54.9072 48.5422 57.171 46.6294C59.9352 44.2927 63.1749 42.3701 65.9936 40.7481C66.4692 40.477 67.2419 39.9051 68.4606 38.9931V38.9882ZM43.2758 2.75873C43.687 2.67985 44.108 2.64041 44.534 2.64041C47.0406 2.64041 49.8197 4.00598 53.1634 6.85544C57.8249 10.8289 61.9464 15.4334 65.414 20.5358C67.1082 23.0253 68.6983 25.7565 70.1547 28.6503C70.5411 29.4243 70.9127 30.9131 70.8433 31.5343C70.8384 31.5343 70.8334 31.5343 70.8284 31.5343C68.9064 31.1744 67.0091 30.7208 65.0574 30.0997L65.1019 30.08C60.1432 19.0519 50.4191 10.0796 39.0057 5.9582C39.9271 4.356 41.4726 3.10875 43.2708 2.76366L43.2758 2.75873ZM38.1735 8.44285C48.076 12.0367 56.6211 19.5104 61.5452 28.7982C56.849 26.8312 51.5634 23.6859 44.6034 18.2927C41.5073 15.8968 38.5846 13.2149 38.1685 9.85771C38.1091 9.38445 38.119 8.91118 38.1784 8.44285H38.1735ZM39.5853 32.2639C37.3908 31.6575 34.6216 30.7307 32.6847 28.8919C32.1844 28.4186 31.902 28.0242 31.803 27.6594C31.694 27.265 31.7435 26.7523 31.8228 26.1804C32.5312 20.8414 33.7498 16.5229 35.9294 11.8937C37.0192 15.3446 39.9271 18.0018 42.9835 20.3681C51.4445 26.9199 58.7562 31.4899 68.307 33.6837C67.5491 33.9055 66.7713 34.0978 65.9837 34.2703C64.8889 34.3985 63.8041 34.5858 62.739 34.8175C56.2149 35.6063 48.6754 34.7682 39.5902 32.2639H39.5853ZM27.8202 46.8316C27.8895 44.8646 27.9638 42.8335 27.9886 40.8714C28.0034 39.5748 28.3106 38.6727 28.9298 38.1107C30.2871 36.8684 35.1418 37.455 38.01 37.6571C39.4268 37.7607 40.8931 37.8642 42.2008 37.7902C45.0988 37.6275 48.1156 37.4599 51.1572 37.312C52.2619 37.4451 53.3368 37.5437 54.392 37.6128C50.2259 39.4664 46.1291 41.8869 41.8888 44.5195C41.3637 44.8448 40.8386 45.1751 40.3135 45.5005C36.2019 48.064 31.9763 50.6867 27.6567 52.6981C27.6815 50.736 27.7508 48.7641 27.8202 46.8266V46.8316ZM18.8489 67.4433C16.4464 68.094 13.9794 68.7595 11.5026 69.5187C11.1558 68.3257 10.1898 66.2552 7.72782 62.4493C6.7024 60.8669 5.63239 59.3189 4.72586 58.0618C5.57295 58.1899 6.62314 58.3329 7.92597 58.4907C8.13403 58.5153 8.29255 58.535 8.40153 58.5498C10.2195 58.7865 12.5181 58.8259 15.4259 58.6681C18.8787 58.4808 22.1234 57.4307 24.843 56.4251C30.6537 54.2806 36.1969 50.8297 41.5569 47.4922C42.0819 47.1668 42.607 46.8414 43.1321 46.5161C51.4792 41.3397 59.2169 36.9867 67.9553 36.4542C67.6779 36.6613 67.3757 36.8831 67.0537 37.1247C66.1422 37.805 65.1961 38.51 64.8196 38.7269C61.9117 40.3981 58.563 42.3898 55.6502 44.8547C53.2922 46.8513 51.2463 48.9859 49.2698 51.0515C45.936 54.5369 42.7854 57.8301 38.3419 60.3394C32.0506 63.8888 25.6356 65.6241 18.844 67.4581L18.8489 67.4433ZM50.0426 122.406C48.9627 122.342 39.4763 121.637 39.4317 116.313C39.4317 111.669 39.0701 106.995 38.7233 102.47C38.332 97.3724 37.9258 92.0974 38.0447 86.9162C38.2329 78.8263 38.6143 70.6132 38.9908 62.6416C39.1592 62.5479 39.3326 62.4592 39.5011 62.3606C40.472 61.8134 41.3835 61.2267 42.2504 60.6154C44.7768 60.5809 47.3032 60.5415 49.8296 60.5119C56.1852 60.4281 62.6697 60.3394 69.169 60.2358C67.8859 81.1581 68.0742 102.194 69.7485 123.057C63.274 122.968 56.6459 122.796 50.0376 122.411L50.0426 122.406ZM80.4585 123.136C77.8132 123.126 75.1233 123.111 72.3988 123.082C70.7145 102.194 72.0025 57.554 71.9827 57.554C72.4582 50.5684 73.1022 43.5927 73.9047 36.6465C75.7475 36.6268 77.5853 36.6169 79.4034 36.6169C79.9037 43.5236 80.3049 50.455 80.6022 57.3962C80.4783 57.3962 81.4592 102.189 80.4536 123.136H80.4585ZM114.505 78.4023C114.198 82.7554 114.327 87.2514 114.451 91.6044C114.52 94.0299 114.59 96.5392 114.585 98.9746C114.585 100.404 114.619 101.849 114.654 103.382C114.773 108.154 114.897 113.084 113.748 117.314C113.014 120.015 111.85 121.765 110.29 122.52C107.763 123.742 104.563 123.382 101.472 123.032C99.9812 122.865 98.4505 122.692 96.9742 122.692C96.677 122.692 96.3848 122.697 96.0974 122.712C91.1437 122.973 86.9528 123.111 83.0988 123.136C84.0995 102.174 84.1788 81.0299 83.3465 59.9844C89.1523 59.9302 95.0324 60.1767 100.734 60.4232C101.705 60.4626 102.671 60.507 103.642 60.5464C106.258 60.6549 108.794 60.6647 111.33 60.6401C112.45 61.7789 113.599 62.8782 114.808 63.8839C114.922 69.075 114.823 73.857 114.505 78.4122V78.4023ZM82.1576 38.2388C83.6487 39.1016 85.1844 39.8756 86.6903 40.6348C88.8055 41.6996 90.9951 42.799 92.9617 44.1103C97.5885 47.1865 101.908 50.7853 105.802 54.8031C106.634 55.6609 107.476 56.568 108.294 57.4406C108.477 57.6329 108.655 57.8301 108.838 58.0223C107.159 58.0223 105.47 57.9878 103.751 57.9188C102.785 57.8794 101.814 57.8399 100.848 57.7956C95.0819 57.5491 89.1424 57.3026 83.2425 57.3568C82.9651 50.9726 82.6035 44.5984 82.1576 38.2388ZM149.811 70.1448C147.715 68.375 144.981 67.2707 141.538 66.8172C140.121 66.6298 138.591 66.551 136.931 66.5805C135.846 66.6003 134.742 66.6545 133.676 66.7038C130.026 66.8763 126.583 67.0439 123.293 66.0432C118.023 64.4459 113.891 60.0091 109.894 55.7201C109.071 54.8376 108.219 53.9207 107.372 53.0481C103.37 48.9169 98.926 45.2195 94.1704 42.0595C92.0948 40.6791 89.8458 39.5502 87.6761 38.4558C85.7045 37.4649 83.6883 36.4493 81.8158 35.2514C88.3647 34.5415 97.5885 39.2692 102.706 43.4053C104.479 44.8399 106.193 46.521 107.848 48.1478C111.429 51.6628 115.135 55.3011 119.895 56.9476C122.724 57.9287 125.676 58.1111 128.53 58.2885L157.449 60.0929C154.73 63.2775 152.174 66.6446 149.821 70.1497L149.811 70.1448Z" fill="#E0C6AD"/>
</svg>
