<?xml version="1.0" encoding="utf-8"?><svg viewBox="0 0 502.66 502.66" xmlns="http://www.w3.org/2000/svg" xmlns:xlink="http://www.w3.org/1999/xlink"><style>:root>svg{display:none}:root>svg:target{display:block}</style><svg viewBox="0 0 96 129" id="boll" xmlns="http://www.w3.org/2000/svg"><g clip-path="url(#aa)"><path d="M58.137 82.948c0-.18-3.29-.33-7.297-.349 1.585-1.6 2.796-2.934 2.721-3.008-.074-.075-1.404 1.133-3.014 2.715-.02-3.998-.163-7.28-.35-7.28-.187 0-.33 3.282-.35 7.274-1.629-1.607-2.94-2.79-3.014-2.715-.075.074 1.11 1.382 2.721 3.008-4.076.012-7.29.162-7.29.349 0 .186 3.22.336 7.29.348-1.61 1.626-2.796 2.934-2.721 3.009.075.074 1.385-1.11 3.014-2.716.013 4.067.163 7.275.35 7.275.187 0 .337-3.214.35-7.275 1.604 1.582 2.94 2.79 3.015 2.716.074-.075-1.137-1.402-2.722-3.009 4.007-.018 7.297-.162 7.297-.349v.007Zm-29.261-54.89c0-.13-2.403-.242-5.33-.255 1.154-1.17 2.04-2.142 1.99-2.198-.05-.056-1.03.828-2.203 1.986-.012-2.92-.119-5.319-.256-5.319s-.243 2.398-.256 5.313c-1.192-1.17-2.147-2.037-2.203-1.98-.056.056.811 1.009 1.985 2.198-2.978.006-5.325.119-5.325.255 0 .137 2.354.243 5.325.256-1.174 1.19-2.042 2.142-1.985 2.198.056.056 1.01-.81 2.203-1.98.006 2.97.119 5.313.256 5.313s.243-2.348.256-5.313c1.173 1.152 2.147 2.037 2.203 1.987.056-.05-.83-1.028-1.99-2.199 2.927-.012 5.33-.118 5.33-.255v-.007Zm45.396 37.295c-3.183 0-3.183 4.932 0 4.932 3.184 0 3.184-4.932 0-4.932Zm-6.885-2.33c-1.504 0-1.51 2.336 0 2.336s1.51-2.336 0-2.336ZM47.52 40.446c-2.004 0-2.01 3.108 0 3.108s2.01-3.108 0-3.108Zm31.29-5.231.893 5.848 3.645.542-3.576.916-.718 6.265-.837-6.178-3.945-1.003 3.877-.58.661-5.81ZM34.98 58.303c0-.218-3.951-.399-8.77-.417 1.904-1.925 3.364-3.526 3.277-3.619-.087-.087-1.692 1.364-3.627 3.27-.018-4.808-.2-8.75-.418-8.75-.218 0-.4 3.942-.418 8.75-1.96-1.93-3.533-3.357-3.627-3.264-.087.087 1.336 1.663 3.271 3.619-4.9.012-8.77.193-8.77.417 0 .224 3.87.405 8.77.418-1.935 1.955-3.364 3.525-3.27 3.618.093.093 1.666-1.333 3.626-3.264.012 4.89.194 8.751.418 8.751.225 0 .406-3.861.418-8.75 1.93 1.9 3.533 3.356 3.627 3.263.094-.093-1.367-1.688-3.277-3.618 4.819-.02 8.77-.2 8.77-.418v-.006Zm13.464-38.236c0-.094-1.71-.175-3.79-.18.825-.835 1.455-1.527 1.418-1.564-.038-.038-.73.591-1.567 1.414-.006-2.074-.087-3.78-.18-3.78-.095 0-.17 1.706-.182 3.78-.849-.835-1.53-1.452-1.567-1.408-.037.037.58.716 1.411 1.563-2.116.007-3.789.088-3.789.18 0 .094 1.673.175 3.79.182-.837.847-1.455 1.525-1.412 1.563.038.037.718-.58 1.567-1.408.006 2.112.087 3.78.181 3.78s.175-1.668.181-3.78c.837.822 1.53 1.451 1.567 1.414.037-.037-.593-.729-1.417-1.563 2.078-.006 3.789-.087 3.789-.18v-.013Z"/><path d="M70.59 43.392c-.544-3.849-2.123-7.212-4.72-10.102-.1-.112-.193-.23-.305-.318-.069-.05-.175-.05-.262-.075-.013.1-.031.206-.025.306 0 .056.062.112.093.168 1.867 3.394 2.597 7.025 2.154 10.874-.381 3.339-1.61 6.347-3.745 8.957-5.312 6.508-14.475 7.486-21.017 2.242-4.993-4.005-7.16-10.514-6.198-16.505a17.48 17.48 0 0 1 1.667-5.182c.08-.156.193-.318-.019-.554-.156.155-.312.274-.43.423-3.958 4.734-5.437 10.146-4.17 16.175 2.166 10.326 12.371 16.742 22.67 14.356 9.394-2.173 15.642-11.254 14.306-20.777v.012ZM65.64 24.04l-.112-.036c-.343-.113-.343.523 0 .41l.112-.037a.175.175 0 0 0 0-.336Zm-31.553 2.642c-.524 0-1.03.46-1.005 1.002.025.542.443 1.003 1.005 1.003.524 0 1.03-.46 1.005-1.003-.025-.542-.443-1.002-1.005-1.002Zm-8.114 8.893c-.6 0-1.174.53-1.149 1.146.025.623.506 1.146 1.148 1.146.6 0 1.174-.53 1.149-1.146-.025-.623-.506-1.146-1.148-1.146Zm2.884.685c-.35 0-.512.362-.375.655a.186.186 0 0 0 .025.05c.125.267.574.267.705 0a.19.19 0 0 1 .026-.05c.137-.287-.026-.654-.375-.654h-.006Zm28.887-23.692c-.693 0-1.361.61-1.33 1.327.031.716.58 1.327 1.33 1.327.693 0 1.36-.61 1.33-1.327-.032-.716-.581-1.327-1.33-1.327Zm-.324 17.315c-.1-.038-.194-.038-.294-.05-.275-.025-.275.455 0 .43a.934.934 0 0 0 .293-.05.173.173 0 0 0 0-.33Zm14.393-1.825c-.799 0-.799 1.239 0 1.239s.799-1.24 0-1.24Zm13.264 25.654s-.031.02-.044.032a.332.332 0 0 0 0 .566c.013.013.031.02.044.032.23.162.55-.056.55-.312 0-.255-.313-.473-.55-.311v-.007Zm-.281 5.575s-.044-.025-.062-.037a.602.602 0 0 0-.606 0 .544.544 0 0 1-.062.037c-.362.237-.35.716 0 .953l.062.044c.175.118.43.1.606 0 .018-.013.043-.025.062-.038.368-.212.356-.74 0-.959Zm-48.78 8.558c-.605 0-.612.94 0 .94s.612-.94 0-.94Zm4.981.441c-.668 0-1.304.586-1.273 1.27.031.692.562 1.271 1.273 1.271.668 0 1.305-.585 1.273-1.27-.03-.692-.561-1.27-1.273-1.27Zm-5.063 2.673c-.062.031-.13.062-.193.093-.28.131-.28.604 0 .735l.193.094c.356.168.806-.031.806-.461 0-.43-.45-.63-.806-.461Zm-17.039-5.575c-.412 0-.412.641 0 .641s.412-.641 0-.641Z"/><path d="M60.559 46.923c-.181-.05-.294-.068-.462.032a.28.28 0 0 0 0 .48c.162.099.28.074.462.024.262-.069.262-.467 0-.536Zm-2.566 2.66c-.443 0-.443.685 0 .685.444 0 .444-.685 0-.685Zm-.867-3.898c-.661 0-.661 1.027 0 1.027.662 0 .662-1.027 0-1.027Zm-34.174 1.438c-.25-.25-.643-.112-.75.2-.13.367.325.703.662.504a.455.455 0 0 0 .094-.704h-.006Zm-3.184-4.89c-.468 0-.468.73 0 .73s.468-.73 0-.73Zm56.409 10.103c-.58 0-.58.897 0 .897s.58-.897 0-.897Zm8.525 15.414a.356.356 0 0 0-.368 0c-.218.169-.237.306-.268.561-.069.58.967.58.899 0-.032-.261-.05-.399-.269-.56h.006ZM54.76 70.622c-.549 0-.549.853 0 .853.55 0 .55-.853 0-.853Z"/><path d="M95.981 47.204c-.018-1.308-.087-2.628-.262-3.924a48.091 48.091 0 0 0-.849-4.503 69.324 69.324 0 0 0-1.33-4.87c-.592-1.875-1.329-3.694-2.146-5.488a48.284 48.284 0 0 0-3.958-7.087 51.496 51.496 0 0 0-4.063-5.25c-2.26-2.58-4.781-4.846-7.51-6.908-1.922-1.451-3.981-2.684-6.097-3.837-2.422-1.32-4.969-2.354-7.584-3.176A42.447 42.447 0 0 0 57.095.897C54.754.473 52.395.18 50.029.08c-1.842-.081-3.72-.162-5.537.075-1.885.242-3.807.236-5.655.79-1.074.318-2.216.412-3.29.723-2.184.635-4.344 1.37-6.428 2.298a45.938 45.938 0 0 0-5.537 2.915 48.08 48.08 0 0 0-11.398 9.79 51.124 51.124 0 0 0-5.992 8.69c-1.192 2.192-2.29 4.434-3.07 6.813-.519 1.57-1.056 3.133-1.486 4.721-.5 1.831-.83 3.706-1.13 5.587-.281 1.77-.406 3.532-.468 5.307a82.466 82.466 0 0 0 0 4.97c.03 1.215.05 2.448.256 3.644.387 2.242.749 4.484 1.342 6.69.617 2.291 1.348 4.546 2.278 6.72a47.204 47.204 0 0 0 3.314 6.377 47.814 47.814 0 0 0 5.162 6.876 46.899 46.899 0 0 0 6.642 6.035c.493.368.992.723 1.548 1.128-.281.342-.493.598-.706.865-.543.68-.948 1.44-.767 2.324.305 1.526.942 2.896 2.047 4.03 1.323 1.357 2.877 2.385 4.569 3.226.262.13.468.367.836.672-.243.156-.33.2-.4.256-1.54 1.276-1.56 3.039-.043 4.316.119.099.262.168.38.274.294.249.313.529.032.785-.137.124-.312.199-.474.292-.431.256-.868.505-1.286.773-1.954 1.252-3.745 2.715-5.443 4.279-1.055.971-2.004 2.055-2.984 3.107-.574.617-1.042 1.358-1.697 1.863-.643.498-1.099 1.102-1.523 1.75-.487.741-.394 1.451.224 2.13.949 1.028 2.147 1.706 3.377 2.323.974.492 1.979.928 2.99 1.339 1.074.43 2.16.816 3.258 1.183.768.256 1.555.468 2.335.673 1.055.274 2.11.579 3.183.772 1.504.268 3.034.424 4.544.673 1.979.33 3.97.498 5.974.517.343 0 .693 0 1.036.019 1.498.093 2.99.23 4.488.274 1.154.031 2.31-.063 3.464-.1.125 0 .25 0 .374.019 1.623.236 3.246.112 4.87 0 1.091-.069 2.184-.2 3.276-.2 3.327-.006 6.604-.473 9.875-1.015 2.809-.467 5.574-1.127 8.239-2.124 1.486-.554 2.921-1.233 4.382-1.868a13.513 13.513 0 0 0 3.47-2.211c.843-.735.962-1.638.368-2.585-.386-.616-.836-1.152-1.46-1.557-.33-.218-.568-.567-.837-.872-.755-.872-1.448-1.806-2.26-2.616-2.57-2.56-5.336-4.889-8.52-6.676-.299-.169-.474-.38-.436-.735 1.929-1.283 2.472-3.202.312-5.139.243-.205.456-.429.712-.591.842-.53 1.716-1.01 2.553-1.557 1.828-1.196 3.195-2.753 3.857-4.89.393-1.283.237-2.385-.793-3.32-.187-.167-.28-.441-.424-.678.168-.15.256-.23.356-.305 1.479-1.097 2.933-2.224 4.319-3.438a42.432 42.432 0 0 0 7.016-7.892 57.247 57.247 0 0 0 2.771-4.434c1.136-2.012 2.129-4.105 2.896-6.29.394-1.116.78-2.23 1.13-3.358.3-.984.574-1.974.793-2.977.268-1.245.5-2.504.686-3.768.181-1.202.381-2.41.419-3.619.075-2.31.08-4.627.05-6.944h-.007ZM26.665 99.117c-1.598-.798-3.095-1.726-4.331-3.04-.593-.629-.968-1.37-1.299-2.142-.118-.274-.125-.61-.112-.916.025-.654.374-1.102 1.017-1.134.55-.03 1.168-.012 1.648.212 2.035.94 4.032 1.962 6.173 3.027-1.304 1.333-1.591 2.946-1.06 4.921-.812-.368-1.436-.617-2.036-.916v-.012Zm3.62 3.6c-.249.548-.517.984-.642 1.457-.119.467-.094.972-.131 1.557-.986-.361-1.916-.66-2.528-1.513-.312-.43-.3-.573.043-.972.363-.424.793-.704 1.367-.685.612.025 1.236-.094 1.892.149v.007Zm-13.644 18.628c-.687-.168-1.167-.616-1.66-1.009-.244-.193-.319-.517-.125-.841.18-.298.456-.342.724-.255.493.162.967.38 1.504.598-.175.585-.3 1.021-.443 1.507Zm64.142-2.242c.655.698.674.897.062 1.414-.986.841-2.147 1.401-3.333 1.893-1.555.648-3.127 1.283-4.732 1.788-1.635.517-3.32.878-4.987 1.283-1.979.479-4 .679-6.01.971a39.08 39.08 0 0 1-2.984.293c-6.51.461-13.027.212-19.538.168-.96-.006-1.922-.193-2.883-.286-.905-.087-1.81-.118-2.71-.249-2.04-.299-4.094-.542-6.104-.997-1.972-.448-3.945-.928-5.823-1.725-1.143-.486-2.329-.872-3.646-1.358-.012-.448-.075-.853-.025-1.239.05-.455.294-.567.724-.424 1.754.567 3.483 1.196 5.262 1.676 1.867.498 3.77.872 5.668 1.258 1.498.305 3.002.579 4.513.816.892.143 1.797.205 2.703.286 1.491.137 2.983.262 4.481.393.718.062 1.43.143 2.147.186 1.093.069 2.185.156 3.277.175 1.505.025 3.009.006 4.513-.025.625-.013 1.242-.118 1.867-.168 1.622-.131 3.245-.206 4.856-.386 1.766-.2 3.526-.455 5.28-.748 2.123-.355 4.257-.691 6.348-1.202 2.816-.685 5.63-1.426 8.314-2.553.487-.206.943-.48 1.424-.698.45-.206.911-.374 1.335-.542Zm-7.372-7.324c1.985 1.669 3.926 3.394 5.449 5.518.069.1.125.212.218.361-.505.635-1.173.891-1.797 1.121-1.754.654-3.508 1.308-5.35 1.694-1.248.262-2.471.648-3.72.91-1.772.373-3.545.753-5.337.996-2.134.293-4.288.442-6.429.66-.867.088-1.735.2-2.602.299-.219.025-.437.056-.656.044-1.217-.056-2.422.156-3.651.05-1.292-.112-2.616.087-3.92.068-1.249-.025-2.49-.149-3.74-.243-.748-.056-1.49-.137-2.24-.211-1.679-.169-3.358-.318-5.03-.517a94.858 94.858 0 0 1-4.358-.648c-1.073-.187-2.14-.436-3.202-.679-1.155-.262-2.322-.504-3.458-.828-1.286-.368-2.553-.798-3.82-1.227a17.679 17.679 0 0 1-1.816-.735c-.356-.168-.662-.436-1.068-.71.462-.592.83-1.128 1.267-1.601a44.528 44.528 0 0 1 5.78-5.319c1.442-1.102 2.99-2.03 4.563-2.915.475-.268.937-.261 1.448-.149 1.461.317 2.928.641 4.4.903.919.162 1.861.224 2.791.324 6.154.679 12.322.311 18.488.305 1.305 0 2.61-.23 3.914-.367.993-.106 1.991-.2 2.971-.374 1.255-.224 2.503-.517 3.745-.804.518-.118.943-.037 1.423.225 2.048 1.102 3.977 2.373 5.743 3.861l-.006-.012ZM31.84 103.19c.65.156 1.31.342 1.979.467 1.198.224 2.403.405 3.601.604 1.08.175 2.166.312 3.233.517 1.973.38 3.983.368 5.974.536 1.142.099 2.31-.056 3.464-.1.219-.006.437-.037.656-.031 1.697.075 3.364-.255 5.037-.467 1.61-.206 3.22-.424 4.825-.685.892-.144 1.772-.362 2.652-.592.787-.206 1.536-.561 2.335-.704.793-.137 1.61-.106 2.422-.118.206 0 .45.087.611.212.668.498 1 1.058.157 1.744-.525.429-1.149.766-1.78 1.021-.624.255-1.316.361-1.978.542-2.06.56-4.188.672-6.286 1.027-.43.075-.873.044-1.31.069-1.155.069-2.316.112-3.465.23-1.591.162-3.177.144-4.775.013-.805-.069-1.623.056-2.428.056-1.56 0-3.127 0-4.687-.056-.78-.025-1.56-.237-2.335-.218-1.766.05-3.495-.262-5.224-.492-1.111-.143-2.21-.368-3.302-.554-.68-1.508-.319-2.373.636-3.027l-.012.006Zm41.845-7.075c-1.117 1.258-2.546 2.105-4.026 2.858a33.346 33.346 0 0 1-5.823 2.305c-2.534.735-5.112 1.158-7.715 1.463-1.211.144-2.416.306-3.62.461-.125.019-.25.05-.369.056l-4.363.237c-2.328-.262-4.93-.199-7.49-.704-1.53-.299-3.102-.392-4.638-.654-1.01-.174-2.003-.473-3.008-.722-.244-.062-.487-.119-.718-.212-.456-.187-1.061-.274-1.311-.617-.412-.56-.699-1.264-.836-1.949-.219-1.09.218-2.005 1.08-2.734.355-.3.68-.368 1.117-.212 1.954.679 3.97 1.071 5.998 1.464 2.072.404 4.163.404 6.242.641.974.112 1.979-.056 2.971-.093.468-.019.943-.044 1.41-.025.837.031 1.674.143 2.51.13 1.03-.012 2.06-.105 3.09-.174a38.078 38.078 0 0 0 5.106-.679 51.275 51.275 0 0 0 5.068-1.308c2.278-.71 4.426-1.694 6.573-2.703.48-.224.942-.492 1.398-.766.512-.311 1.061-.373 1.63-.324.792.069 1.16.499 1.166 1.296.007 1.214-.668 2.124-1.417 2.97l-.025-.005Zm20.262-40.783c-.05 1.576-.425 3.095-.68 4.627-.25 1.501-.725 2.965-1.15 4.435-.611 2.099-1.441 4.123-2.359 6.104-.824 1.78-1.785 3.487-2.827 5.157-1.555 2.497-3.37 4.795-5.375 6.938-1.11 1.183-2.34 2.255-3.576 3.307a43.127 43.127 0 0 1-3.333 2.572c-2.39 1.65-4.938 3.021-7.615 4.167a38.353 38.353 0 0 1-7.122 2.267c-1.555.33-3.109.692-4.72.735-1.59.044-3.17.255-4.762.312-.899.03-1.804-.144-2.709-.144-.936 0-1.872.169-2.802.144-1.242-.038-2.485-.194-3.727-.3-.655-.055-1.317-.062-1.96-.18-1.716-.318-3.458-.573-5.137-1.053-2.34-.672-4.638-1.488-6.84-2.553-2.51-1.22-4.9-2.622-7.135-4.291-2.54-1.894-4.881-4.005-6.904-6.447-1.073-1.295-2.14-2.61-3.12-3.973-1.443-2.006-2.66-4.155-3.69-6.39a50.86 50.86 0 0 1-2.284-5.83 47.662 47.662 0 0 1-1.361-5.145c-.424-2.111-.736-4.241-.849-6.39-.093-1.744-.18-3.494-.137-5.244.031-1.37.262-2.728.393-4.098.2-2.056.624-4.067 1.111-6.067.343-1.42.837-2.809 1.298-4.198.375-1.12.743-2.248 1.224-3.325a66.941 66.941 0 0 1 2.14-4.354c.93-1.731 1.998-3.376 3.134-4.983 1.78-2.51 3.833-4.77 6.042-6.9C20.105 11.353 23.47 9 27.134 7.055a45.678 45.678 0 0 1 6.69-2.896c1.412-.486 2.878-.803 4.333-1.164 2.16-.53 4.357-.872 6.572-.96 2.248-.087 4.5-.05 6.748.044 1.492.062 2.99.268 4.469.48a25.07 25.07 0 0 1 3.021.647c1.536.424 3.084.829 4.557 1.414a61.445 61.445 0 0 1 5.792 2.647 41.252 41.252 0 0 1 4.85 2.996c2.303 1.663 4.475 3.5 6.435 5.574a51.69 51.69 0 0 1 5.936 7.58c1.28 2.006 2.416 4.092 3.34 6.284.836 1.981 1.567 4.005 2.284 6.036.331.934.537 1.918.75 2.89.293 1.339.574 2.678.805 4.03.162.952.262 1.911.337 2.877.118 1.52.187 3.045.3 4.895-.126 1.426-.35 3.164-.406 4.902Z"/><path d="M33.151 10.557c-.137.037-.45.093-.73.218-.63.267-1.249.56-1.873.853-5.568 2.59-10.311 6.247-14.25 10.943-3.895 4.646-6.604 9.91-8.164 15.764-.637 2.385-1 4.82-1.224 7.287-.237 2.634-.175 5.244.131 7.854.206 1.793.562 3.575.9 5.35.08.442.299.89.573 1.245.306.405.718.262.937-.205.218-.455.018-.866-.094-1.27a35.002 35.002 0 0 1-1.186-7.568c-.119-2.398-.056-4.802.268-7.2.475-3.482 1.342-6.851 2.684-10.096 2.69-6.496 6.816-11.915 12.378-16.218 2.977-2.305 6.167-4.26 9.775-5.463.237-.08.462-.317.605-.541.369-.567.119-.953-.736-.953h.006ZM88.23 63.765c-.294-.156-.569-.05-.744.212a6.823 6.823 0 0 0-.543.978c-2.465 5.512-6.004 10.22-10.623 14.113-4.638 3.905-9.875 6.658-15.786 8.115-.181.044-.356.112-.537.175-.274.093-.43.317-.374.573.043.218.193.448.362.598.118.106.35.093.574.15.206-.05.45-.107.687-.175.48-.144.955-.306 1.429-.449 6.423-1.987 12.047-5.325 16.847-10.027a40.558 40.558 0 0 0 8.514-12.14c.206-.448.35-.927.5-1.407.093-.305-.032-.566-.307-.716ZM25.086 81.298c-5.555-3.912-9.856-8.888-12.858-14.98a3.666 3.666 0 0 0-.375-.64c-.18-.244-.468-.406-.736-.256-.206.112-.312.392-.456.585.125.386.175.704.325.966.898 1.57 1.766 3.164 2.752 4.677 2.872 4.397 6.61 7.966 10.843 11.036.15.106.318.243.493.256.224.019.499 0 .686-.118.219-.138.2-.399.137-.673-.106-.461-.48-.623-.805-.853h-.006Zm4.55 28.369c-.162-.118-.456-.112-.68-.093-.137.012-.262.156-.393.243-.493.33-.993.654-1.48.99-2.14 1.476-4.188 3.071-5.917 5.026-.162.187-.343.38-.425.604-.162.424.169.872.73.841.17-.137.469-.311.687-.56a25.193 25.193 0 0 1 3.633-3.382c1.024-.773 2.085-1.489 3.121-2.242.275-.2.562-.405.78-.667.188-.23.2-.573-.05-.76h-.006Z"/></g><defs><clipPath id="aa"><path d="M0 0h96v129H0z"/></clipPath></defs></svg><svg viewBox="0 0 502.664 502.664" xml:space="preserve" id="icon" xmlns="http://www.w3.org/2000/svg"><path d="M153.821 358.226 0 274.337v-46.463l153.821-83.414v54.574L46.636 250.523l107.185 53.431v54.272zm26.273 29.358L282.103 115.08h32.227L212.084 387.584h-31.99zm168.749-29.358v-54.272l107.164-52.999-107.164-52.59v-53.927l153.821 83.522v46.183l-153.821 84.083z"/></svg><svg viewBox="0 0 24 24" id="icons8-close" xmlns="http://www.w3.org/2000/svg"><path d="M4.707 3.293 3.293 4.707 10.586 12l-7.293 7.293 1.414 1.414L12 13.414l7.293 7.293 1.414-1.414L13.414 12l7.293-7.293-1.414-1.414L12 10.586 4.707 3.293z"/></svg><svg viewBox="0 0 152 125" id="money" xmlns="http://www.w3.org/2000/svg"><g clip-path="url(#da)"><path d="M1.022 109.396c.198.112.458.061.63-.153.148-.178.27-.387.397-.585 1.102-1.748 2.215-3.49 3.475-5.135 1.798-2.348 3.572-4.711 5.36-7.07 2.312-3.046 4.619-6.092 7.19-8.919 1.315-1.451 2.631-2.923 4.07-4.248 3.23-2.984 6.635-5.755 10.308-8.19 3.963-2.628 8.267-4.218 13.048-4.406 2.342-.092 4.644.112 6.884.84 1.489.484 2.983.968 4.466 1.472 3.81 1.3 7.657 2.476 11.58 3.393 2.57.6 5.156 1.105 7.737 1.66 1.789.387 3.577.754 5.386 1.02 1.24.182 2.475.396 3.71.615 1.493.26 2.977.576 4.475.79 1.082.158 2.185.204 3.278.27 1.747.107 3.49.219 5.228.458 1.163.163 2.327.357 3.419.815.381.163.742.377 1.108.58.091.052.238.118.147.317-.178-.026-.351-.056-.528-.077-.493-.06-.986-.153-1.479-.168-1.367-.046-2.256.78-2.403 2.145-.097.917-.036 1.828.035 2.74.046.626.346 1.04.874 1.289.326.152.686.244 1.042.315.381.072.777.082 1.168.128.112.015.219.076.478.163-.488.168-.823.305-1.174.397-1.427.377-2.89.448-4.354.352-1.25-.082-2.49-.265-3.74-.398-1.427-.147-2.855-.316-4.288-.433-1.666-.132-3.333-.219-5-.33-1.483-.098-2.966-.225-4.455-.286a87.393 87.393 0 0 0-4.623-.066c-1.433.02-2.871.132-4.304.193-.915.036-1.829.02-2.744.072-1.117.06-2.24.168-3.358.264-1.509.128-3.003.383-4.491.688a1.8 1.8 0 0 0-.57.245c-.182.112-.228.361-.157.56.071.193.218.31.411.316.204 0 .417-.03.62-.072 2.932-.575 5.9-.79 8.882-.83a54.63 54.63 0 0 0 1.565-.05c1.824-.077 3.653-.184 5.477-.22 2.459-.05 4.903.194 7.352.352 1.382.086 2.758.219 4.14.3 2.322.138 4.63.382 6.936.693 1.27.173 2.545.27 3.826.234 1.63-.046 3.226-.28 4.73-.952.554-.25 1.077-.545 1.489-.999.208-.229.452-.33.741-.392a28.88 28.88 0 0 0 1.758-.402c.635-.173 1.24-.433 1.723-.897.228-.219.467-.316.767-.3.127 0 .259-.016.391-.036 2.322-.377 4.644-.728 6.956-1.146 3.216-.586 6.376-1.416 9.547-2.19 1.976-.484 3.952-.993 5.954-1.376 2.439-.463 4.893-.814 7.347-1.186.955-.143 1.916-.25 2.886-.22 1.037.036 2.017.28 2.916.805.097.056.168.163.31.306-.335.087-.584.153-.833.209-1.438.306-2.83.754-4.136 1.436a5.302 5.302 0 0 0-1.031.703c-.452.413-.63.953-.493 1.57.076.33.163.661.239.992.035.143.056.29.091.49-.584.178-1.138.33-1.676.514-2.073.713-4.146 1.441-6.219 2.165-1.331.463-2.647.972-3.994 1.4-3.287 1.044-6.569 2.104-9.882 3.056-4.192 1.203-8.368 2.476-12.539 3.75-3.974 1.212-7.992 2.261-12.022 3.274-3.089.78-6.213 1.411-9.323 2.114-1.966.443-3.953.749-5.975.708-1.306-.025-2.606-.153-3.902-.331a763.7 763.7 0 0 0-5.98-.784c-.904-.117-1.814-.255-2.723-.316a76.131 76.131 0 0 0-3.913-.178 40.67 40.67 0 0 0-3.368.051c-1.276.081-2.546.265-3.816.382a30.217 30.217 0 0 0-5.386.998c-3.023.84-5.827 2.134-8.393 3.958-2.8 1.991-5.345 4.289-7.774 6.703-1.986 1.976-3.693 4.202-5.34 6.474-.244.336-.462.698-.665 1.064a1.864 1.864 0 0 0-.198.586c-.03.194.08.357.254.448.172.092.365.102.518-.03.132-.117.239-.27.34-.418.514-.723.991-1.477 1.54-2.18 1.95-2.496 3.993-4.915 6.397-7.004.828-.723 1.62-1.482 2.454-2.2a38.009 38.009 0 0 1 4.73-3.489c2.52-1.554 5.259-2.562 8.144-3.168 2.896-.612 5.833-.887 8.79-.963.884-.02 1.773-.036 2.657.005 1.408.071 2.82.138 4.218.301 2.855.331 5.7.728 8.545 1.095 2.775.356 5.528.239 8.257-.372 1.758-.392 3.516-.795 5.274-1.197 2.444-.56 4.913-1.014 7.326-1.701 2.688-.764 5.401-1.452 8.084-2.221 2.235-.642 4.445-1.36 6.676-2.022 4.507-1.345 9.029-2.634 13.52-4.02 4.171-1.288 8.266-2.796 12.392-4.206 1.138-.387 2.281-.76 3.419-1.146.285-.097.564-.133.844-.02.584.233 1.179.177 1.778.09 2.734-.397 5.142-1.517 7.271-3.274.447-.367.869-.764 1.168-1.264.158-.264.305-.555.376-.855.158-.657-.132-1.213-.757-1.457a3.445 3.445 0 0 0-.985-.214 6.786 6.786 0 0 0-2.028.148c-.315.071-.538-.016-.777-.235-1.407-1.314-3.145-1.731-4.989-1.68-1.301.035-2.602.208-3.892.397-2.195.326-4.395.647-6.57 1.09-2.378.484-4.73 1.115-7.093 1.67-2.21.52-4.425 1.035-6.64 1.544-.224.05-.452.066-.859.122.249-.209.351-.31.468-.392 1.626-1.05 3.226-2.14 4.882-3.143 4.944-3 9.969-5.847 15.324-8.053.31-.127.625-.254.96-.397.468.31.986.316 1.514.32 1.067.011 2.063-.28 3.034-.697 2.479-1.08 4.577-2.71 6.513-4.569.056-.056.107-.112.163-.173.264-.296.386-.627.228-1.009-.132-.32-.528-.514-.995-.478-.158.01-.31.05-.463.081-.127.026-.254.056-.396.087-.854-.449-1.712-.892-2.556-1.35a8.107 8.107 0 0 0-1.971-.749c-1.621-.392-3.267-.402-4.908-.214-1.641.189-3.237.601-4.807 1.11-.223.072-.447.128-.66.19-.112-.082-.198-.144-.279-.205-1.25-.886-2.592-1.584-4.131-1.793-.803-.107-1.611-.157-2.419-.219-.762-.056-1.514.046-2.256.189-1.493.29-2.941.728-4.354 1.283-1.626.642-3.231 1.35-4.837 2.043-1.077.463-2.149.947-3.211 1.421-1.448-.917-3.018-1.207-4.674-1.034a17.95 17.95 0 0 0-5.066 1.314c-1.737.724-3.45 1.503-5.162 2.287a181.78 181.78 0 0 0-13.134 6.688c-.157.092-.325.168-.482.265-.26.163-.529.188-.829.138-.589-.102-1.194-.158-1.778-.276-3.302-.667-6.605-1.34-9.902-2.032-3.17-.667-6.29-1.548-9.385-2.516-2.444-.764-4.867-1.584-7.296-2.394-1.94-.647-3.907-1.126-5.965-1.218-1.834-.081-3.663-.045-5.466.27-3.562.627-6.895 1.885-9.939 3.872a74.23 74.23 0 0 0-7.677 5.704c-1.808 1.544-3.627 3.077-5.263 4.819-1.992 2.114-3.948 4.263-5.727 6.56-2.957 3.83-5.868 7.702-8.805 11.548-1.402 1.833-2.642 3.769-3.836 5.74a4.684 4.684 0 0 0-.365.693c-.107.27.005.55.233.677l-.005-.005Zm147.4-26.216c.355-.062.726-.056 1.087-.052.198 0 .417.041.569.29-.046.113-.071.276-.163.388-.223.285-.447.58-.721.815-2.088 1.798-4.486 2.924-7.235 3.24-.102.01-.208.035-.31.035-.711-.01-1.057-.25-1.27-.927-.371-1.187-.239-1.375.742-1.87a13.628 13.628 0 0 1 3.383-1.18c1.301-.27 2.607-.515 3.913-.745l.005.005Zm-40.764 3.738c-.249.183-.518.362-.807.453a20.03 20.03 0 0 1-1.962.52c-.762.163-1.539.28-2.332.28-.645-.066-1.29-.122-1.936-.204a2.415 2.415 0 0 1-.594-.173.58.58 0 0 1-.37-.468c-.047-.311-.102-.622-.097-.932 0-.52.03-1.045.076-1.564.056-.591.416-.958 1.016-.993a4.59 4.59 0 0 1 1.011.07c1.285.215 2.556.51 3.79.933.493.168.966.392 1.428.626a2.3 2.3 0 0 1 .879.76c.173.26.163.504-.091.692h-.011Zm39.646-18.754c-.462.631-1.031 1.08-1.616 1.517a17.288 17.288 0 0 1-3.368 1.972 7.56 7.56 0 0 1-2.022.585 5.168 5.168 0 0 1-.625.036c-.127 0-.254-.035-.453-.061.082-.143.112-.28.193-.336.321-.224.641-.459.991-.622a730.379 730.379 0 0 1 6.402-2.928c.158-.072.33-.107.498-.163Zm-10.817-2.298c1.478-.346 2.972-.575 4.501-.509 1.896.087 3.638.616 5.173 1.767-.066.27-.305.276-.483.362-1.849.856-3.699 1.712-5.548 2.562-.595.275-1.164.596-1.651 1.04-.173.157-.356.325-.463.524-.137.255-.335.382-.584.489-.554.234-1.098.489-1.651.718-2.221.927-4.39 1.956-6.489 3.143-2.321 1.314-4.669 2.577-6.955 3.942-1.702 1.019-3.328 2.165-4.995 3.25-1.072.703-2.149 1.396-3.221 2.094-.31.203-.625.376-.996.432-1.158.184-2.322.367-3.48.545-.152.02-.305 0-.508 0-.417-.972-1.123-1.584-1.997-1.991-.66-.31-1.351-.555-2.098-.856-.264-.79-1.011-1.268-1.601-1.834-.025-.244.143-.305.264-.382 2.5-1.624 5.046-3.168 7.698-4.538l4.385-2.272c4.344-2.246 8.83-4.187 13.352-6.036 2.393-.978 4.827-1.859 7.352-2.45h-.005Zm-19.526 1.36c1.845-.804 3.699-1.589 5.65-2.098a21.976 21.976 0 0 1 2.063-.459 7.985 7.985 0 0 1 1.555-.106c1.199.04 2.398.152 3.546.55a5.952 5.952 0 0 1 1.707.921c-.167.107-.279.21-.406.255-4.324 1.574-8.526 3.443-12.672 5.425-4.43 2.119-8.815 4.335-12.961 6.993-.813.52-1.621 1.055-2.434 1.58-.304.198-.625.376-.924.554-.132-.03-.234-.045-.336-.076-1.95-.657-3.978-.85-6.005-1.014-1.042-.086-2.083-.157-3.125-.239-.122-.01-.239-.05-.411-.087.167-.295.437-.356.66-.468 1.682-.846 3.369-1.676 5.05-2.521a2196.23 2196.23 0 0 0 8.678-4.37c3.405-1.722 6.87-3.317 10.365-4.84ZM85.008 77.98c.478-.265.96-.525 1.448-.774 4.212-2.14 8.44-4.253 12.743-6.204 1.829-.83 3.668-1.65 5.629-2.135 1.22-.3 2.449-.54 3.714-.376.488.066.961.163 1.428.402-.096.265-.315.31-.488.397-1.636.82-3.272 1.625-4.908 2.445-3.15 1.584-6.3 3.163-9.44 4.768-1.534.784-3.053 1.6-4.567 2.424-.387.21-.757.326-1.19.25-1.513-.27-3.033-.535-4.547-.8-.046-.01-.091-.046-.183-.102.127-.107.224-.224.35-.295h.011Z"/><path d="M26.833 124.015a.61.61 0 0 1-.285-.076c-.208-.112-.32-.311-.29-.515.036-.224.108-.433.204-.611.239-.428.452-.764.67-1.07 1.566-2.159 3.293-4.436 5.346-6.479 2.83-2.811 5.299-4.945 7.783-6.708 2.485-1.767 5.32-3.107 8.414-3.968a30.927 30.927 0 0 1 5.396-.998 64.89 64.89 0 0 0 1.463-.158c.773-.087 1.565-.178 2.353-.224.97-.061 2.012-.077 3.373-.051 1.291.025 2.607.087 3.913.178.716.051 1.438.148 2.139.24l.584.076.193.025c1.9.245 3.862.495 5.787.759 1.494.204 2.734.311 3.892.332 1.783.035 3.679-.194 5.96-.708 1.006-.23 2.032-.454 3.028-.668 2.068-.453 4.207-.917 6.295-1.446 3.816-.963 7.916-2.028 12.016-3.275 4.07-1.243 8.277-2.527 12.54-3.75 2.936-.845 5.893-1.787 8.754-2.694l1.123-.356c.879-.28 1.763-.602 2.616-.907.458-.168.915-.331 1.377-.494l.092-.03c2.007-.704 4.08-1.427 6.122-2.13.371-.127.737-.234 1.128-.351.163-.046.33-.097.498-.148-.01-.046-.015-.092-.02-.132-.021-.107-.036-.204-.056-.296l-.107-.433-.137-.56c-.142-.632.035-1.197.513-1.63.29-.265.64-.504 1.042-.713 1.199-.632 2.555-1.1 4.151-1.442.167-.035.33-.076.523-.127.066-.015.132-.036.203-.05-.02-.021-.035-.042-.056-.062-.066-.071-.111-.127-.167-.158-.854-.5-1.799-.759-2.886-.794-1.032-.036-2.033.091-2.876.219l-1.082.162c-2.058.311-4.187.627-6.265 1.024-1.676.316-3.368.734-4.999 1.141l-.95.235c-.564.137-1.128.28-1.692.417-2.561.637-5.213 1.294-7.855 1.773-1.626.295-3.288.56-4.888.815-.691.112-1.377.219-2.068.33a2.14 2.14 0 0 1-.401.037.942.942 0 0 0-.722.285c-.421.407-.975.703-1.748.912a26.61 26.61 0 0 1-1.758.402c-.32.066-.533.178-.706.372-.452.504-1.046.804-1.509 1.013-1.336.601-2.85.907-4.755.963-1.169.036-2.424-.04-3.836-.234a93.083 93.083 0 0 0-6.93-.693c-.732-.04-1.474-.102-2.19-.158-.64-.05-1.301-.102-1.952-.142a99.984 99.984 0 0 1-1.742-.123c-1.834-.132-3.735-.265-5.604-.229-1.23.026-2.485.082-3.694.143-.595.03-1.189.056-1.784.081-.497.02-1.03.04-1.564.051-3.425.051-6.245.316-8.871.83a2.877 2.877 0 0 1-.63.072c-.219 0-.387-.133-.468-.357-.076-.214-.04-.5.183-.637a1.84 1.84 0 0 1 .59-.254c1.727-.357 3.16-.576 4.496-.693l.503-.04c.935-.082 1.905-.164 2.855-.22.513-.03 1.037-.035 1.545-.046.391-.005.797-.01 1.199-.025.538-.02 1.087-.051 1.616-.082.879-.045 1.793-.096 2.687-.112 1.454-.02 2.963 0 4.624.067 1.026.04 2.073.117 3.084.188.457.03.915.066 1.377.097.518.035 1.041.066 1.56.097 1.128.066 2.291.137 3.44.234 1.087.087 2.19.209 3.256.32.346.036.686.077 1.032.113.421.046.838.092 1.26.142a49.2 49.2 0 0 0 2.474.25c1.626.107 3.038-.005 4.334-.346.229-.061.457-.143.721-.235.087-.03.183-.066.285-.102-.025-.01-.046-.02-.066-.025a1.193 1.193 0 0 0-.229-.076c-.152-.02-.3-.03-.452-.046a6.784 6.784 0 0 1-.721-.087 4.447 4.447 0 0 1-1.057-.316c-.564-.264-.864-.703-.91-1.34-.06-.845-.137-1.802-.035-2.755.147-1.39 1.021-2.205 2.352-2.205h.117c.351.01.701.06 1.042.112l.442.06c.127.016.259.037.386.057l.096.015c.026-.092-.03-.127-.117-.178l-.157-.087a8.6 8.6 0 0 0-.96-.499c-1.103-.463-2.287-.657-3.404-.81-1.769-.244-3.603-.356-5.224-.458l-.467-.026c-.925-.056-1.885-.112-2.815-.244a65.534 65.534 0 0 1-2.886-.5c-.528-.096-1.062-.198-1.59-.29a156.782 156.782 0 0 0-3.709-.616c-1.905-.285-3.795-.677-5.39-1.024-.95-.204-1.921-.407-2.856-.6-1.606-.337-3.262-.683-4.883-1.06-3.516-.82-7.306-1.93-11.584-3.393a299.205 299.205 0 0 0-4.278-1.41l-.188-.062c-2.053-.667-4.299-.942-6.864-.835-4.573.183-8.83 1.62-13.012 4.396-3.45 2.287-6.819 4.966-10.299 8.185-1.326 1.228-2.566 2.593-3.765 3.917l-.3.331c-2.56 2.822-4.903 5.909-7.169 8.894l-.02.025c-.625.825-1.25 1.65-1.87 2.476a932.08 932.08 0 0 1-3.485 4.594c-1.22 1.589-2.292 3.265-3.47 5.129l-.061.097c-.107.168-.214.341-.34.494-.189.229-.473.295-.712.168a.6.6 0 0 1-.264-.759c.101-.249.238-.484.37-.703.986-1.625 2.317-3.749 3.842-5.745 1.133-1.483 2.26-2.97 3.389-4.452 1.768-2.328 3.597-4.737 5.416-7.096 1.798-2.332 3.815-4.538 5.73-6.565 1.545-1.64 3.278-3.123 4.96-4.554l.315-.27c2.347-2.002 4.857-3.87 7.682-5.71 2.967-1.935 6.32-3.24 9.963-3.876 1.6-.28 3.344-.367 5.483-.27 1.834.082 3.734.469 5.985 1.223l.9.3c2.092.698 4.252 1.421 6.39 2.094 3.598 1.125 6.575 1.925 9.38 2.516 3.358.708 6.732 1.39 9.903 2.032.335.066.68.117 1.01.163.255.036.514.072.768.117.31.051.554.016.782-.127a3.56 3.56 0 0 1 .305-.168c.061-.03.122-.061.183-.097a180.844 180.844 0 0 1 13.139-6.688c1.63-.749 3.379-1.543 5.162-2.287a18.15 18.15 0 0 1 5.086-1.314c1.733-.183 3.308.163 4.684 1.029.326-.143.651-.29.976-.433.721-.32 1.468-.652 2.205-.973.33-.142.655-.285.986-.428a131.923 131.923 0 0 1 3.851-1.62 24.929 24.929 0 0 1 4.364-1.288c.915-.178 1.611-.234 2.277-.189l.274.02c.706.052 1.433.103 2.144.2 1.362.183 2.683.758 4.156 1.803.061.04.122.086.193.137l.061.046c.061-.015.122-.036.188-.051.148-.04.295-.082.442-.127 1.839-.591 3.369-.948 4.817-1.11 1.839-.21 3.45-.143 4.928.213a7.955 7.955 0 0 1 1.992.754c.589.321 1.194.637 1.778.942l.757.398.087-.02c.101-.021.193-.046.289-.062a.885.885 0 0 0 .112-.025 2.81 2.81 0 0 1 .361-.061c.487-.031.919.173 1.057.52.152.371.071.722-.239 1.074a2.854 2.854 0 0 1-.163.178c-2.251 2.165-4.329 3.622-6.534 4.584-1.102.48-2.063.703-3.008.703h-.045c-.514 0-1.042-.01-1.52-.31l-.929.382c-5.615 2.312-10.894 5.368-15.314 8.047a112.103 112.103 0 0 0-3.455 2.211c-.472.31-.945.621-1.422.927-.072.046-.138.107-.239.194-.021.015-.041.035-.061.05.056-.004.106-.015.157-.02.198-.025.341-.04.483-.076 2.139-.494 4.41-1.019 6.641-1.544.782-.183 1.58-.382 2.347-.57 1.55-.382 3.155-.774 4.745-1.1 2.099-.428 4.253-.749 6.341-1.055l.234-.035c1.184-.173 2.561-.362 3.902-.403h.29c1.966 0 3.521.56 4.745 1.707.234.219.442.28.717.219.655-.148 1.341-.199 2.042-.148a3.38 3.38 0 0 1 1.006.219c.655.26.96.846.798 1.533-.061.26-.183.535-.381.871-.31.525-.752.927-1.179 1.279-2.175 1.793-4.629 2.898-7.301 3.285-.61.087-1.209.148-1.809-.092-.229-.091-.483-.086-.798.02-.548.19-1.092.368-1.641.55-.594.2-1.184.393-1.773.597-1.275.438-2.571.891-3.826 1.33-2.794.977-5.685 1.99-8.571 2.877-2.84.876-5.741 1.727-8.546 2.552-1.631.479-3.318.973-4.974 1.467-.894.27-1.804.55-2.683.82-1.306.402-2.657.82-3.993 1.202-1.393.397-2.815.779-4.187 1.151-1.28.347-2.601.703-3.897 1.07-1.656.468-3.364.835-5.015 1.192-.762.163-1.544.331-2.311.509-1.56.357-3.41.779-5.274 1.197a23.77 23.77 0 0 1-8.277.372 461.62 461.62 0 0 1-2.601-.341c-1.946-.255-3.963-.525-5.95-.754-1.392-.163-2.825-.234-4.207-.301-.93-.046-1.86-.03-2.662-.01-3.237.082-6.107.397-8.78.963-3.069.652-5.726 1.681-8.124 3.163-1.585.978-3.13 2.119-4.725 3.479-.442.382-.88.779-1.306 1.166-.376.342-.762.693-1.148 1.034-2.53 2.201-4.65 4.768-6.387 6.994-.36.463-.701.957-1.026 1.436-.168.25-.34.494-.513.739l-.03.046c-.097.137-.194.275-.321.387a.454.454 0 0 1-.305.112l-.015-.031Zm33.239-20.746c-.813 0-1.504.02-2.17.061-.782.051-1.58.138-2.347.224-.483.056-.976.112-1.469.158a31.07 31.07 0 0 0-5.375.993c-3.084.861-5.899 2.191-8.373 3.948-2.475 1.762-4.944 3.891-7.769 6.698-2.047 2.037-3.77 4.309-5.335 6.464-.218.3-.427.636-.665 1.059a1.652 1.652 0 0 0-.188.566c-.026.152.06.295.223.382.163.086.325.081.447-.021.117-.102.209-.234.3-.361l.03-.046c.173-.245.341-.489.509-.739.325-.479.665-.978 1.031-1.441 1.743-2.226 3.861-4.804 6.402-7.009.386-.336.772-.688 1.148-1.029.427-.387.864-.789 1.311-1.171 1.6-1.371 3.15-2.512 4.74-3.495 2.409-1.487 5.081-2.526 8.165-3.178 2.678-.565 5.559-.881 8.8-.968.803-.02 1.738-.041 2.663.005 1.392.072 2.825.138 4.222.301 1.986.229 3.998.499 5.95.754.868.112 1.732.229 2.6.341a23.8 23.8 0 0 0 8.237-.372c1.864-.418 3.709-.84 5.274-1.197.772-.178 1.554-.346 2.316-.509 1.652-.357 3.354-.724 5.01-1.192 1.296-.367 2.622-.724 3.897-1.07 1.377-.372 2.795-.754 4.187-1.151 1.336-.382 2.682-.8 3.988-1.202.879-.27 1.789-.555 2.688-.82 1.656-.494 3.343-.988 4.974-1.467 2.805-.825 5.706-1.676 8.546-2.552 2.881-.891 5.772-1.9 8.566-2.878 1.255-.438 2.546-.891 3.826-1.33.589-.203 1.184-.397 1.778-.595.549-.184 1.098-.362 1.641-.55.346-.117.625-.123.885-.02.569.228 1.148.172 1.742.086 2.647-.382 5.081-1.482 7.24-3.26.422-.346.849-.739 1.154-1.243.193-.326.31-.59.366-.835.147-.632-.117-1.146-.717-1.386a3.278 3.278 0 0 0-.965-.209c-.691-.05-1.367 0-2.007.143-.32.071-.569 0-.833-.25-1.199-1.12-2.729-1.67-4.659-1.67h-.29c-1.336.035-2.703.224-3.887.397l-.234.036c-2.083.305-4.237.626-6.33 1.054-1.591.326-3.191.718-4.741 1.1-.772.189-1.565.388-2.352.57-2.225.525-4.502 1.05-6.641 1.544-.147.036-.299.051-.498.077-.106.015-.228.03-.365.046l-.219.03.173-.143c.091-.076.162-.137.223-.193.107-.092.173-.153.254-.204.473-.305.951-.616 1.423-.927 1.128-.739 2.291-1.502 3.46-2.21 4.425-2.685 9.71-5.741 15.334-8.059l.991-.407.03.02c.452.3.95.306 1.479.311h.045c.93 0 1.87-.219 2.957-.693 2.19-.952 4.258-2.404 6.494-4.558.051-.051.101-.107.147-.158.285-.321.356-.632.224-.953-.112-.27-.442-.443-.839-.443h-.091a1.99 1.99 0 0 0-.341.056c-.035.01-.076.015-.111.026-.092.02-.183.04-.285.06l-.132.031-.02-.01c-.259-.137-.519-.27-.778-.407-.584-.306-1.189-.622-1.783-.943-.6-.326-1.24-.57-1.956-.743-1.463-.352-3.064-.423-4.888-.214-1.438.163-2.962.514-4.791 1.105-.147.046-.3.092-.447.132l-.214.061-.03.01-.112-.08c-.071-.052-.132-.098-.193-.138-1.458-1.034-2.759-1.6-4.1-1.783-.706-.097-1.433-.148-2.139-.199l-.274-.02c-.651-.046-1.342.01-2.241.188-1.433.28-2.891.713-4.344 1.284-1.296.51-2.591 1.075-3.846 1.615-.331.142-.661.285-.986.427-.737.316-1.484.652-2.205.973-.335.148-.671.3-1.006.449l-.031.015-.03-.02c-1.382-.872-2.896-1.203-4.634-1.024a17.94 17.94 0 0 0-5.05 1.309 159.704 159.704 0 0 0-5.157 2.287 181.593 181.593 0 0 0-13.129 6.683 8.738 8.738 0 0 0-.478.26c-.254.157-.528.203-.868.147a13.742 13.742 0 0 0-.762-.112c-.336-.046-.681-.092-1.022-.163-3.17-.642-6.544-1.33-9.902-2.032-2.805-.591-5.787-1.391-9.39-2.517-2.139-.672-4.303-1.395-6.396-2.093l-.9-.3c-2.24-.75-4.13-1.137-5.95-1.218-2.128-.097-3.86-.01-5.451.27-3.628.637-6.96 1.936-9.918 3.86-2.82 1.84-5.33 3.704-7.667 5.7l-.315.27c-1.676 1.432-3.409 2.909-4.948 4.544-1.91 2.027-3.923 4.228-5.721 6.556a949.822 949.822 0 0 0-5.417 7.095 1449.622 1449.622 0 0 1-3.388 4.452c-1.525 1.991-2.85 4.11-3.836 5.735-.127.214-.265.443-.361.683a.477.477 0 0 0 .208.601h-.015c.183.101.401.045.554-.138a4.52 4.52 0 0 0 .33-.479l.06-.097c1.18-1.869 2.257-3.545 3.476-5.139a936.85 936.85 0 0 0 3.486-4.594c.625-.826 1.244-1.65 1.87-2.476l.02-.025c2.266-2.985 4.608-6.077 7.174-8.899l.3-.33c1.199-1.325 2.438-2.695 3.77-3.923 3.49-3.224 6.864-5.903 10.319-8.195 4.207-2.792 8.485-4.233 13.078-4.417 2.576-.102 4.842.173 6.904.846l.189.061c1.402.453 2.855.927 4.278 1.41 4.273 1.463 8.058 2.568 11.569 3.388 1.62.377 3.277.723 4.882 1.06.935.193 1.906.397 2.856.6 1.595.347 3.48.74 5.385 1.02 1.245.183 2.5.402 3.714.616.534.091 1.062.193 1.596.29.94.178 1.915.362 2.88.5.925.132 1.88.188 2.805.244l.468.025c1.62.102 3.454.214 5.228.459 1.128.157 2.322.351 3.434.82.336.142.661.326.976.504l.157.087c.087.045.265.147.158.387l-.02.046-.194-.031a9.798 9.798 0 0 0-.381-.056l-.442-.061c-.335-.046-.686-.097-1.031-.107h-.112c-1.26 0-2.088.774-2.225 2.093-.102.938-.026 1.89.035 2.73.046.591.32.994.839 1.233.28.127.604.23 1.031.31.234.047.473.067.706.082a7.1 7.1 0 0 1 .458.046c.081.01.152.04.259.082.061.025.137.05.228.086l.173.061-.173.061c-.162.056-.31.107-.447.158a8.115 8.115 0 0 1-.731.24c-1.311.346-2.739.458-4.375.351a48.568 48.568 0 0 1-2.48-.25c-.421-.05-.838-.101-1.254-.142a70.765 70.765 0 0 1-1.032-.112 112.22 112.22 0 0 0-3.257-.321c-1.143-.092-2.311-.163-3.44-.234-.523-.03-1.04-.061-1.56-.097-.456-.03-.914-.061-1.376-.097-1.006-.071-2.053-.147-3.079-.188a84.543 84.543 0 0 0-4.618-.066c-.895.015-1.804.06-2.683.112-.528.03-1.077.06-1.616.081-.401.015-.808.02-1.199.025a31.21 31.21 0 0 0-1.54.046c-.95.056-1.915.138-2.85.22l-.503.045c-1.33.112-2.758.331-4.48.688a1.736 1.736 0 0 0-.55.234c-.162.102-.188.326-.132.484.061.173.188.27.35.27.194.01.407-.03.605-.071 2.637-.515 5.462-.78 8.892-.836.533-.01 1.067-.03 1.565-.05.594-.026 1.189-.051 1.783-.082 1.21-.056 2.464-.117 3.699-.143 1.885-.035 3.78.097 5.62.23.578.04 1.163.081 1.742.117.65.04 1.31.091 1.951.142.716.056 1.458.112 2.19.158 2.139.127 4.405.352 6.94.693 1.413.188 2.663.265 3.816.234 1.89-.056 3.384-.356 4.71-.947.452-.204 1.026-.5 1.463-.983.193-.214.427-.336.778-.408.574-.117 1.163-.24 1.752-.402.747-.209 1.286-.49 1.692-.881a1.06 1.06 0 0 1 .818-.321 2.4 2.4 0 0 0 .376-.036c.691-.112 1.377-.224 2.068-.33 1.606-.256 3.262-.52 4.888-.816 2.642-.479 5.289-1.136 7.85-1.773.564-.137 1.128-.28 1.692-.417l.95-.235c1.636-.402 3.323-.82 5.004-1.14 2.078-.398 4.212-.714 6.27-1.024l1.082-.163c.849-.128 1.865-.255 2.901-.22 1.108.036 2.073.306 2.942.816.071.04.127.102.198.183.036.04.077.087.127.132l.077.082-.107.025c-.112.026-.213.056-.31.082-.193.05-.361.092-.528.127-1.581.342-2.927.805-4.116 1.432a4.822 4.822 0 0 0-1.016.697c-.442.403-.605.922-.478 1.508.041.189.087.372.133.555l.106.433c.021.097.041.194.056.306l.031.188.01.056-.056.016-.554.168c-.391.117-.757.224-1.123.351-2.042.703-4.115 1.431-6.122 2.13l-.092.03c-.457.158-.914.326-1.371.489-.854.31-1.738.632-2.622.912l-1.123.356c-2.861.912-5.823 1.854-8.759 2.7-4.263 1.222-8.47 2.506-12.54 3.749-4.105 1.253-8.205 2.317-12.026 3.28-2.088.525-4.232.993-6.3 1.446a281.6 281.6 0 0 0-3.023.668c-2.292.519-4.192.738-5.99.713-1.164-.021-2.409-.127-3.908-.331-1.925-.265-3.887-.515-5.787-.759l-.193-.026-.59-.076c-.695-.092-1.417-.188-2.133-.239a78.463 78.463 0 0 0-5.101-.194h-.005Zm42.495-15.031h-.015c-.188-.02-.366-.036-.548-.056-.458-.046-.935-.092-1.398-.148a2.434 2.434 0 0 1-.61-.173.65.65 0 0 1-.41-.52l-.016-.096c-.04-.275-.087-.56-.081-.846 0-.52.03-1.044.076-1.569.056-.626.447-1.013 1.077-1.049.295-.02.62 0 1.021.071a24 24 0 0 1 3.801.932 11.06 11.06 0 0 1 1.437.632c.376.189.681.453.905.784.203.3.162.576-.107.78-.218.163-.513.361-.828.463-.661.21-1.321.387-1.966.525-.9.188-1.636.28-2.327.28l-.011-.01Zm-1.727-4.34c-.066 0-.132 0-.193.005-.564.036-.904.367-.955.937a20.1 20.1 0 0 0-.076 1.56c0 .274.04.55.08.824l.016.102c.03.199.147.347.335.423.173.066.376.142.58.168.462.056.935.102 1.397.148.183.015.361.035.538.056h.011c.675 0 1.407-.087 2.301-.275.64-.138 1.296-.311 1.951-.52.3-.097.579-.285.793-.443.213-.158.239-.362.076-.606a2.193 2.193 0 0 0-.854-.739 11.8 11.8 0 0 0-1.417-.621 24.032 24.032 0 0 0-3.78-.927 4.863 4.863 0 0 0-.798-.077l-.005-.015Zm40.809 4.07h-.005c-.752-.01-1.108-.275-1.326-.973-.386-1.233-.224-1.442.772-1.946a13.77 13.77 0 0 1 3.404-1.187c1.159-.239 2.404-.478 3.918-.743.376-.066.777-.056 1.102-.051.219.005.457.046.625.32l.015.026-.01.03a.533.533 0 0 0-.035.108c-.031.096-.066.209-.138.295l-.05.066c-.209.265-.422.54-.681.764-2.149 1.854-4.598 2.95-7.271 3.255-.035 0-.071.01-.101.016a1.41 1.41 0 0 1-.209.02h-.01Zm6.778-4.727c-1.514.27-2.754.504-3.912.744a13.565 13.565 0 0 0-3.369 1.176c-.945.48-1.072.642-.711 1.793.203.642.518.876 1.209.882.061 0 .122-.01.188-.02l.107-.016c2.647-.306 5.07-1.39 7.204-3.224.249-.214.458-.484.666-.744l.051-.066c.056-.072.086-.168.117-.255.01-.03.02-.056.025-.087-.137-.208-.33-.229-.503-.234-.32-.01-.711-.015-1.077.046l.005.005Zm-38.97 3.061h-.381l-.015-.04c-.376-.877-1.016-1.518-1.961-1.962-.453-.213-.915-.392-1.408-.585l-.686-.27-.025-.01-.01-.026c-.198-.586-.676-1.003-1.143-1.41-.148-.128-.3-.26-.442-.398l-.016-.015v-.026c-.025-.25.127-.346.244-.412.015-.01.036-.02.051-.031 2.876-1.87 5.325-3.31 7.702-4.543l1.464-.76c.975-.504 1.951-1.008 2.921-1.512 4.756-2.46 9.639-4.518 13.358-6.036 2.906-1.187 5.177-1.946 7.362-2.455 1.742-.408 3.18-.57 4.517-.51 2.032.092 3.734.678 5.207 1.783l.036.026-.01.04c-.056.24-.244.306-.396.357-.041.015-.087.03-.122.046-1.611.749-3.227 1.492-4.842 2.236l-.712.326c-.696.32-1.219.647-1.636 1.029-.173.153-.345.316-.447.504-.152.29-.386.418-.615.514l-.731.321c-.305.133-.61.27-.92.398-2.378.993-4.496 2.017-6.478 3.137-.742.423-1.489.836-2.236 1.253-1.554.866-3.165 1.763-4.72 2.69-1.158.692-2.296 1.457-3.399 2.195-.518.346-1.056.708-1.59 1.054-.518.342-1.036.678-1.56 1.014-.554.362-1.107.718-1.661 1.08-.3.194-.63.382-1.021.443l-1.128.178-2.358.367c-.061.01-.117.01-.183.01h-.01Zm-.295-.132h.148c.117 0 .213.005.31-.005.787-.117 1.57-.245 2.357-.367l1.128-.178c.371-.056.686-.24.971-.423a266.74 266.74 0 0 1 1.661-1.08l1.56-1.014c.533-.346 1.067-.707 1.585-1.054 1.103-.738 2.246-1.508 3.409-2.2 1.555-.927 3.166-1.824 4.72-2.69.747-.417 1.494-.83 2.236-1.253a60.186 60.186 0 0 1 6.493-3.142c.31-.128.615-.265.92-.398.244-.107.487-.214.736-.32.209-.087.417-.204.554-.46.112-.208.295-.376.478-.539.427-.392.96-.723 1.666-1.05l.712-.325c1.615-.744 3.226-1.488 4.837-2.236.04-.02.091-.036.137-.051.132-.046.254-.087.3-.224-1.443-1.07-3.11-1.635-5.102-1.727-1.326-.061-2.748.102-4.481.504-2.18.51-4.44 1.263-7.342 2.45-3.719 1.518-8.596 3.576-13.347 6.031-.975.504-1.951 1.008-2.921 1.513l-1.464.759c-2.377 1.227-4.821 2.669-7.692 4.533-.015.01-.036.02-.056.036-.107.06-.193.117-.183.27.132.127.28.254.417.376.472.413.955.841 1.168 1.442.224.092.442.173.661.26.493.193.96.372 1.417.586.961.448 1.621 1.1 2.012 1.986l-.005-.01Zm-7.077-5.257h-.026a.522.522 0 0 0-.122-.03 1.356 1.356 0 0 1-.218-.056c-1.905-.642-3.841-.836-5.99-1.014-.57-.046-1.144-.087-1.713-.132l-1.412-.107a1.335 1.335 0 0 1-.264-.051c-.046-.01-.097-.026-.158-.036l-.086-.02.046-.077c.147-.254.36-.351.553-.433.046-.02.092-.04.133-.06.853-.429 1.712-.857 2.565-1.284a2040.074 2040.074 0 0 0 11.158-5.608c3.084-1.559 6.473-3.143 10.37-4.84 1.885-.82 3.734-1.599 5.655-2.103a21.992 21.992 0 0 1 2.068-.458 8.16 8.16 0 0 1 1.57-.107c1.072.035 2.332.127 3.566.555a5.97 5.97 0 0 1 1.723.932l.071.056-.076.051c-.056.036-.107.071-.153.102a1.2 1.2 0 0 1-.264.158c-3.806 1.385-7.83 3.107-12.666 5.424-4.202 2.012-8.678 4.248-12.957 6.989-.411.265-.823.53-1.234.8l-1.199.779c-.214.137-.432.265-.645.392-.097.056-.188.112-.285.168l-.02.015.01-.005Zm-9.78-1.528.07.015c.092.02.168.041.244.046l1.413.107c.569.041 1.143.087 1.712.133 2.16.173 4.105.372 6.021 1.018.061.02.127.036.203.051.03.005.066.016.102.02l.259-.152c.213-.122.432-.255.64-.387.401-.255.803-.52 1.199-.78.411-.27.823-.534 1.235-.8 4.278-2.74 8.764-4.98 12.966-6.998 4.842-2.317 8.871-4.044 12.676-5.43a.833.833 0 0 0 .234-.142c.026-.02.051-.036.081-.056a5.67 5.67 0 0 0-1.615-.856c-1.22-.418-2.464-.514-3.526-.55a8.292 8.292 0 0 0-1.545.102c-.757.127-1.494.31-2.058.458-1.915.505-3.759 1.279-5.639 2.099-3.892 1.696-7.286 3.275-10.365 4.834-2.932 1.487-5.899 2.974-8.678 4.37l-2.48 1.238c-.853.428-1.712.85-2.566 1.283-.045.02-.09.041-.137.067-.157.07-.32.142-.447.305v.005Zm-2.648-.117c-.091 0-.188-.01-.28-.025l-2.352-.413a329.68 329.68 0 0 1-2.195-.387c-.04-.005-.076-.03-.122-.056-.02-.015-.05-.03-.08-.051l-.082-.046.071-.061c.04-.036.076-.071.112-.102.081-.076.157-.148.249-.198.523-.29 1-.546 1.453-.775 4.684-2.379 8.647-4.35 12.748-6.209 1.697-.769 3.617-1.64 5.639-2.14 1.113-.274 2.409-.55 3.74-.376.432.056.94.148 1.448.407l.051.026-.021.05c-.086.245-.264.322-.421.388a1.26 1.26 0 0 0-.097.046l-2.093 1.039c-.94.468-1.88.932-2.815 1.406l-1.169.59c-2.713 1.366-5.517 2.776-8.266 4.177-1.346.688-2.8 1.457-4.563 2.425-.35.193-.65.28-.95.28l-.005.005Zm-4.893-.998s.01.005.016.01c.035.02.055.036.076.04.731.128 1.463.26 2.195.388l2.352.412c.371.067.711-.005 1.148-.244a178.46 178.46 0 0 1 4.568-2.425c2.749-1.4 5.553-2.811 8.267-4.176l1.173-.591c.935-.474 1.875-.938 2.815-1.406.696-.347 1.397-.693 2.093-1.044l.102-.046c.132-.056.259-.112.33-.265-.472-.23-.95-.316-1.356-.372-1.301-.173-2.592.102-3.694.377-2.012.494-3.928 1.365-5.62 2.13-4.095 1.858-8.058 3.824-12.742 6.203-.453.23-.925.484-1.448.774a1.133 1.133 0 0 0-.224.179c-.015.015-.035.03-.05.046v.01Zm54.909-5.924a1.5 1.5 0 0 1-.285-.036 6.427 6.427 0 0 0-.178-.03l-.091-.016.046-.081c.025-.046.045-.092.066-.133.04-.091.076-.173.147-.224l.127-.086c.279-.194.564-.392.874-.54 2.012-.932 4.065-1.87 6.051-2.771l.346-.158a2.3 2.3 0 0 1 .345-.117c.056-.015.107-.03.158-.046l.188-.061-.117.158c-.468.636-1.037 1.09-1.631 1.533a17.262 17.262 0 0 1-3.384 1.981c-.681.3-1.367.5-2.037.591a4.783 4.783 0 0 1-.63.036h.005Zm-.356-.173.097.015c.101.02.182.03.259.03.228 0 .432-.01.614-.035a7.12 7.12 0 0 0 2.002-.58 17.15 17.15 0 0 0 3.359-1.967c.533-.402 1.046-.805 1.483-1.35-.106.03-.208.061-.305.102l-.35.158a847.87 847.87 0 0 0-6.051 2.771c-.3.138-.58.336-.854.53l-.127.086c-.041.03-.071.092-.102.168a.73.73 0 0 0-.03.067l.005.005ZM89.139 36.201c-.397-.076-.788-.148-1.184-.224-.28-.051-.401.377-.117.433.396.076.788.148 1.184.224.28.05.401-.377.117-.433Zm.299-34.458c-4.37.56-7.205 4.57-7.49 8.776-.33 4.84 2.251 9.296 5.346 12.8 5.842 6.617 14.622 10.672 23.458 10.636 2.21-.01 4.491-.316 6.473-1.355 1.885-.988 3.277-2.649 4.064-4.62 1.692-4.233.493-9.331-2.042-12.968-4.416-6.337-11.117-11.323-18.677-13.06a27.643 27.643 0 0 0-7.291-.693c-1.235.051-2.52.148-3.725.454-.055.015-.111.025-.172.04-.28.072-.158.505.117.433 2.636-.703 5.604-.616 8.281-.275 6.753.866 12.86 4.294 17.57 9.153 1.595 1.65 3.185 3.449 4.308 5.46a15.456 15.456 0 0 1 1.946 6.755c.097 2.093-.371 4.238-1.483 6.026-1.205 1.94-3.125 3.168-5.315 3.733-2.119.55-4.354.55-6.524.367a30.405 30.405 0 0 1-6.259-1.202 31.541 31.541 0 0 1-11.244-6.097c-3.348-2.832-6.432-6.505-7.774-10.748-1.361-4.299-.574-9.586 3.506-12.117a7.29 7.29 0 0 1 2.927-1.055c.279-.035.284-.484 0-.448v.005Z"/><path d="M110.63 34.21c-8.81 0-17.595-4.004-23.524-10.723-3.877-4.39-5.696-8.76-5.406-12.983.274-4.004 2.987-8.364 7.641-9l.158-.036c1.29-.321 2.632-.413 3.775-.458a27.764 27.764 0 0 1 7.357.702c7.316 1.681 14.175 6.48 18.829 13.162 2.835 4.075 3.648 9.26 2.068 13.208-.833 2.088-2.317 3.774-4.181 4.747-1.758.922-3.912 1.37-6.59 1.386h-.122l-.005-.006ZM89.458 2.445a6.944 6.944 0 0 0-2.81 1.019c-4.1 2.546-4.638 7.915-3.399 11.822 1.479 4.655 5 8.348 7.698 10.63a31.52 31.52 0 0 0 11.157 6.046 30.437 30.437 0 0 0 6.209 1.192c2.601.214 4.649.102 6.437-.362 2.266-.585 4.05-1.838 5.163-3.621 1.031-1.66 1.544-3.749 1.442-5.878a15.12 15.12 0 0 0-1.915-6.642c-1.158-2.073-2.81-3.897-4.273-5.41-4.883-5.042-11.071-8.266-17.417-9.081-3.216-.413-5.97-.321-8.185.27a.387.387 0 0 1-.107.015Z"/><path d="M87.913 9.812c-.787 2.776.229 5.735 1.52 8.19a21.38 21.38 0 0 0 4.836 6.097c3.968 3.469 9.593 5.837 14.918 5.027 2.626-.397 5.08-1.747 6.564-3.998 1.545-2.348 1.433-5.099.269-7.584-2.383-5.074-7.331-8.833-12.468-10.768-2.942-1.11-6.23-1.915-9.394-1.615-2.77.265-5.406 1.87-6.245 4.656-.081.275.346.392.432.117.767-2.542 3.196-4.06 5.731-4.32 2.642-.27 5.345.275 7.855 1.07 5.035 1.594 9.593 4.67 12.565 9.097 1.514 2.262 2.617 5.033 1.59 7.727-.924 2.435-3.145 4.182-5.604 4.885-4.984 1.421-10.639-.606-14.658-3.606a21.14 21.14 0 0 1-5.442-6c-1.539-2.563-2.895-5.838-2.042-8.853.076-.275-.35-.397-.432-.117l.005-.005Z"/><path d="M107.048 29.538c-4.385 0-9.085-1.879-12.941-5.251a21.749 21.749 0 0 1-4.898-6.168c-1.707-3.25-2.21-5.985-1.54-8.37v-.03c.798-2.633 3.334-4.523 6.463-4.823 2.785-.265 5.899.27 9.507 1.63 5.7 2.15 10.415 6.224 12.605 10.9 1.306 2.781 1.204 5.562-.285 7.834-1.432 2.18-3.891 3.677-6.737 4.11a14.73 14.73 0 0 1-2.179.163l.005.005ZM88.589 10c-.676 2.393 0 5.302 2.017 8.648a20.964 20.964 0 0 0 5.376 5.93c3.597 2.689 9.277 5.037 14.434 3.565 2.556-.729 4.588-2.496 5.437-4.727.833-2.185.305-4.707-1.565-7.493-2.779-4.146-7.195-7.34-12.433-9-2.977-.942-5.513-1.289-7.753-1.06-2.673.276-4.837 1.9-5.513 4.137Z"/><path d="M83.448 5.742c-2.896 2.806-3.74 6.932-2.973 10.808.849 4.314 3.521 8.017 6.544 11.094 6.346 6.454 15.365 11.924 24.744 9.76 2.205-.51 4.283-1.483 5.868-3.128 1.271-1.32 2.708-3.061 3.064-4.915.056-.28-.376-.403-.432-.118-.31 1.625-1.519 3.138-2.596 4.335-1.341 1.492-2.998 2.501-4.913 3.097-4.36 1.355-9.146.774-13.337-.886-4.065-1.61-7.657-4.248-10.822-7.228-3.049-2.868-5.859-6.214-7.19-10.243-1.392-4.208-.935-9.062 2.363-12.255.208-.2-.107-.515-.315-.316l-.005-.005Z"/><path d="M107.556 38.126c-5.137 0-12.524-1.96-20.72-10.299-3.703-3.769-5.868-7.436-6.61-11.22-.838-4.249.3-8.38 3.049-11.039a.464.464 0 0 1 .452-.117.499.499 0 0 1 .346.357.446.446 0 0 1-.133.443c-2.926 2.842-3.805 7.436-2.296 11.995 1.128 3.408 3.394 6.627 7.123 10.136 3.608 3.393 7.124 5.74 10.741 7.177 4.532 1.798 9.206 2.109 13.169.882 1.921-.597 3.532-1.615 4.802-3.021 1.087-1.212 2.24-2.659 2.535-4.212a.443.443 0 0 1 .534-.357.493.493 0 0 1 .396.576c-.381 1.996-1.971 3.835-3.13 5.042-1.488 1.549-3.506 2.628-5.995 3.204a18.98 18.98 0 0 1-4.263.474v-.02Z"/><path d="M80.862 11.202c.411-.077.823-.158 1.24-.235.279-.05.162-.484-.117-.433-.412.077-.823.158-1.24.235-.28.05-.163.484.117.433Z"/><path d="M80.816 11.461a.476.476 0 0 1-.36-.168.507.507 0 0 1-.097-.489.429.429 0 0 1 .34-.285l1.24-.235a.49.49 0 0 1 .457.158.507.507 0 0 1 .097.49.428.428 0 0 1-.34.285l-1.24.234a.563.563 0 0 1-.092.01h-.005Zm-.158 1.59c.482-.244.99-.402 1.524-.479.284-.04.162-.473-.117-.433a5.14 5.14 0 0 0-1.63.525c-.255.133-.031.514.223.387Z"/><path d="M80.551 13.331a.497.497 0 0 1-.437-.275.454.454 0 0 1 .199-.621 5.519 5.519 0 0 1 1.712-.55.5.5 0 0 1 .564.433.434.434 0 0 1-.376.504 4.624 4.624 0 0 0-1.448.453.489.489 0 0 1-.219.051l.005.005Zm.016 1.624c.553-.194 1.112-.387 1.666-.58.27-.092.152-.525-.117-.434-.554.194-1.113.387-1.666.581-.27.092-.153.525.117.433Z"/><path d="M80.496 15.225a.444.444 0 0 1-.422-.31.484.484 0 0 1 .295-.627l1.666-.58a.444.444 0 0 1 .58.285.484.484 0 0 1-.295.626l-1.667.58a.425.425 0 0 1-.157.026Zm-.01-.51.086.24-.082-.24h-.004Zm.483 2.145 1.737-.84c.26-.127.03-.51-.223-.387l-1.738.84c-.26.128-.03.51.224.388Z"/><path d="M80.867 17.136a.498.498 0 0 1-.443-.285.447.447 0 0 1 .209-.607l1.738-.84a.482.482 0 0 1 .482.036.514.514 0 0 1 .224.443.435.435 0 0 1-.26.367l-1.737.84a.47.47 0 0 1-.213.05v-.004Zm.633 1.635 1.86-1.116c.244-.147.02-.534-.223-.387l-1.86 1.116c-.244.148-.02.535.224.387Z"/><path d="M81.39 19.06a.481.481 0 0 1-.219-.055.504.504 0 0 1-.254-.428c0-.168.086-.316.229-.408l1.86-1.115a.459.459 0 0 1 .644.168.469.469 0 0 1-.157.657l-1.86 1.116a.482.482 0 0 1-.243.071v-.005Zm-.016-.508.132.219-.132-.22Zm1.058 2.124 1.824-1.427c.223-.178-.092-.489-.315-.315-.61.473-1.215.952-1.824 1.426-.224.178.091.489.315.316Z"/><path d="M82.29 20.986a.523.523 0 0 1-.402-.198.427.427 0 0 1 .076-.622l1.824-1.426a.496.496 0 0 1 .488-.066c.168.066.29.22.31.382.02.153-.04.3-.173.402l-1.819 1.427a.47.47 0 0 1-.3.107l-.004-.006Zm.929 1.421a9.241 9.241 0 0 0 2.073-1.614c.198-.21-.117-.525-.315-.316a8.742 8.742 0 0 1-1.982 1.548c-.249.143-.025.53.224.387v-.005Z"/><path d="M83.108 22.693a.453.453 0 0 1-.23-.062.507.507 0 0 1-.248-.433c0-.168.086-.31.239-.397a8.33 8.33 0 0 0 1.92-1.502.45.45 0 0 1 .442-.133c.168.04.31.178.356.346a.468.468 0 0 1-.117.454 9.377 9.377 0 0 1-2.129 1.66.509.509 0 0 1-.233.067Zm1.559 1.447c.589-.566 1.178-1.131 1.768-1.701.208-.2-.107-.515-.315-.316-.59.565-1.18 1.13-1.768 1.701-.209.199.106.514.315.316Z"/><path d="M84.52 24.46a.49.49 0 0 1-.35-.152.455.455 0 0 1 .01-.663l1.767-1.701a.456.456 0 0 1 .453-.117c.167.05.304.188.345.356a.46.46 0 0 1-.132.444l-1.768 1.7a.452.452 0 0 1-.325.133Zm1.402 1.519c.59-.709 1.179-1.412 1.768-2.12.183-.219-.132-.534-.315-.315-.59.708-1.179 1.41-1.768 2.119-.183.219.132.535.315.316Z"/><path d="M85.78 26.31s-.051 0-.076-.005a.507.507 0 0 1-.376-.326.473.473 0 0 1 .086-.48l1.768-2.118a.441.441 0 0 1 .635-.056.496.496 0 0 1 .071.698l-1.768 2.119a.443.443 0 0 1-.34.168Zm-.051-.494.193.163-.193-.163Zm1.793 1.604a17.215 17.215 0 0 0 1.473-2.145c.143-.25-.238-.473-.386-.224a16.632 16.632 0 0 1-1.402 2.053c-.178.224.137.54.315.316Z"/><path d="M87.375 27.75a.45.45 0 0 1-.285-.106.498.498 0 0 1-.081-.703 16.27 16.27 0 0 0 1.382-2.022.464.464 0 0 1 .65-.169c.234.138.31.418.178.647a17.781 17.781 0 0 1-1.494 2.175.44.44 0 0 1-.34.173l-.01.005Zm-.051-.494.198.158-.198-.158Zm1.702 1.483c.453-.77.905-1.538 1.352-2.307.147-.25-.239-.474-.386-.224-.452.769-.904 1.538-1.352 2.307-.147.25.24.474.386.224Z"/><path d="M88.848 29.1a.482.482 0 0 1-.254-.07.463.463 0 0 1-.172-.648l1.351-2.307a.457.457 0 0 1 .396-.234c.173 0 .34.102.427.255a.447.447 0 0 1-.01.463l-1.351 2.307a.452.452 0 0 1-.397.235h.01Zm1.677 1.131c.706-.713 1.22-1.533 1.712-2.399.143-.25-.243-.479-.386-.224-.472.836-.965 1.625-1.64 2.313-.204.204.111.52.314.316v-.006Z"/><path d="M90.378 30.552a.465.465 0 0 1-.335-.143.467.467 0 0 1-.01-.672c.675-.683 1.168-1.487 1.6-2.257a.457.457 0 0 1 .64-.173.47.47 0 0 1 .188.652c-.462.825-.996 1.696-1.753 2.455a.454.454 0 0 1-.33.143v-.005Zm-.03-.5.182.179-.183-.178Zm1.986 1.743 1.59-2.791c.143-.25-.244-.474-.386-.224-.528.932-1.057 1.864-1.59 2.791-.142.25.244.474.386.224Z"/><path d="M92.156 32.162a.475.475 0 0 1-.244-.067.465.465 0 0 1-.183-.646l1.59-2.792a.461.461 0 0 1 .646-.173.465.465 0 0 1 .183.647l-1.59 2.791a.46.46 0 0 1-.402.24Zm-.04-.49.223.128-.218-.127h-.005Zm2.28 1.545c.473-.978.945-1.956 1.413-2.934.122-.26-.26-.484-.386-.224-.473.978-.945 1.956-1.413 2.934-.122.26.26.484.386.224Z"/><path d="M94.224 33.583a.463.463 0 0 1-.209-.05.491.491 0 0 1-.234-.658l1.418-2.934a.43.43 0 0 1 .366-.254.506.506 0 0 1 .442.224.485.485 0 0 1 .035.484l-1.412 2.934a.449.449 0 0 1-.401.26l-.005-.006Zm-.056-.478.228.112-.228-.112Zm2.398 1.532c.503-1.105 1.006-2.21 1.504-3.31.117-.26-.264-.49-.386-.225-.503 1.105-1.006 2.21-1.504 3.31-.117.26.264.49.386.225Z"/><path d="M96.403 35.004a.517.517 0 0 1-.406-.214.495.495 0 0 1-.046-.489l1.504-3.31a.435.435 0 0 1 .356-.265.505.505 0 0 1 .447.213.483.483 0 0 1 .046.49l-1.504 3.31a.435.435 0 0 1-.356.265h-.04Zm-.066-.474.234.107-.234-.107Zm2.713 1.086c.453-1.106.9-2.206 1.352-3.311.107-.265-.32-.382-.432-.117l-1.352 3.31c-.106.265.32.382.432.118Z"/><path d="M98.827 36.018a.496.496 0 0 1-.391-.184.434.434 0 0 1-.051-.438l1.351-3.31a.49.49 0 0 1 .392-.301.504.504 0 0 1 .457.178c.096.122.112.28.051.438l-1.352 3.311a.481.481 0 0 1-.391.3h-.071l.005.006Zm2.917.54 1.204-3.662c.092-.275-.34-.392-.431-.117l-1.205 3.662c-.091.275.341.392.432.117Z"/><path d="M101.531 36.97a.635.635 0 0 1-.163-.025.448.448 0 0 1-.295-.58l1.204-3.663a.485.485 0 0 1 .351-.32.506.506 0 0 1 .473.152.447.447 0 0 1 .086.448l-1.204 3.663a.479.479 0 0 1-.457.33l.005-.005Zm2.798.178.915-3.576c.071-.28-.361-.397-.432-.117l-.914 3.576c-.072.28.36.397.431.117Z"/><path d="M104.132 37.566a.54.54 0 0 1-.127-.015.47.47 0 0 1-.351-.581l.915-3.576a.46.46 0 0 1 .574-.336.47.47 0 0 1 .35.58l-.914 3.577a.456.456 0 0 1-.447.35Zm-.046-.479.244.061-.244-.06Zm3.028.494.61-3.764c.045-.28-.386-.403-.432-.117l-.61 3.764c-.046.28.386.402.432.117Z"/><path d="M106.936 38c-.026 0-.056 0-.081-.006a.495.495 0 0 1-.417-.57l.61-3.765a.432.432 0 0 1 .513-.366c.244.04.467.264.416.57l-.609 3.764a.43.43 0 0 1-.432.377V38Zm-.071-.46.249.041-.249-.04Zm2.82-.127.564-3.173c.051-.28-.381-.403-.432-.117l-.564 3.173c-.051.28.381.402.432.117Z"/><path d="M109.502 37.831c-.031 0-.056 0-.087-.005a.487.487 0 0 1-.406-.57l.564-3.174a.434.434 0 0 1 .523-.361c.244.04.462.27.407.57l-.564 3.173a.438.438 0 0 1-.437.372v-.005Zm-.061-.458.249.045-.249-.045Zm3.094-.49c.097-1.029.188-2.052.285-3.081.025-.285-.422-.285-.448 0-.096 1.029-.188 2.053-.284 3.081-.025.286.422.286.447 0Z"/><path d="M112.296 37.352a.463.463 0 0 1-.274-.086.44.44 0 0 1-.178-.408l.284-3.081a.49.49 0 0 1 .544-.443.441.441 0 0 1 .407.489l-.285 3.076a.476.476 0 0 1-.279.398.55.55 0 0 1-.219.045v.01Zm3.13-1.64.198-2.491c.021-.285-.421-.285-.447 0l-.198 2.49c-.02.286.422.286.447 0Z"/><path d="M115.182 36.18h-.04a.443.443 0 0 1-.417-.488l.198-2.491a.478.478 0 0 1 .275-.398.5.5 0 0 1 .493.031c.132.092.198.24.188.407l-.199 2.491a.482.482 0 0 1-.492.449h-.006Zm2.719-2.348c-.046-.52-.086-1.044-.132-1.563-.025-.286-.467-.286-.447 0 .046.52.086 1.044.132 1.563.025.286.468.286.447 0Z"/><path d="M117.698 34.3a.463.463 0 0 1-.219-.05.484.484 0 0 1-.274-.397l-.132-1.564a.445.445 0 0 1 .416-.49c.244-.014.514.143.539.45l.127 1.563a.433.433 0 0 1-.183.407.48.48 0 0 1-.274.082Zm-.046-.447.254-.02-.254.02ZM80.826 28.02c2.012.26 3.81 1.442 5.004 3.062 1.316 1.783 1.835 4.029 1.733 6.224-.208 4.477-2.906 8.481-5.934 11.603-5.635 5.802-13.886 9.362-22.006 9-2.083-.091-4.237-.519-5.98-1.731-1.722-1.197-2.814-3.077-3.287-5.099-.493-2.103-.274-4.33.34-6.387.666-2.236 1.875-4.131 3.344-5.919 4.359-5.307 10.197-9.357 16.985-10.722 3.17-.637 6.427-.688 9.597-.071.046.01.097.02.143.035.28.077.396-.356.117-.433-2.805-.748-5.97-.61-8.8-.173-6.961 1.08-13.099 4.962-17.681 10.244-1.494 1.721-2.856 3.53-3.705 5.669-.807 2.047-1.24 4.344-.995 6.55.213 1.971.95 3.907 2.266 5.404 1.402 1.595 3.389 2.47 5.441 2.837 4.11.734 8.597.005 12.514-1.329a30.67 30.67 0 0 0 10.767-6.352c3.226-2.944 6.198-6.794 7.072-11.165.828-4.126-.467-8.812-4.374-10.885a7.48 7.48 0 0 0-2.566-.81c-.285-.035-.28.413 0 .449h.005Z"/><path d="M60.853 58.664a19.87 19.87 0 0 1-3.49-.3c-2.348-.418-4.278-1.432-5.59-2.924-1.285-1.468-2.092-3.383-2.326-5.547-.229-2.104.122-4.412 1.016-6.668.915-2.307 2.408-4.197 3.75-5.745 4.892-5.64 11.228-9.306 17.833-10.33 3.45-.535 6.443-.48 8.892.173.92.127 1.783.402 2.576.825 4.207 2.236 5.294 7.218 4.506 11.165-.965 4.834-4.425 8.817-7.153 11.308-3.095 2.827-6.85 5.037-10.858 6.403-2.378.81-5.66 1.635-9.15 1.635l-.006.005ZM76.055 27.79c-1.646 0-3.313.169-4.984.505-6.351 1.278-12.174 4.956-16.838 10.635-1.666 2.033-2.713 3.887-3.297 5.832-.661 2.206-.778 4.37-.336 6.255.493 2.104 1.621 3.861 3.186 4.946 1.473 1.024 3.389 1.574 5.848 1.686 7.89.357 16.045-2.99 21.812-8.924 3.714-3.825 5.69-7.67 5.863-11.435.107-2.297-.493-4.447-1.682-6.061-1.209-1.64-2.967-2.715-4.821-2.96a.386.386 0 0 1-.107-.015.75.75 0 0 0-.127-.03 23.894 23.894 0 0 0-4.517-.434Z"/><path d="M81.863 35.406c.742 2.613-.28 5.415-1.525 7.702a19.976 19.976 0 0 1-4.298 5.394c-3.577 3.183-8.581 5.358-13.428 4.89-2.546-.25-5.01-1.421-6.484-3.576-1.554-2.272-1.366-4.93-.137-7.314 2.307-4.477 6.64-7.844 11.275-9.627 2.621-1.009 5.477-1.737 8.302-1.645 2.713.086 5.456 1.395 6.295 4.176.081.275.513.158.432-.117-.696-2.302-2.805-3.937-5.132-4.345-2.652-.463-5.452.046-8.002.815-5.081 1.528-9.68 4.574-12.662 9.026-1.478 2.206-2.53 4.916-1.615 7.554.782 2.251 2.672 3.988 4.857 4.839 4.949 1.93 10.919-.077 15.019-3.066a20.746 20.746 0 0 0 5.553-6.052c1.524-2.546 2.825-5.78 1.982-8.77-.077-.276-.508-.159-.432.116Z"/><path d="M64.044 54.186c-1.686 0-3.185-.295-4.39-.769-2.372-.927-4.242-2.791-5.009-4.992-.808-2.327-.254-4.945 1.646-7.777 2.856-4.264 7.403-7.503 12.804-9.128 3.165-.953 5.817-1.223 8.119-.82 2.54.443 4.629 2.21 5.325 4.508v.03c.711 2.532.035 5.547-2.007 8.96a21.14 21.14 0 0 1-5.62 6.127c-3.881 2.832-7.712 3.866-10.868 3.866v-.005ZM75.07 31.484c-2.327 0-4.857.535-7.713 1.635-4.949 1.905-9.008 5.374-11.137 9.51-1.3 2.527-1.26 5.032.122 7.05 1.326 1.94 3.623 3.203 6.3 3.463 4.42.433 9.364-1.375 13.236-4.823a19.65 19.65 0 0 0 4.242-5.328c1.606-2.955 2.093-5.415 1.504-7.508-.853-2.822-3.688-3.912-6.061-3.994-.163-.005-.326-.01-.488-.01l-.005.005Z"/><path d="M86.247 31.713c2.77 2.69 3.486 6.678 2.632 10.355-.91 3.938-3.389 7.284-6.189 10.101-5.853 5.893-14.058 10.92-22.69 9.148-2.145-.438-4.197-1.314-5.747-2.903-1.189-1.223-2.54-2.843-2.876-4.564-.055-.28-.482-.163-.431.117.304 1.584 1.453 3.036 2.49 4.218 1.234 1.405 2.738 2.404 4.5 3.025 4.243 1.492 9.035 1.009 13.18-.57 4.1-1.564 7.713-4.197 10.889-7.193 3.023-2.852 5.782-6.214 7.021-10.248 1.255-4.085.686-8.74-2.474-11.807-.208-.198-.523.117-.315.316l.01.005Z"/><path d="M63.454 62.377c-1.966 0-3.856-.306-5.599-.917a10.837 10.837 0 0 1-4.608-3.097c-1.082-1.233-2.236-2.715-2.546-4.34a.492.492 0 0 1 .397-.576.443.443 0 0 1 .533.357c.336 1.732 1.763 3.362 2.805 4.431 1.356 1.391 3.246 2.343 5.614 2.833 1.189.244 2.368.356 3.516.356 8.226 0 15.242-5.71 18.941-9.438 3.343-3.367 5.345-6.632 6.123-9.979.904-3.901-.056-7.68-2.561-10.115-.193-.184-.193-.47-.005-.668a.466.466 0 0 1 .676-.015c2.967 2.883 3.942 7.508 2.54 12.067-1.082 3.524-3.338 6.815-7.093 10.36-3.663 3.453-7.25 5.827-10.974 7.248-2.607.993-5.244 1.492-7.759 1.492ZM86.42 31.524l-.177.183.177-.183Z"/><path d="M89.439 38.01a4.946 4.946 0 0 0-1.56-.5c-.28-.04-.402.393-.117.434.508.07.996.218 1.453.453.254.132.483-.255.224-.387Z"/><path d="M89.317 38.676a.489.489 0 0 1-.219-.05 4.31 4.31 0 0 0-1.377-.433.43.43 0 0 1-.345-.265.508.508 0 0 1 .08-.49.482.482 0 0 1 .458-.183c.564.082 1.113.26 1.641.525a.453.453 0 0 1 .198.621.49.49 0 0 1-.431.275h-.005Zm.005-.438.116-.229-.116.23Zm.1 1.549c-.528-.183-1.061-.367-1.59-.555-.27-.097-.386.336-.117.433.529.183 1.062.367 1.59.555.27.097.387-.336.117-.433Z"/><path d="M89.377 40.485a.565.565 0 0 1-.157-.026l-1.59-.555a.488.488 0 0 1-.295-.626.444.444 0 0 1 .579-.285l1.59.555a.475.475 0 0 1 .315.361.5.5 0 0 1-.157.474.421.421 0 0 1-.285.107v-.005Zm-.239 1.161c-.554-.265-1.108-.535-1.662-.8-.259-.122-.482.26-.223.387.554.265 1.108.535 1.661.8.26.122.483-.26.224-.387Z"/><path d="M89.016 42.313a.468.468 0 0 1-.213-.05l-1.656-.8a.445.445 0 0 1-.26-.367.508.508 0 0 1 .224-.443.481.481 0 0 1 .483-.036l1.656.8a.445.445 0 0 1 .26.366.508.508 0 0 1-.224.443.465.465 0 0 1-.27.082v.005Zm.016-.433.111-.23-.111.23Zm-.402 1.595-1.778-1.064c-.25-.148-.473.24-.224.387.595.357 1.184.708 1.778 1.065.25.147.473-.24.224-.388Z"/><path d="M88.519 44.153a.475.475 0 0 1-.244-.067l-1.779-1.064a.469.469 0 0 1-.157-.657.459.459 0 0 1 .645-.168l1.779 1.064c.228.138.3.418.157.657a.471.471 0 0 1-.401.24v-.005Zm-.687 1.211c-.58-.453-1.159-.906-1.743-1.365-.224-.173-.544.138-.315.316l1.743 1.365c.223.173.543-.138.315-.316Z"/><path d="M87.66 45.99a.471.471 0 0 1-.3-.106l-1.743-1.36a.429.429 0 0 1-.173-.403.502.502 0 0 1 .798-.315l1.743 1.36a.428.428 0 0 1 .076.621.515.515 0 0 1-.402.199v.005Zm.015-.422.157-.199-.157.2Zm-.686 1.386a8.307 8.307 0 0 1-1.89-1.477c-.198-.21-.514.107-.315.316a8.857 8.857 0 0 0 1.981 1.548c.25.143.473-.245.224-.387Z"/><path d="M86.877 47.621a.458.458 0 0 1-.239-.066 9.101 9.101 0 0 1-2.037-1.594.465.465 0 0 1-.132-.372.478.478 0 0 1 .152-.306.48.48 0 0 1 .305-.137.445.445 0 0 1 .355.147 8.062 8.062 0 0 0 1.835 1.432.457.457 0 0 1 .228.31.493.493 0 0 1-.315.55.4.4 0 0 1-.152.026v.01Zm-.01-.448.127-.22-.127.22Zm-1.174 1.502c-.564-.54-1.128-1.085-1.687-1.624-.208-.2-.523.117-.315.315.564.54 1.128 1.085 1.687 1.625.209.199.524-.117.315-.316Z"/><path d="M85.525 49.312a.474.474 0 0 1-.325-.132l-1.687-1.625a.46.46 0 0 1-.01-.662.466.466 0 0 1 .676-.02l1.692 1.624a.459.459 0 0 1 .01.663.481.481 0 0 1-.35.152h-.006Zm-.01-.453.178-.183-.178.183Zm-1.02 1.574c-.564-.672-1.128-1.35-1.692-2.022-.183-.22-.498.097-.315.316l1.692 2.022c.183.219.498-.097.315-.316Z"/><path d="M84.322 51.075a.435.435 0 0 1-.34-.169l-1.693-2.022a.491.491 0 0 1 .067-.698.437.437 0 0 1 .635.056l1.692 2.023a.497.497 0 0 1-.29.804c-.025 0-.05.005-.076.005h.005Zm-1.352.732a15.495 15.495 0 0 1-1.336-1.96c-.142-.25-.528-.026-.386.223.416.718.889 1.401 1.407 2.053.178.224.493-.092.315-.316Z"/><path d="M82.798 52.454a.433.433 0 0 1-.34-.173 16.837 16.837 0 0 1-1.428-2.083.456.456 0 0 1 0-.469.5.5 0 0 1 .431-.25.45.45 0 0 1 .397.235 15.72 15.72 0 0 0 1.316 1.93.498.498 0 0 1-.082.703.45.45 0 0 1-.284.107h-.01Zm-1.2.704c-.432-.733-.864-1.472-1.296-2.205-.147-.25-.528-.026-.386.224.432.733.864 1.472 1.296 2.205.147.25.528.026.386-.224Z"/><path d="M81.39 53.743a.45.45 0 0 1-.397-.234l-1.29-2.205a.463.463 0 0 1 .173-.647.466.466 0 0 1 .65.163l1.29 2.205a.457.457 0 0 1 .01.464.513.513 0 0 1-.426.255h-.01Zm-.016-.458.219-.127-.219.127Zm-1.28 1.207c-.645-.652-1.117-1.406-1.565-2.205-.142-.25-.528-.026-.386.224.468.83.966 1.614 1.636 2.297.204.204.519-.112.315-.316Z"/><path d="M79.926 55.129a.455.455 0 0 1-.325-.143c-.721-.728-1.234-1.559-1.677-2.348a.472.472 0 0 1 .188-.652.457.457 0 0 1 .64.173c.412.734.885 1.503 1.525 2.15.122.122.168.29.122.448a.508.508 0 0 1-.35.351.49.49 0 0 1-.118.016l-.005.005Zm-1.489.953c-.508-.892-1.01-1.778-1.519-2.67-.142-.249-.528-.025-.386.225l1.52 2.669c.141.25.527.025.385-.224Z"/><path d="M78.23 56.672a.446.446 0 0 1-.397-.239l-1.52-2.669a.456.456 0 0 1 0-.469c.087-.152.255-.229.433-.25.167 0 .31.087.396.24l1.52 2.67a.456.456 0 0 1 0 .468.497.497 0 0 1-.428.25h-.005Zm-1.764.764-1.351-2.801c-.127-.26-.508-.03-.386.224.452.932.9 1.87 1.351 2.801.127.26.508.031.386-.224Z"/><path d="M76.253 58.027a.44.44 0 0 1-.401-.26L74.5 54.966a.485.485 0 0 1 .036-.484.506.506 0 0 1 .442-.224c.158.01.295.107.366.254l1.352 2.802a.491.491 0 0 1-.234.657.502.502 0 0 1-.209.05v.006Zm-1.864.763c-.478-1.054-.96-2.108-1.438-3.168-.117-.26-.503-.035-.386.224.477 1.055.96 2.11 1.438 3.169.117.26.503.035.386-.224Z"/><path d="M74.175 59.387a.44.44 0 0 1-.401-.265l-1.438-3.168a.496.496 0 0 1 .046-.49.494.494 0 0 1 .447-.213.435.435 0 0 1 .355.265l1.438 3.168a.496.496 0 0 1-.254.657.464.464 0 0 1-.193.046Zm-2.114.448a830.497 830.497 0 0 1-1.29-3.163c-.107-.265-.539-.148-.432.117.432 1.054.864 2.109 1.29 3.163.107.265.54.148.432-.117Z"/><path d="M71.858 60.354h-.07a.499.499 0 0 1-.392-.3l-1.29-3.163a.427.427 0 0 1 .243-.581c.234-.092.539-.02.656.27l1.29 3.163a.436.436 0 0 1-.05.438.497.497 0 0 1-.392.184l.005-.01Zm-.03-.422.233-.097-.233.096Zm-2.337.805c-.381-1.166-.767-2.333-1.148-3.5-.092-.27-.519-.157-.432.118.38 1.166.767 2.333 1.148 3.5.092.269.518.157.432-.118Z"/><path d="M69.272 61.262c-.035 0-.066 0-.101-.01a.46.46 0 0 1-.35-.321l-1.15-3.5a.45.45 0 0 1 .296-.58.477.477 0 0 1 .614.305l1.149 3.5a.446.446 0 0 1-.087.448.502.502 0 0 1-.37.163v-.005Zm-.025-.449.239-.081-.239.081Zm-2.231.489c-.29-1.136-.585-2.277-.874-3.413-.071-.28-.503-.157-.432.118l.874 3.412c.071.28.503.158.432-.117Z"/><path d="M66.787 61.832a.467.467 0 0 1-.447-.352l-.874-3.412a.463.463 0 0 1 .122-.453.513.513 0 0 1 .483-.128.467.467 0 0 1 .32.331l.874 3.413c.04.168 0 .336-.122.453a.505.505 0 0 1-.35.143l-.006.005Zm-2.432-.122c-.194-1.197-.392-2.4-.585-3.596-.046-.285-.477-.163-.432.117.193 1.197.392 2.4.585 3.596.045.285.477.163.431-.117Z"/><path d="M64.11 62.244a.438.438 0 0 1-.436-.377l-.585-3.596a.495.495 0 0 1 .417-.57.432.432 0 0 1 .513.367l.584 3.596a.482.482 0 0 1-.172.458.51.51 0 0 1-.325.117l.005.005Zm-2.215-.692c-.178-1.009-.356-2.022-.539-3.03-.05-.286-.477-.164-.432.116.178 1.009.356 2.022.539 3.03.05.286.477.164.432-.116Z"/><path d="M61.651 62.086a.437.437 0 0 1-.437-.371l-.538-3.036a.487.487 0 0 1 .162-.459.504.504 0 0 1 .488-.096.44.44 0 0 1 .28.346l.538 3.036a.49.49 0 0 1-.406.57c-.03 0-.056.005-.087.005v.005Zm-2.459-.927c-.091-.983-.178-1.961-.27-2.944-.025-.285-.472-.285-.446 0 .091.983.178 1.96.269 2.944.025.285.473.285.447 0Z"/><path d="M58.988 61.628a.482.482 0 0 1-.498-.443l-.269-2.944a.438.438 0 0 1 .407-.49.495.495 0 0 1 .543.444l.27 2.944a.44.44 0 0 1-.178.407.487.487 0 0 1-.275.087v-.005Zm-.05-.443.254-.026-.254.026Zm-2.51-1.141c-.061-.795-.127-1.59-.188-2.384-.02-.285-.468-.285-.447 0 .06.795.127 1.59.188 2.384.02.285.467.285.447 0Z"/><path d="M56.225 60.513a.483.483 0 0 1-.493-.448l-.188-2.384a.436.436 0 0 1 .188-.407.5.5 0 0 1 .493-.031.483.483 0 0 1 .274.397l.188 2.379a.446.446 0 0 1-.416.489h-.041l-.005.005Zm-.051-.448.254-.02-.254.02Zm-2.114-1.819.122-1.498c.026-.285-.421-.285-.447 0l-.122 1.498c-.025.285.422.285.447 0Z"/><path d="M53.822 58.715a.48.48 0 0 1-.275-.082.432.432 0 0 1-.182-.407l.121-1.498a.477.477 0 0 1 .275-.397.499.499 0 0 1 .493.035c.132.092.198.24.183.408l-.122 1.497a.477.477 0 0 1-.275.398.568.568 0 0 1-.218.05v-.005Z"/></g><defs><clipPath id="da"><path transform="translate(.682 .984)" d="M0 0h150.712v123.03H0z"/></clipPath></defs></svg></svg>